<svg xmlns="http://www.w3.org/2000/svg" version="1.1" id="Ebene_1" x="0px" y="0px" width="167px" height="192px" viewBox="0 0 167 192" enable-background="new 0 0 167 192" xml:space="preserve"><g id="blue" enable-background="new    "><polygon id="blue2" fill="#6DA8C2" points="60.668,80.411 85.09,65.084 83.5,99.773 59.861,113.297   "/><path fill="#6DA8C2" d="M108.122 21.868c-0.336 0.195-0.586 0.523-0.688 0.898 -0.108 0.387-0.051 0.809 0.148 1.152 0.18 0.309 0.535 0.633 0.898 0.691 0.572 0.093 1.131 0.192 1.676 0.386 0.186 0.089 0.365 0.185 0.539 0.293 0.307 0.296 0.572 0.625 0.854 0.946 0.543 0.609 1.57 0.551 2.121 0 0.604-0.605 0.543-1.512 0-2.121 -0.267-0.301-0.517-0.609-0.793-0.895 -0.344-0.352-0.776-0.602-1.215-0.82 -0.759-0.375-1.556-0.547-2.388-0.684 -0.146-0.023-0.286-0.039-0.424-0.039C108.604 21.677 108.366 21.727 108.122 21.868M83.744 18.712c-0.033 0.005-0.066 0.009-0.101 0.014C83.678 18.721 83.711 18.716 83.744 18.712M84.479 15.633c-0.699 0.087-1.397 0.157-2.094 0.271 -0.414 0.066-0.812 0.188-1.215 0.309 -0.57 0.175-1.129 0.402-1.684 0.625 -0.379 0.152-0.684 0.324-0.898 0.691 -0.203 0.344-0.258 0.766-0.148 1.152 0.102 0.375 0.352 0.702 0.688 0.897 0.312 0.184 0.801 0.294 1.156 0.153 1.059-0.427 2.096-0.803 3.221-0.984 0.323-0.038 0.649-0.073 0.976-0.114 0.414-0.046 0.754-0.133 1.059-0.438 0.281-0.28 0.441-0.663 0.441-1.062 0-0.394-0.16-0.78-0.441-1.059 -0.229-0.232-0.617-0.446-0.967-0.446C84.54 15.628 84.509 15.63 84.479 15.633M85.148 10.099c-0.695 0.039-1.375 0.098-2.062 0.18 -1.469 0.172-2.91 0.434-4.316 0.895 -0.836 0.273-1.672 0.637-2.422 1.094 -0.727 0.441-1.359 1.074-1.973 1.652 -0.594 0.562-0.566 1.559 0 2.121 0.59 0.59 1.527 0.562 2.121 0 0.365-0.348 0.739-0.686 1.126-1.009 0.402-0.286 0.832-0.514 1.282-0.715 1.229-0.487 2.504-0.782 3.804-0.993 1.478-0.175 2.979-0.355 4.468-0.208 0.512 0.1 1.002 0.278 1.496 0.44 0.777 0.258 1.637-0.289 1.848-1.047 0.224-0.816-0.272-1.59-1.051-1.844 -0.422-0.141-0.84-0.289-1.27-0.402 -0.402-0.105-0.832-0.133-1.242-0.172 -0.246-0.022-0.493-0.03-0.741-0.03C85.859 10.061 85.502 10.078 85.148 10.099M113.171 19.674c-0.013-0.006-0.024-0.011-0.038-0.017 -0.001 0-0.001 0-0.002 0C113.145 19.662 113.157 19.668 113.171 19.674M106.869 15.348c-0.816 0.004-1.5 0.68-1.5 1.5 0 0.812 0.684 1.504 1.5 1.5 0.763-0.003 1.52 0.01 2.273 0.093 1.375 0.226 2.697 0.692 3.987 1.217 -0.019-0.008-0.036-0.017-0.055-0.024 0.019 0.009 0.036 0.017 0.057 0.024 0.101 0.041 0.202 0.083 0.304 0.124 -0.09-0.034-0.179-0.07-0.266-0.107 0.896 0.385 1.768 0.82 2.616 1.299 0.713 0.4 1.433 0.787 2.101 1.258 0.201 0.178 0.383 0.369 0.557 0.576 0.162 0.227 0.322 0.456 0.479 0.682 0.229 0.332 0.5 0.582 0.897 0.691 0.388 0.105 0.81 0.051 1.156-0.152 0.66-0.387 1.008-1.383 0.539-2.051 -0.397-0.566-0.789-1.133-1.258-1.641 -0.258-0.277-0.582-0.496-0.887-0.723 -0.359-0.262-0.75-0.48-1.133-0.703 -0.617-0.359-1.242-0.707-1.875-1.035 -1.43-0.742-2.926-1.336-4.453-1.848 -1.59-0.536-3.239-0.68-4.907-0.68C106.96 15.348 106.915 15.348 106.869 15.348M111.689 8.963c-0.844 0.02-1.684 0.117-2.522 0.211 -0.414 0.047-0.754 0.137-1.06 0.441 -0.28 0.281-0.44 0.664-0.44 1.059 0 0.398 0.16 0.781 0.44 1.062 0.254 0.254 0.688 0.48 1.06 0.438 0.746-0.082 1.492-0.168 2.242-0.203 0.667-0.031 1.315-0.007 1.972 0.067 0.694 0.118 1.352 0.302 2.006 0.559 1.221 0.556 2.365 1.243 3.452 2.022 0.565 0.407 1.13 0.813 1.695 1.218 1.202 0.961 2.342 1.997 3.375 3.142 0.258 0.289 0.547 0.566 0.784 0.875 0.255 0.328 0.513 0.66 0.767 0.992 -0.078-0.102-0.155-0.203-0.233-0.305 0.598 0.828 1.176 1.664 1.737 2.52 0.449 0.68 1.32 0.965 2.052 0.539 0.68-0.398 0.987-1.371 0.539-2.055 -0.853-1.297-1.755-2.539-2.703-3.766 -0.332-0.43-0.728-0.816-1.09-1.219 -0.88-0.977-1.884-1.855-2.898-2.684 -0.613-0.496-1.258-0.949-1.898-1.406 -0.727-0.522-1.461-1.035-2.223-1.508 -1.355-0.836-2.875-1.512-4.441-1.797 -0.751-0.14-1.508-0.208-2.268-0.208C111.918 8.958 111.805 8.96 111.689 8.963M81.24 4.465c-1.64 0.469-3.199 1.246-4.656 2.125 -0.859 0.52-1.66 1.125-2.469 1.719 -1.348 0.996-2.637 2.078-3.902 3.172 -0.621 0.535-0.547 1.574 0 2.121 0.277 0.281 0.664 0.438 1.059 0.438 0.422 0 0.75-0.172 1.062-0.438 0.75-0.648 1.504-1.289 2.285-1.906 0.325-0.26 0.655-0.518 0.983-0.775 0.398-0.294 0.794-0.587 1.192-0.881 1.168-0.862 2.464-1.58 3.793-2.166 0.825-0.333 1.668-0.621 2.543-0.772 1.709-0.146 3.425 0.075 5.121 0.267 1.133 0.129 2.267 0.273 3.401 0.359 0.816 0.059 1.5-0.73 1.5-1.5 0-0.398-0.159-0.781-0.438-1.062 -0.297-0.297-0.652-0.406-1.062-0.438 -1.219-0.094-2.43-0.25-3.645-0.387 -0.672-0.074-1.344-0.141-2.016-0.207 -0.536-0.05-1.072-0.078-1.605-0.078C83.327 4.055 82.274 4.169 81.24 4.465M82.372 110.723c-0.559 0.254-1.121 0.504-1.68 0.762 -0.668 0.312-1.422 0.574-1.938 1.113 -0.599 0.633-0.576 1.736 0.146 2.258 -0.049 0.093-0.089 0.19-0.118 0.297 -0.129 0.47-0.066 1.013 0.18 1.431 0.181 0.31 0.449 0.543 0.759 0.722 0.061 0.125 0.129 0.245 0.202 0.36 0.25 0.396 0.621 0.789 1.02 1.035 0.607 0.372 1.314 0.655 2.015 0.8 0.381 0.225 0.826 0.328 1.278 0.271 0.354-0.043 0.695-0.117 1.043-0.195 0.207-0.047 0.414-0.088 0.621-0.127 0.234 0.048 0.479 0.044 0.703-0.018 0.035-0.009 0.065-0.021 0.102-0.027 0.324-0.092 0.609-0.291 0.809-0.557 0.194-0.104 0.396-0.197 0.586-0.3 0.146-0.077 0.293-0.155 0.438-0.233 0.116-0.062 0.233-0.125 0.354-0.185 0.271-0.141 0.496-0.336 0.73-0.522 0.516-0.418 0.547-1.285 0.234-1.82 -0.195-0.336-0.521-0.586-0.896-0.688 -0.422-0.117-0.776-0.023-1.155 0.147 -0.025 0.012-0.052 0.022-0.076 0.035 -0.01-0.058-0.021-0.116-0.037-0.177 -0.064-0.23-0.178-0.426-0.323-0.588 0.014-0.039 0.026-0.078 0.038-0.119 0.098-0.352 0.078-0.854-0.152-1.155 -0.098-0.134-0.199-0.263-0.297-0.392 -0.27-0.27-0.676-0.457-1.062-0.44 -0.166 0.011-0.326 0.024-0.483 0.062 -0.026-0.033-0.056-0.064-0.086-0.097 -0.17-0.17-0.431-0.335-0.695-0.408 -0.008-0.247-0.075-0.491-0.202-0.709 -0.195-0.336-0.523-0.586-0.898-0.688 -0.128-0.035-0.25-0.051-0.369-0.051C82.89 110.52 82.638 110.602 82.372 110.723M54.1 131.803c0.031 0.021 0.062 0.045 0.089 0.069C54.159 131.85 54.129 131.826 54.1 131.803M54.244 126.24c-0.773 0.211-1.285 1.062-1.047 1.844 0.18 0.598 0.378 1.186 0.591 1.771 -0.239 0.338-0.34 0.77-0.188 1.213 0.606 1.797 1.274 3.568 2.125 5.266 0.043 0.322 0.11 0.643 0.156 0.962 -0.016-0.133-0.035-0.267-0.051-0.397 0.185 1.444 0.485 2.883 0.738 4.322 0 0.096 0 0.188 0 0.282 -0.002 0.405-0.003 0.812-0.004 1.216 -0.002 0.086-0.003 0.17-0.004 0.254 -0.02 1.477 0 2.957 0 4.434 0 0.092 0.009 0.181 0.024 0.269 -0.168 0.173-0.416 0.564-0.454 0.806 -0.051 0.34-0.098 0.672-0.098 1.021 0 0.34 0.012 0.681 0.027 1.021 0.027 0.664 0.07 1.379 0.297 2.008 0.191 0.522 0.562 0.979 1.121 1.133 0.244 0.066 0.488 0.066 0.727 0.023 0.015 0.023 0.029 0.049 0.043 0.072 0.043 0.133 0.096 0.26 0.164 0.385 0.32 0.586 1.059 0.862 1.691 0.688 0.047-0.014 0.093-0.028 0.138-0.046 0.062 0.051 0.129 0.093 0.198 0.124 0.215 0.1 0.432 0.191 0.644 0.294 0.229 0.774 1.056 1.239 1.837 1.022 0.809-0.22 1.242-1.052 1.051-1.845 -0.395-1.629-0.789-3.258-1.176-4.891 -0.06-0.251-0.118-0.503-0.176-0.755 0.009-0.312 0.017-0.623 0.023-0.937 0.533-0.239 0.872-0.776 0.887-1.368 0.039-1.397 0.016-2.801 0.004-4.199 -0.004-0.625-0.012-1.246-0.023-1.871 -0.008-0.44-0.02-0.883-0.027-1.323 -0.007-0.329-0.03-0.657-0.057-0.985 0.033-0.045 0.063-0.091 0.092-0.14 0.227-0.397 0.332-0.806 0.211-1.267 -0.099-0.383-0.273-0.67-0.496-0.965 -0.03-0.146-0.083-0.287-0.154-0.414 -0.051-0.117-0.105-0.232-0.162-0.352 -0.068-0.143-0.144-0.281-0.224-0.417 -0.073-0.259-0.215-0.515-0.327-0.759 -0.121-0.266-0.397-0.482-0.677-0.607 -0.029-0.035-0.06-0.072-0.089-0.107 -0.492-0.59-1.082-1.102-1.656-1.602 -0.301-0.262-0.594-0.527-0.914-0.77 -0.058-0.043-0.115-0.084-0.174-0.123 -0.21-0.241-0.428-0.475-0.686-0.674 -0.332-0.258-0.621-0.441-1.059-0.441 -0.093 0-0.189 0.009-0.287 0.027 -0.26-0.713-0.516-1.426-0.736-2.152 -0.196-0.652-0.79-1.102-1.449-1.102C54.509 126.188 54.376 126.203 54.244 126.24M59.532 113.864L59.532 113.864c0.108-0.083 0.217-0.167 0.326-0.251C59.749 113.697 59.641 113.779 59.532 113.864"/><polyline fill="#81A4AD" points="80.727,91.66 80.729,91.649 80.729,91.647 80.727,91.66   "/><path fill="#81A4AD" d="M60.348 95.367c0.002-0.015 0.004-0.028 0.006-0.042C60.351 95.339 60.348 95.352 60.348 95.367"/></g><g id="antennen" enable-background="new    "><path fill="#444444" d="M46.797 94.731c0.006 0.039 0.011 0.078 0.016 0.116C46.807 94.81 46.801 94.771 46.797 94.731M51.482 90.506c0.027 0.034 0.055 0.068 0.08 0.104C51.535 90.576 51.509 90.541 51.482 90.506M49.411 89.779c0.56 0.095 1.1 0.228 1.641 0.41 0.098 0.049 0.192 0.102 0.285 0.16 0.018 0.017 0.034 0.034 0.051 0.052 0.049 0.079 0.094 0.159 0.135 0.241 0.041 0.126 0.076 0.251 0.107 0.38 0.009 0.24-0.008 0.475-0.035 0.713 -0.164 0.92-0.55 1.799-0.897 2.663 -0.132 0.296-0.279 0.573-0.459 0.841 -0.115 0.133-0.236 0.257-0.367 0.373 -0.055 0.034-0.109 0.066-0.166 0.097 -0.086 0.028-0.173 0.052-0.263 0.074 -0.246 0.014-0.488 0.006-0.735-0.018 -0.482-0.084-0.95-0.194-1.411-0.358 -0.108-0.053-0.214-0.109-0.317-0.174 -0.008-0.007-0.015-0.015-0.022-0.021 -0.035-0.056-0.067-0.112-0.099-0.17 -0.006-0.022-0.012-0.045-0.018-0.067 -0.04-0.603-0.009-1.197 0.045-1.798 0.09-0.575 0.208-1.138 0.361-1.699 0.151-0.548 0.332-1.087 0.515-1.626C48.31 89.786 48.861 89.733 49.411 89.779M48.555 86.774c-0.566 0.031-1.129 0.129-1.691 0.184 -0.414 0.043-0.758 0.137-1.062 0.441 -0.064 0.063-0.121 0.132-0.172 0.205 -0.242 0.193-0.431 0.462-0.535 0.775 -0.285 0.855-0.574 1.707-0.816 2.574 -0.215 0.781-0.34 1.598-0.41 2.402 -0.027 0.332-0.043 0.66-0.051 0.992 -0.02 0.539 0.035 1.105 0.191 1.617 0.156 0.535 0.492 1.027 0.883 1.418 0.703 0.703 1.762 1.022 2.707 1.224 1.027 0.211 2.133 0.312 3.125-0.086 0.195-0.07 0.383-0.156 0.566-0.259 0.266-0.141 0.496-0.354 0.73-0.543 0.34-0.266 0.605-0.676 0.852-1.022 0.422-0.598 0.648-1.324 0.914-2.004 0.285-0.734 0.59-1.461 0.715-2.242 0.113-0.684 0.203-1.367 0.062-2.055 -0.102-0.496-0.285-0.965-0.52-1.414 -0.266-0.504-0.707-0.871-1.152-1.203 -0.172-0.129-0.375-0.211-0.57-0.293 -0.273-0.117-0.543-0.219-0.824-0.309 -0.434-0.137-0.875-0.23-1.328-0.297 -0.441-0.069-0.862-0.113-1.298-0.113C48.766 86.767 48.661 86.77 48.555 86.774M96.327 140.261c0.045 0.028 0.086 0.062 0.124 0.095C96.41 140.324 96.369 140.292 96.327 140.261M95.996 140.216c0.094 0.023 0.186 0.05 0.277 0.082 0.074 0.035 0.147 0.073 0.221 0.114 0.029 0.046 0.058 0.092 0.085 0.139 0.01 0.278-0.013 0.553-0.042 0.827 -0.085 0.481-0.205 0.952-0.373 1.411 -0.092 0.17-0.197 0.327-0.309 0.484 -0.304 0.375-0.627 0.729-0.992 1.045 -0.237 0.168-0.482 0.324-0.739 0.462 -0.136 0.046-0.272 0.084-0.416 0.114 -0.224 0.014-0.442 0.006-0.666-0.017 -0.263-0.046-0.517-0.104-0.771-0.179 0.095-0.312 0.207-0.618 0.317-0.924 0.035-0.1 0.07-0.197 0.106-0.297 0.125-0.11 0.234-0.244 0.351-0.396 0.293-0.379 0.574-0.763 0.862-1.146 0.357-0.453 0.732-0.873 1.174-1.246 0.204-0.146 0.412-0.278 0.636-0.395C95.811 140.27 95.902 140.241 95.996 140.216M95.893 140.215c-0.056 0.008-0.11 0.016-0.166 0.021C95.781 140.227 95.837 140.219 95.893 140.215M95.727 137.236c-0.297 0.035-0.555 0.082-0.836 0.177 -0.897 0.289-1.676 0.896-2.352 1.535 -0.398 0.375-0.732 0.829-1.062 1.267 -0.168 0.032-0.332 0.092-0.479 0.18 -0.356 0.207-0.552 0.516-0.688 0.895 -0.302 0.82-0.599 1.637-0.879 2.461 -0.09 0.266-0.16 0.531-0.211 0.805 -0.066 0.375-0.07 0.603-0.013 0.978 0.044 0.293 0.149 0.534 0.286 0.797 0.227 0.43 0.723 0.771 1.154 0.957 0.31 0.133 0.617 0.246 0.938 0.344 0.407 0.125 0.841 0.185 1.263 0.229 0.711 0.082 1.414 0.031 2.098-0.188 1.188-0.379 2.188-1.262 2.978-2.199 0.293-0.344 0.57-0.711 0.802-1.098 0.203-0.344 0.34-0.762 0.457-1.141 0.055-0.188 0.104-0.371 0.15-0.56 0.105-0.409 0.148-0.836 0.204-1.254 0.034-0.267 0.06-0.535 0.055-0.805 -0.009-0.488-0.116-0.941-0.317-1.384 -0.328-0.711-0.891-1.262-1.601-1.582 -0.37-0.168-0.733-0.319-1.137-0.379 -0.206-0.03-0.365-0.049-0.536-0.049C95.914 137.223 95.825 137.227 95.727 137.236M93.896 142.23c-0.551 0.552-0.608 1.578 0 2.121 1.254 1.109 2.474 2.242 3.605 3.474 0.5 0.543 1 1.073 1.547 1.565 0.578 0.521 1.152 1.039 1.719 1.57 0.527 0.5 1.056 1 1.562 1.52 0.523 0.535 1.023 1.086 1.559 1.605 1.137 1.109 2.297 2.234 3.617 3.121 0.824 0.555 1.703 1.012 2.566 1.5 0.402 0.227 0.824 0.426 1.234 0.641 0.812 0.43 1.637 0.849 2.452 1.271 0.729 0.375 1.625 0.194 2.056-0.539 0.395-0.677 0.188-1.677-0.539-2.052 -0.859-0.44-1.724-0.883-2.582-1.336 -0.473-0.25-0.953-0.483-1.414-0.75 -0.922-0.531-1.848-1.021-2.707-1.647 -2.164-1.761-3.982-3.882-6.023-5.772 -0.516-0.474-1.035-0.941-1.555-1.41 -0.539-0.484-1.023-1.027-1.512-1.559 -1.086-1.181-2.267-2.259-3.465-3.32 -0.313-0.278-0.705-0.432-1.094-0.432C94.559 141.801 94.191 141.938 93.896 142.23M41.108 96.157c-0.074 0.031-0.148 0.062-0.222 0.092C40.961 96.218 41.034 96.188 41.108 96.157M49.348 88.937c-1.535 0.559-3.078 1.145-4.477 2.008 -1.179 0.734-2.382 1.397-3.651 1.956 -1.009 0.395-1.999 0.819-2.962 1.321 -0.961 0.504-1.918 1.004-2.883 1.496 -0.855 0.438-1.73 0.845-2.59 1.273 -0.796 0.401-1.583 0.823-2.397 1.192 -0.733 0.271-1.499 0.479-2.228 0.771 -0.504 0.207-0.977 0.469-1.465 0.695 -0.695 0.324-1.383 0.656-2.074 0.979 -0.336 0.16-0.594 0.552-0.691 0.896 -0.105 0.391-0.051 0.812 0.152 1.156 0.195 0.336 0.523 0.586 0.898 0.69 0.414 0.112 0.777 0.026 1.152-0.151 1.017-0.478 2.021-0.976 3.033-1.453 0.488-0.183 0.995-0.326 1.486-0.496 0.605-0.207 1.191-0.461 1.77-0.73 0.484-0.23 0.949-0.5 1.434-0.738 0.438-0.215 0.871-0.441 1.316-0.652 1.043-0.5 2.074-1.022 3.105-1.555 0.965-0.498 1.915-1.025 2.904-1.47 0.627-0.254 1.26-0.496 1.877-0.776 0.625-0.285 1.238-0.59 1.84-0.926 0.641-0.355 1.25-0.77 1.891-1.125 0.586-0.325 1.182-0.611 1.787-0.885 0.522-0.198 1.046-0.396 1.568-0.584 0.379-0.137 0.688-0.332 0.898-0.691 0.203-0.344 0.258-0.77 0.152-1.156 -0.171-0.611-0.797-1.117-1.443-1.117C49.617 88.866 49.481 88.889 49.348 88.937M50.77 121.545c-0.184-0.062-0.348-0.141-0.52-0.188 -0.137-0.039-0.27-0.06-0.398-0.06 -0.27 0-0.531 0.075-0.766 0.212 -0.297 0.172-0.641 0.526-0.699 0.901 -0.383 2.665-0.578 5.399-0.77 8.04l-0.129 1.707 -0.039 0.531c-0.102 1.301-0.203 2.604-0.262 3.908 -0.012 0.282-0.02 0.561-0.027 0.842 -0.012 0.44-0.023 0.879-0.055 1.319 -0.07 0.992-0.129 1.976-0.164 2.968 -0.012 0.379 0.137 0.746 0.414 1.037 0.293 0.301 0.691 0.477 1.098 0.477 0.816 0 1.48-0.664 1.512-1.514 0.031-0.951 0.09-1.896 0.156-2.847 0.051-0.741 0.07-1.483 0.09-2.228 0.031-1.184 0.129-2.387 0.223-3.551l0.066-0.816 0.156-2.085c0.148-1.998 0.3-4.065 0.534-6.086 0.039 0.043 0.078 0.086 0.118 0.129 0.244 0.286 0.496 0.575 0.742 0.875l0.379 0.5c0.27 0.358 0.543 0.723 0.824 1.077l-0.055-0.086 0.137 0.188 0.367 0.475 0.188 0.269c0.145 0.216 0.293 0.431 0.449 0.646l0.113 0.152c0.371 0.5 0.754 1.016 1.242 1.414 0.785 0.641 1.355 1.176 1.859 1.727 0.828 0.902 1.84 1.599 2.812 2.215 0.188 0.121 0.379 0.234 0.574 0.348 0.176 0.105 0.355 0.212 0.535 0.32 0.332 0.207 0.652 0.423 0.973 0.646 -0.109 1.472-0.164 3-0.168 4.53l0.004 0.492c0 0.621 0.004 1.246-0.031 1.863 -0.047 0.81-0.094 1.617-0.129 2.426 -0.051 1.219-0.051 2.461-0.047 3.66v0.832l0.004 0.664c0.004 0.521 0.004 1.039-0.008 1.555 -0.004 0.445-0.047 0.895-0.086 1.345 -0.027 0.296-0.055 0.594-0.074 0.896l0.004 0.146h-0.012c-0.051 0.286-0.113 0.57-0.176 0.855 -0.176 0.845 0.277 1.645 1.059 1.855 0.121 0.034 0.25 0.051 0.379 0.051 0.711 0 1.348-0.473 1.477-1.102l0.059-0.27c0.098-0.47 0.203-0.955 0.23-1.441 0.008-0.156 0.016-0.312 0.027-0.465 0.031-0.392 0.066-0.785 0.102-1.178 0.051-0.58 0.047-1.18 0.039-1.757v-0.539l-0.004-0.825c0-1.19-0.004-2.379 0.031-3.565 0.016-0.667 0.047-1.335 0.082-2.003 0.043-0.898 0.086-1.799 0.094-2.699 0.004-1.586 0.008-3.225 0.125-4.832 0.02-0.312 0.043-0.629 0.07-0.941 0.031-0.406-0.152-0.812-0.496-1.113 -0.109-0.305-0.312-0.547-0.656-0.785 -0.504-0.354-1.176-0.814-1.891-1.229 -0.578-0.341-1.156-0.72-1.773-1.16 -0.363-0.306-0.699-0.648-1.023-0.985 -0.242-0.246-0.484-0.496-0.742-0.733 -0.273-0.255-0.551-0.5-0.84-0.734 -0.367-0.301-0.699-0.633-1.016-1.008l-0.398-0.547c-0.285-0.397-0.57-0.797-0.871-1.188l-0.297-0.379 -0.297-0.383c-0.238-0.32-0.477-0.643-0.719-0.955 -0.445-0.576-0.945-1.154-1.574-1.815 -0.266-0.28-0.641-0.44-1.051-0.44S51.051 121.27 50.77 121.545M49.544 122.812c0.156 1.742 0.496 3.444 0.863 5.155 0.172 0.798 0.367 1.582 0.617 2.355 0.234 0.706 0.508 1.397 0.75 2.102 0.273 0.785 0.527 1.574 0.746 2.38 0.195 0.706 0.348 1.43 0.523 2.145 0.168 0.699 0.394 1.379 0.59 2.07 0.195 0.688 0.355 1.387 0.562 2.069 0.233 0.765 0.518 1.5 0.824 2.234 0.121 0.329 0.236 0.663 0.352 0.995 0.266 0.771 1.016 1.273 1.844 1.048 0.75-0.207 1.316-1.074 1.047-1.849 -0.164-0.476-0.337-0.942-0.525-1.41 0.009 0.021 0.017 0.039 0.025 0.06 -0.121-0.31-0.25-0.617-0.375-0.931 -0.129-0.319-0.211-0.663-0.312-0.991 -0.207-0.688-0.367-1.384-0.562-2.07 -0.195-0.694-0.418-1.379-0.59-2.082 -0.176-0.707-0.328-1.422-0.52-2.129 -0.422-1.547-1.023-3.03-1.523-4.555 -0.496-1.522-0.785-3.121-1.078-4.691 -0.062-0.321-0.117-0.645-0.168-0.969 -0.033-0.312-0.063-0.626-0.09-0.938 -0.039-0.41-0.141-0.762-0.441-1.062 -0.277-0.276-0.665-0.438-1.059-0.438C50.282 121.312 49.47 121.996 49.544 122.812M55.931 161.107c-0.015 0.037-0.029 0.072-0.044 0.108C55.9 161.182 55.916 161.145 55.931 161.107M56.48 158.768c-0.005 0.045-0.011 0.09-0.017 0.133C56.47 158.855 56.475 158.812 56.48 158.768M54.243 151.046c-0.012 0.095-0.023 0.188-0.036 0.28C54.219 151.232 54.231 151.141 54.243 151.046M57.344 150.174c-0.005 0.041-0.01 0.081-0.015 0.122C57.334 150.255 57.339 150.215 57.344 150.174M54.484 149.166c-0.009 0.062-0.018 0.126-0.025 0.188C54.467 149.292 54.476 149.229 54.484 149.166M57.906 145.143c-0.004 0.034-0.008 0.067-0.013 0.102C57.898 145.21 57.902 145.177 57.906 145.143M55.859 142.424c-0.301 0.18-0.633 0.535-0.688 0.898 -0.176 1.125-0.316 2.254-0.461 3.387 -0.121 0.949-0.172 1.906-0.281 2.855 0.004-0.021 0.007-0.045 0.01-0.066 -0.066 0.496-0.126 0.99-0.188 1.484 0.003-0.02 0.005-0.037 0.007-0.056 -0.09 0.688-0.18 1.371-0.242 2.06 -0.043 0.52-0.055 1.047-0.078 1.565 -0.02 0.513-0.09 1.027-0.129 1.539 -0.034 0.437-0.064 0.87-0.11 1.306 -0.108 0.629-0.205 1.256-0.282 1.89 -0.032 0.157-0.077 0.302-0.134 0.455 -0.102 0.235-0.201 0.471-0.302 0.706 -0.145 0.348-0.031 0.844 0.152 1.156 0.195 0.336 0.52 0.586 0.895 0.688 0.387 0.109 0.809 0.055 1.156-0.148 0.357-0.209 0.52-0.496 0.674-0.854 -0.016 0.035-0.03 0.069-0.045 0.104 0.145-0.332 0.289-0.66 0.418-0.996 0.109-0.28 0.129-0.602 0.16-0.897 0.018-0.147 0.035-0.298 0.055-0.447 0.104-0.638 0.219-1.274 0.285-1.92 0.066-0.625 0.09-1.258 0.148-1.883 0.105-1.146 0.109-2.289 0.262-3.426 -0.005 0.036-0.011 0.071-0.016 0.108 0.064-0.49 0.123-0.98 0.184-1.471 0.122-0.912 0.233-1.824 0.309-2.744 0.062-0.754 0.156-1.501 0.249-2.248 0.063-0.449 0.13-0.9 0.196-1.35 0.066-0.418 0.07-0.777-0.148-1.156 -0.199-0.336-0.523-0.586-0.898-0.688 -0.131-0.036-0.266-0.055-0.4-0.055C56.352 142.221 56.09 142.29 55.859 142.424M46.556 142.13c0 1.086-0.035 2.172 0.133 3.25 0.137 0.892 0.277 1.802 0.539 2.668 0.301 1 0.68 1.974 1.148 2.906 0.378 0.76 0.781 1.505 1.153 2.267 0.417 1.04 0.78 2.104 1.085 3.184 0.156 0.562 0.258 1.137 0.355 1.711 0.095 0.537 0.199 1.072 0.281 1.611 0.043 0.438 0.059 0.879 0.082 1.317 0.047 0.815 0.648 1.5 1.5 1.5 0.785 0 1.547-0.68 1.5-1.5 -0.027-0.512-0.043-1.026-0.105-1.539 -0.047-0.348-0.098-0.69-0.152-1.039 -0.082-0.491-0.18-0.983-0.27-1.478 -0.09-0.465-0.172-0.926-0.301-1.383 -0.133-0.477-0.285-0.948-0.438-1.418 -0.355-1.074-0.766-2.108-1.258-3.129 -0.211-0.434-0.449-0.854-0.676-1.281 -0.2-0.371-0.373-0.756-0.542-1.145 -0.244-0.648-0.472-1.294-0.622-1.969 -0.133-0.602-0.248-1.204-0.348-1.811 -0.077-0.91-0.066-1.814-0.066-2.726 0-0.819-0.684-1.5-1.5-1.5C47.238 140.628 46.556 141.311 46.556 142.13M84.438 112.379c0.155 0.037 0.307 0.082 0.455 0.135 0.319 0.172 0.616 0.365 0.908 0.578 0.529 0.448 1.018 0.934 1.508 1.428 0.377 0.379 0.756 0.76 1.114 1.16 -0.435 0.446-0.938 0.813-1.428 1.198 -0.455 0.358-0.904 0.726-1.354 1.086 -0.261 0.199-0.52 0.399-0.779 0.601 -0.449 0.338-0.898 0.721-1.397 0.979 -0.002 0-0.003-0.001-0.005-0.001 -0.173-0.09-0.335-0.188-0.494-0.298 -0.505-0.425-0.976-0.896-1.453-1.349 -0.43-0.405-0.855-0.809-1.285-1.215 -0.512-0.479-1.082-0.91-1.668-1.297 -0.076-0.052-0.155-0.101-0.235-0.148 0.878-0.484 1.752-0.979 2.646-1.434 0.85-0.434 1.707-0.84 2.574-1.234 0.215-0.077 0.43-0.144 0.651-0.189C84.275 112.375 84.357 112.376 84.438 112.379M82.722 109.684c-0.398 0.145-0.781 0.336-1.164 0.508 -0.332 0.151-0.664 0.301-0.996 0.457 -0.699 0.336-1.387 0.703-2.07 1.065 -0.773 0.41-1.527 0.853-2.297 1.271 -0.305 0.166-0.521 0.437-0.637 0.746 -0.131-0.078-0.263-0.155-0.395-0.234 -0.703-0.422-1.645-0.164-2.051 0.535 -0.418 0.711-0.164 1.633 0.535 2.055 0.648 0.387 1.293 0.777 1.969 1.121 0.683 0.345 1.345 0.695 1.965 1.143 1.191 0.99 2.214 2.178 3.422 3.15 0.668 0.539 1.445 1.004 2.328 1.051 0.771 0.043 1.492-0.27 2.112-0.703 0.562-0.396 1.103-0.82 1.645-1.242 0.586-0.448 1.167-0.899 1.735-1.366 0.655-0.531 1.366-1.013 1.922-1.656 0.344-0.396 0.555-0.806 0.728-1.297 0.184-0.531 0.12-1.138-0.109-1.634 -0.23-0.5-0.668-0.926-1.043-1.336 -0.48-0.526-0.992-1.026-1.5-1.526 -0.605-0.595-1.25-1.142-1.961-1.603 -0.785-0.516-1.695-0.812-2.637-0.812C83.718 109.374 83.194 109.511 82.722 109.684M93.066 43.963c0.004 0.003 0.007 0.005 0.01 0.007C93.073 43.968 93.07 43.966 93.066 43.963 93.066 43.964 93.066 43.964 93.066 43.963M93.02 43.924c0.012 0.009 0.021 0.018 0.032 0.026 0 0 0 0.001 0 0.002 -0.009-0.008-0.019-0.015-0.028-0.022C93.021 43.928 93.021 43.926 93.02 43.924M92.939 43.865c0.023 0.017 0.047 0.034 0.07 0.052 0.002 0.002 0.002 0.004 0.004 0.006C92.988 43.903 92.965 43.885 92.939 43.865M91.262 43.185c0.184 0.21 0.424 0.366 0.709 0.426 0.301 0.062 0.6 0.112 0.891 0.202 0 0.001 0.002 0.001 0.002 0.002 0.072 0.064 0.144 0.131 0.21 0.201 0.056 0.182 0.101 0.363 0.136 0.551 0.046 0.647 0.018 1.305-0.046 1.952 -0.087 0.455-0.236 0.889-0.404 1.321 -0.095 0.193-0.196 0.378-0.315 0.557 -0.101 0.114-0.202 0.223-0.312 0.326 -0.097 0.061-0.193 0.115-0.297 0.167 -0.193 0.067-0.387 0.12-0.588 0.161 -0.424 0.032-0.842 0.02-1.264-0.022 -0.217-0.041-0.428-0.094-0.64-0.163 -0.114-0.057-0.227-0.119-0.336-0.189 -0.104-0.092-0.2-0.188-0.292-0.291 -0.076-0.124-0.145-0.248-0.208-0.377 -0.041-0.119-0.075-0.237-0.104-0.36 -0.024-0.406-0.004-0.807 0.039-1.21 0.101-0.48 0.234-0.948 0.406-1.407 0.119-0.245 0.254-0.477 0.406-0.702 0.193-0.22 0.4-0.419 0.624-0.608 0.196-0.136 0.399-0.256 0.613-0.362C90.745 43.278 91.001 43.229 91.262 43.185M90.623 40.267c-0.23 0.039-0.461 0.074-0.688 0.121 -0.242 0.051-0.48 0.164-0.707 0.262 -0.312 0.133-0.605 0.297-0.888 0.492 -0.603 0.414-1.116 0.91-1.551 1.496 -0.733 0.98-1.156 2.246-1.312 3.461 -0.052 0.41-0.09 0.816-0.095 1.23 -0.012 0.945 0.281 1.887 0.806 2.668 0.535 0.805 1.34 1.41 2.25 1.727 0.758 0.266 1.586 0.344 2.387 0.355 0.973 0.016 1.945-0.266 2.785-0.738 0.414-0.234 0.766-0.594 1.065-0.957 0.298-0.355 0.539-0.734 0.73-1.156 0.206-0.453 0.383-0.926 0.534-1.398 0.181-0.566 0.22-1.184 0.263-1.773 0.06-0.789 0.012-1.559-0.108-2.34 -0.023-0.168-0.078-0.332-0.125-0.492 -0.148-0.52-0.427-0.918-0.767-1.328 -0.207-0.25-0.521-0.441-0.771-0.633 -0.219-0.168-0.5-0.242-0.75-0.344 -0.285-0.113-0.621-0.141-0.914-0.203 -0.217-0.044-0.437-0.048-0.646-0.014 -0.103-0.111-0.22-0.209-0.351-0.287 -0.239-0.14-0.475-0.189-0.721-0.189C90.916 40.226 90.771 40.241 90.623 40.267M107.637 27.029c-0.566 0.562-1.105 1.156-1.652 1.738 -0.5 0.535-0.941 1.113-1.48 1.609 -0.578 0.531-1.195 1.008-1.738 1.578 -0.531 0.555-1.051 1.129-1.565 1.703 -0.242 0.273-0.47 0.566-0.712 0.844 -0.276 0.32-0.562 0.629-0.848 0.941 -0.496 0.543-1 1.062-1.539 1.562 -0.562 0.516-1.137 1.035-1.651 1.598 -0.539 0.582-1.06 1.184-1.648 1.711s-1.211 1.023-1.793 1.559c-0.562 0.52-1.108 1.062-1.633 1.621 -0.513 0.555-1.062 1.07-1.603 1.594 -0.555 0.535-1.125 1.051-1.727 1.531 -0.293 0.234-0.441 0.703-0.441 1.062 0 0.395 0.16 0.781 0.441 1.059 0.277 0.281 0.664 0.441 1.059 0.441 0.435 0 0.738-0.18 1.062-0.441 0.602-0.48 1.172-0.992 1.727-1.531 0.539-0.527 1.09-1.039 1.603-1.594 0.522-0.559 1.069-1.102 1.633-1.621 0.582-0.535 1.203-1.031 1.793-1.559 0.591-0.528 1.109-1.129 1.647-1.711 0.521-0.562 1.095-1.074 1.652-1.598 1.113-1.047 2.109-2.188 3.103-3.348 0.495-0.586 1.043-1.133 1.562-1.703 0.527-0.586 1.164-1.047 1.738-1.578 0.539-0.496 0.98-1.074 1.48-1.609 0.551-0.582 1.086-1.176 1.651-1.738 0.582-0.578 0.578-1.547 0-2.121 -0.288-0.291-0.673-0.436-1.057-0.436C108.314 26.594 107.928 26.739 107.637 27.029M83.19 20.674c-0.375 0.103-0.703 0.353-0.898 0.688 -0.184 0.317-0.293 0.801-0.152 1.157 0.453 1.14 0.836 2.301 1.32 3.426 -0.051-0.117-0.102-0.238-0.152-0.355 0.25 0.723 0.41 1.473 0.621 2.206 0.203 0.708 0.426 1.407 0.656 2.103 0.238 0.73 0.438 1.469 0.694 2.191 0.273 0.761 0.535 1.522 0.802 2.285 0.254 0.733 0.465 1.473 0.672 2.226 0.199 0.724 0.431 1.438 0.634 2.161 0.202 0.711 0.375 1.43 0.594 2.137 0.229 0.738 0.526 1.449 0.766 2.184 0.215 0.667 0.35 1.36 0.459 2.053 0.062 0.85 0.092 1.693 0.092 2.549 0 0.816 0.68 1.5 1.5 1.5 0.816 0 1.5-0.684 1.5-1.5 0-0.763-0.008-1.517-0.07-2.273 -0.074-0.902-0.233-1.789-0.457-2.664 -0.188-0.723-0.487-1.402-0.723-2.105 -0.242-0.724-0.434-1.453-0.629-2.188 -0.188-0.707-0.383-1.422-0.602-2.117 -0.238-0.746-0.402-1.508-0.664-2.246 -0.521-1.478-1.051-2.953-1.516-4.453 -0.263-0.849-0.544-1.684-0.785-2.536 -0.125-0.44-0.25-0.882-0.363-1.323 -0.146-0.582-0.34-1.114-0.574-1.665 0.051 0.121 0.102 0.238 0.152 0.36 -0.363-0.91-0.672-1.84-1.031-2.751 -0.148-0.379-0.324-0.684-0.691-0.897 -0.229-0.133-0.491-0.203-0.756-0.203C83.453 20.62 83.32 20.638 83.19 20.674M89.811 45.146c-0.367 0.219-0.531 0.52-0.688 0.898 -0.164 0.391-0.332 0.777-0.477 1.176 -0.06 0.164-0.103 0.328-0.142 0.496 -0.09 0.402-0.188 0.898-0.034 1.297 0.145 0.379 0.327 0.684 0.688 0.895 0.21 0.123 0.443 0.19 0.681 0.203 0.339 0.186 0.746 0.247 1.128 0.141 0.805-0.219 1.242-1.051 1.051-1.844 -0.08-0.316-0.133-0.671-0.244-0.99 0.08-0.193 0.164-0.385 0.244-0.576 0.146-0.352 0.027-0.844-0.151-1.156 -0.195-0.336-0.523-0.586-0.898-0.688 -0.131-0.037-0.266-0.056-0.401-0.056C90.303 44.941 90.04 45.012 89.811 45.146M161.967 108.609c-0.816 0.732-1.629 1.472-2.479 2.17 -0.401 0.334-0.807 0.66-1.211 0.988 -1.021 0.766-2.043 1.528-3.019 2.354 -1.004 0.841-2.014 1.667-3.028 2.488 -0.463 0.348-0.922 0.695-1.404 1.015 -0.649 0.427-1.297 0.853-1.941 1.285 -1.083 0.727-2.156 1.462-3.227 2.204 -1.188 0.826-2.395 1.615-3.645 2.351 -1.259 0.734-2.535 1.422-3.842 2.074 -0.729 0.362-0.929 1.379-0.533 2.051 0.43 0.738 1.319 0.903 2.051 0.539 0.871-0.435 1.729-0.879 2.586-1.349 0.699-0.387 1.387-0.805 2.074-1.211 1.371-0.801 2.655-1.75 3.957-2.651 1.361-0.944 2.75-1.862 4.137-2.772 1.42-0.935 2.719-2.066 4.035-3.146 0.64-0.526 1.271-1.063 1.918-1.583 0.793-0.602 1.59-1.195 2.362-1.818 1.142-0.922 2.238-1.888 3.328-2.867 0.608-0.547 0.556-1.566 0-2.121 -0.294-0.293-0.661-0.432-1.03-0.432C162.669 108.178 162.277 108.329 161.967 108.609M70.18 175.71c-0.891 0.478-1.766 0.974-2.645 1.47 -0.625 0.348-1.211 0.776-1.812 1.155 -0.66 0.418-1.305 0.871-1.988 1.25 -0.711 0.397-1.426 0.797-2.141 1.19 -1.398 0.767-2.785 1.543-4.152 2.371 -0.746 0.453-1.473 0.918-2.195 1.402 -1.109 0.746-2.16 1.57-3.223 2.383 -0.324 0.246-0.574 0.484-0.688 0.896 -0.109 0.387-0.055 0.809 0.148 1.155 0.199 0.336 0.523 0.586 0.898 0.691 0.348 0.094 0.852 0.078 1.156-0.152 1.039-0.793 2.066-1.604 3.156-2.34 0.707-0.477 1.418-0.934 2.148-1.375 1.402-0.852 2.828-1.651 4.266-2.44 0.691-0.384 1.383-0.771 2.07-1.152 0.691-0.383 1.344-0.836 2.008-1.254 0.617-0.396 1.234-0.789 1.848-1.188 0.352-0.223 0.734-0.41 1.098-0.616 0.516-0.289 1.035-0.574 1.559-0.855 0.723-0.387 0.941-1.366 0.539-2.051 -0.282-0.481-0.777-0.731-1.289-0.731C70.684 175.518 70.421 175.58 70.18 175.71M28.588 132.8c-2.781 2.023-5.613 3.974-8.477 5.88 -0.711 0.473-1.402 0.973-2.105 1.456 -0.66 0.457-1.332 0.898-1.996 1.349 -1.316 0.883-2.594 1.828-3.887 2.75 -0.591 0.42-1.182 0.857-1.836 1.17 -0.382 0.152-0.767 0.296-1.145 0.447 -0.379 0.151-0.684 0.323-0.898 0.688 -0.199 0.348-0.258 0.77-0.148 1.156 0.102 0.375 0.352 0.703 0.688 0.897 0.316 0.185 0.805 0.294 1.156 0.152 0.48-0.195 0.965-0.371 1.441-0.57 0.277-0.116 0.551-0.237 0.82-0.375 0.195-0.098 0.375-0.237 0.555-0.366 0.293-0.203 0.59-0.402 0.879-0.609 0.715-0.508 1.426-1.016 2.137-1.527 1.234-0.883 2.504-1.707 3.75-2.57 2.746-1.901 5.527-3.75 8.266-5.668 0.781-0.543 1.547-1.108 2.316-1.668 0.328-0.238 0.578-0.492 0.688-0.897 0.109-0.388 0.051-0.81-0.148-1.156 -0.199-0.332-0.523-0.586-0.898-0.688 -0.128-0.034-0.273-0.055-0.421-0.055C29.06 132.593 28.788 132.654 28.588 132.8M85.393 175.559c-0.375 0.102-0.703 0.354-0.898 0.688 -0.203 0.348-0.258 0.77-0.152 1.156 0.094 0.344 0.355 0.746 0.691 0.897 2.176 0.979 4.293 2.109 6.246 3.492 1.022 0.728 2.051 1.457 3.07 2.188 0.824 0.59 1.619 1.229 2.422 1.851 0.651 0.515 1.307 1.021 1.91 1.595 1.094 1.039 2.151 2.109 3.211 3.184 0.573 0.582 1.547 0.574 2.121 0 0.582-0.582 0.573-1.539 0-2.12 -1.562-1.587-3.099-3.185-4.849-4.562 -1.31-1.03-2.629-2.059-3.988-3.026 -0.698-0.5-1.397-0.996-2.102-1.496 -0.652-0.461-1.328-0.891-1.996-1.332 -0.652-0.43-1.363-0.781-2.043-1.164 -0.324-0.184-0.673-0.328-1.009-0.492 -0.491-0.242-0.983-0.48-1.479-0.703 -0.271-0.119-0.522-0.203-0.792-0.203C85.639 175.507 85.518 175.521 85.393 175.559M138.2 135.675c-0.556 0.552-0.609 1.574 0 2.121 1.375 1.228 2.805 2.396 4.219 3.578 0.613 0.517 1.181 1.086 1.767 1.629 0.555 0.517 1.073 1.047 1.598 1.59 0.57 0.595 1.125 1.195 1.672 1.806 0.348 0.387 0.695 0.766 1.055 1.141 0.727 0.762 1.516 1.438 2.332 2.102 0.758 0.613 1.52 1.215 2.293 1.805 0.582 0.441 1.211 0.824 1.812 1.234 0.355 0.241 0.703 0.486 1.048 0.74 0.112 0.094 0.226 0.186 0.33 0.284 -0.019 0.285-0.058 0.567-0.077 0.854 -0.062 0.815 0.727 1.5 1.5 1.5 0.395 0 0.781-0.156 1.059-0.438 0.297-0.297 0.41-0.652 0.441-1.062 0.055-0.738 0.203-1.474-0.16-2.168 -0.246-0.474-0.629-0.812-1.035-1.142 -0.508-0.418-1.047-0.789-1.59-1.16 -0.434-0.293-0.867-0.582-1.297-0.875 -0.42-0.284-0.825-0.593-1.23-0.903 -0.666-0.543-1.338-1.082-1.996-1.64 -0.93-0.785-1.741-1.703-2.555-2.608 -0.391-0.435-0.785-0.867-1.191-1.289 -0.448-0.469-0.883-0.961-1.358-1.402 -1.012-0.938-2.017-1.883-3.073-2.77 -1.152-0.966-2.312-1.927-3.438-2.927 -0.312-0.278-0.704-0.43-1.093-0.43C138.859 135.245 138.493 135.382 138.2 135.675M11.779 100.025c-0.582 0.582-0.57 1.535 0 2.121 0.758 0.773 1.48 1.578 2.293 2.297 0.465 0.41 0.969 0.789 1.453 1.185 0.25 0.199 0.492 0.406 0.73 0.617 0.301 0.266 0.625 0.521 0.902 0.805 1.145 1.185 2.246 2.402 3.371 3.603 1.09 1.164 2.141 2.358 3.211 3.539 1.098 1.211 2.188 2.422 3.219 3.688 0.773 0.953 1.559 1.895 2.352 2.832 0.836 0.992 1.73 1.938 2.605 2.891 0.551 0.605 1.562 0.562 2.121 0 0.598-0.594 0.551-1.52 0-2.121 -0.754-0.819-1.5-1.645-2.246-2.469 -0.555-0.613-1.07-1.266-1.605-1.898 -0.523-0.62-1.031-1.262-1.543-1.891 -0.492-0.602-1.016-1.18-1.523-1.766 -0.465-0.535-0.957-1.047-1.426-1.574 -0.605-0.68-1.207-1.359-1.816-2.031 -1.102-1.219-2.238-2.397-3.336-3.617 -0.73-0.809-1.523-1.543-2.34-2.266 -0.391-0.348-0.805-0.668-1.215-0.996 -0.469-0.383-0.934-0.762-1.367-1.184 -0.594-0.57-1.145-1.176-1.719-1.762 -0.284-0.293-0.668-0.437-1.054-0.437C12.458 99.591 12.067 99.736 11.779 100.025"/></g><g id="black" enable-background="new    "><path fill="#444444" d="M35.852 129.193c-0.578 0.578-0.578 1.543 0 2.121 1.039 1.043 2.066 2.094 3.059 3.18 0.758 0.828 1.48 1.68 2.195 2.543 1.379 1.809 2.703 3.664 4.246 5.34 0.526 0.57 1.059 1.137 1.592 1.701 0.109-0.155 0.23-0.305 0.361-0.447 0.52-0.559 1.18-1.016 1.797-1.453 0.038-0.025 0.076-0.054 0.114-0.08 -0.594-0.621-1.203-1.229-1.771-1.873 -0.773-0.883-1.52-1.781-2.242-2.707 -1.012-1.371-2.031-2.742-3.168-4.016 -0.625-0.707-1.254-1.402-1.891-2.098 -0.695-0.762-1.441-1.48-2.172-2.211 -0.289-0.289-0.672-0.435-1.059-0.435C36.526 128.759 36.141 128.904 35.852 129.193M130.41 129.631c-0.844 0.824-1.703 1.629-2.504 2.496 -0.391 0.422-0.766 0.848-1.168 1.258 -0.867 0.875-1.785 1.691-2.676 2.543 -0.879 0.84-1.771 1.668-2.685 2.473 -0.896 0.785-1.836 1.517-2.758 2.267 -0.552 0.414-1.108 0.824-1.711 1.168 -0.341 0.195-0.677 0.414-1.027 0.582 -0.401 0.19-0.801 0.383-1.202 0.574 -0.392 0.188-0.798 0.352-1.195 0.526 -0.836 0.367-1.637 0.781-2.414 1.258 -1.195 0.734-2.367 1.586-3.402 2.527 -0.684 0.617-1.316 1.301-1.945 1.973 -0.629 0.673-1.266 1.336-1.902 2 -1.055 1.103-2.194 2.148-3.379 3.109 -0.323 0.262-0.645 0.523-0.969 0.785 -0.828 0.605-1.656 1.219-2.516 1.785 -1.09 0.719-2.273 1.285-3.434 1.875 -1.021 0.516-1.996 1.078-2.892 1.793 -0.336 0.27-0.676 0.543-1.016 0.812 -0.617 0.496-1.207 1.026-1.806 1.547 -2.379 2.065-4.375 4.543-6.844 6.504 -0.352 0.258-0.711 0.5-1.098 0.695 -0.129 0.043-0.262 0.082-0.395 0.112 -0.082 0.004-0.164 0.008-0.246 0.004 -0.055-0.012-0.105-0.026-0.16-0.043 -0.246-0.133-0.465-0.293-0.691-0.465 0.102 0.078 0.199 0.155 0.301 0.233 -0.586-0.457-1.184-0.897-1.773-1.348 -1.141-0.914-2.16-1.957-3.207-2.977 -0.602-0.59-1.227-1.137-1.887-1.664 -0.578-0.461-1.16-0.957-1.672-1.484 -1.051-1.078-2.129-2.121-3.172-3.203 -0.555-0.582-1.125-1.141-1.742-1.66 -0.652-0.551-1.379-1.022-2.102-1.473 -0.906-0.559-1.785-1.137-2.648-1.766 -1.043-0.836-2.051-1.715-3.02-2.648 -0.085-0.081-0.169-0.162-0.253-0.244 -0.014 0.231-0.044 0.467-0.087 0.701 -0.074 0.402-0.234 0.773-0.383 1.156 -0.166 0.438-0.318 0.91-0.498 1.374 0.482 0.446 0.997 0.864 1.494 1.29 0.633 0.539 1.309 1.051 1.996 1.516 1.133 0.77 2.32 1.449 3.43 2.258 1.117 0.957 2.078 2.07 3.137 3.086 0.508 0.484 1 0.988 1.488 1.488 0.559 0.578 1.164 1.105 1.777 1.621 0.566 0.477 1.148 0.926 1.68 1.441 0.535 0.522 1.047 1.065 1.598 1.57 0.574 0.526 1.121 1.086 1.734 1.565 0.66 0.521 1.328 1.022 2 1.526 0.23 0.181 0.461 0.355 0.699 0.527 0.707 0.496 1.633 0.699 2.484 0.586 0.52-0.066 0.961-0.191 1.441-0.402 0.434-0.194 0.824-0.452 1.207-0.729 0.469-0.34 0.906-0.711 1.348-1.082 1.017-0.844 1.926-1.793 2.858-2.719 0.98-0.974 1.914-2.004 2.957-2.91 0.984-0.862 1.984-1.707 3-2.53 0.336-0.242 0.672-0.47 1.023-0.691 0.465-0.289 0.961-0.527 1.445-0.781 0.355-0.184 0.715-0.359 1.074-0.543 1.27-0.645 2.487-1.363 3.637-2.207 1.305-0.957 2.586-1.938 3.801-3.008 1.152-1.02 2.238-2.102 3.305-3.211 1.211-1.266 2.359-2.609 3.73-3.707 1.074-0.801 2.195-1.559 3.395-2.16 0.871-0.438 1.781-0.793 2.664-1.215 0.719-0.344 1.43-0.703 2.102-1.141 0.767-0.5 1.496-1.031 2.207-1.609 1.212-0.988 2.427-1.961 3.582-3.016 0.562-0.517 1.117-1.043 1.673-1.574 0.59-0.566 1.202-1.113 1.801-1.676 0.531-0.504 1.056-1.027 1.543-1.57 0.949-1.059 1.97-2.039 2.983-3.031 0.582-0.574 0.574-1.551 0-2.121 -0.289-0.291-0.672-0.436-1.055-0.436C131.09 129.195 130.703 129.343 130.41 129.631M77.332 168.016c-0.012 0.102-0.027 0.202-0.043 0.309C77.305 168.218 77.316 168.116 77.332 168.016M77.699 130.857c-0.055 0.789-0.02 1.595-0.02 2.384 0 1.551 0 3.102 0 4.651 0 3.129-0.004 6.258-0.004 9.387 0 3.384 0 6.763-0.008 10.146 -0.004 1.591-0.023 3.181-0.043 4.767 -0.02 1.526-0.055 3.065-0.195 4.582 -0.047 0.535-0.098 1.069-0.148 1.608 -0.137 0.957-0.27 1.914-0.422 2.871 -0.062 0.418-0.07 0.776 0.152 1.156 0.195 0.336 0.52 0.586 0.895 0.688 0.387 0.108 0.812 0.055 1.156-0.148 0.305-0.18 0.633-0.535 0.691-0.898 0.164-1.062 0.312-2.125 0.461-3.191 0.059-0.414 0.098-0.832 0.137-1.25 0.039-0.414 0.094-0.836 0.117-1.254 0.078-1.582 0.145-3.164 0.164-4.746 0.039-3.401 0.043-6.805 0.043-10.207 0.004-6.358 0.004-12.719 0.004-19.077 0-0.39 0.009-0.777 0.024-1.162 -1.126-0.044-2.247-0.672-2.907-1.603C77.76 129.992 77.729 130.426 77.699 130.857M129.537 68.19c-0.438 0.535-0.855 1.086-1.305 1.609 -0.215 0.254-0.445 0.469-0.695 0.676 -0.633 0.434-1.277 0.836-1.91 1.266 -0.695 0.48-1.402 0.934-2.102 1.402 -0.82 0.555-1.527 1.281-2.242 1.957 -0.695 0.66-1.418 1.293-2.172 1.887 -0.867 0.641-1.82 1.184-2.758 1.719 -0.685 0.391-1.359 0.789-2.051 1.168 -1.363 0.746-2.712 1.523-3.988 2.414 -1.349 0.934-2.652 1.918-4.017 2.832 -0.928 0.625-1.897 1.191-2.866 1.751 0.322 1.036 0.278 2.229 0 3.245 -0.027 0.093-0.055 0.184-0.084 0.271 0.027-0.016 0.055-0.032 0.084-0.049 1.383-0.812 2.772-1.605 4.129-2.461 1.258-0.801 2.426-1.723 3.651-2.574 1.328-0.922 2.688-1.77 4.099-2.562 1.387-0.781 2.776-1.559 4.141-2.387 1.328-0.801 2.52-1.812 3.66-2.863 0.652-0.598 1.277-1.215 1.957-1.773 0.875-0.59 1.754-1.18 2.633-1.766 0.43-0.289 0.871-0.555 1.297-0.848 0.348-0.246 0.695-0.516 1.008-0.801 0.312-0.289 0.578-0.648 0.844-0.98 0.271-0.336 0.535-0.676 0.81-1.012 0.262-0.32 0.438-0.633 0.438-1.062 0-0.395-0.16-0.777-0.438-1.059 -0.281-0.281-0.664-0.441-1.062-0.441C130.232 67.749 129.775 67.897 129.537 68.19M129.533 67.073c0 6.758 0 13.52 0 20.281 0 6.531 0 13.067 0 19.602 0 6.396 0 12.79 0 19.185 0 1.37 0 2.741 0 4.112 0 0.82 0.683 1.5 1.5 1.5 0.816 0 1.5-0.68 1.5-1.5 0-7.062 0-14.129 0-21.194 0-6.418 0-12.833 0-19.25 0-6.583 0-13.169 0-19.754 0-0.993 0-1.989 0-2.981 0-0.82-0.684-1.5-1.5-1.5C130.216 65.573 129.533 66.253 129.533 67.073M41.951 65.574c-0.578 0.578-0.578 1.543 0 2.121 0.516 0.516 1.016 1.047 1.535 1.555 0.336 0.328 0.703 0.613 1.066 0.906 0.352 0.285 0.691 0.578 1.043 0.859 0.387 0.305 0.746 0.645 1.121 0.957 0.422 0.352 0.855 0.68 1.285 1.008 0.414 0.332 0.832 0.664 1.254 0.992 0.41 0.316 0.828 0.629 1.207 0.98 0.848 0.797 1.648 1.652 2.449 2.496 0.785 0.824 1.555 1.688 2.426 2.426 0.875 0.738 1.812 1.402 2.727 2.094 1.047 0.91 2.031 1.889 3.018 2.864 -0.068-0.561-0.031-1.113 0.092-1.704 0.122-0.601 0.431-1.134 0.852-1.567 -0.398-0.394-0.801-0.781-1.211-1.163 -0.945-0.895-2.047-1.633-3.086-2.422 -1.488-1.262-2.773-2.75-4.133-4.145 -0.676-0.695-1.379-1.328-2.145-1.922 -0.762-0.594-1.516-1.195-2.281-1.785 -0.609-0.508-1.211-1.023-1.82-1.527 -0.316-0.262-0.629-0.527-0.953-0.785 -0.84-0.676-1.562-1.473-2.324-2.238 -0.289-0.289-0.672-0.434-1.059-0.434C42.627 65.14 42.24 65.285 41.951 65.574M39.642 63.601c-0.309 0.18-0.629 0.531-0.688 0.895 -0.566 3.379-1.004 6.781-1.203 10.203 -0.098 1.676-0.238 3.352-0.348 5.027 -0.113 1.66-0.156 3.324-0.195 4.992 -0.074 3.203-0.047 6.414-0.051 9.621 -0.004 3.281 0 6.562 0 9.845 0 6.358 0 12.715 0 19.073 0 2.043 0 4.086 0 6.125 0 0.82 0.68 1.5 1.5 1.5 0.816 0 1.5-0.68 1.5-1.5 0-7.065 0-14.129 0-21.194 0-6.427-0.02-12.849 0.012-19.273 0.016-3.332 0.066-6.656 0.285-9.98 0.105-1.574 0.234-3.145 0.324-4.723 0.094-1.578 0.273-3.137 0.445-4.707 0.06-0.515 0.127-1.026 0.193-1.537 0.139-0.892 0.278-1.783 0.428-2.674 0.07-0.414 0.07-0.781-0.152-1.156 -0.195-0.336-0.52-0.586-0.895-0.688 -0.129-0.035-0.262-0.053-0.395-0.053C40.139 63.396 39.873 63.465 39.642 63.601M88.74 36.211c-0.049 0.021-0.096 0.04-0.145 0.059C88.645 36.25 88.691 36.23 88.74 36.211M90.623 31.789c-0.783 0.472-1.54 1.018-2.37 1.405 -1.42 0.567-2.741 1.312-3.993 2.192 -0.566 0.396-1.16 0.754-1.73 1.146 -0.623 0.428-1.229 0.871-1.826 1.337 -1.178 0.882-2.444 1.623-3.729 2.339 -0.691 0.383-1.383 0.746-2.086 1.102 -0.336 0.172-0.68 0.332-1.008 0.516 -0.375 0.203-0.77 0.387-1.125 0.617 -0.723 0.457-1.434 0.918-2.133 1.41 -0.613 0.426-1.203 0.883-1.793 1.332 -1.406 1.066-2.828 2.098-4.211 3.195 -0.51 0.402-1.014 0.813-1.521 1.224 -0.728 0.54-1.457 1.062-2.21 1.565 -0.82 0.555-1.648 1.098-2.477 1.637 -0.895 0.586-1.789 1.16-2.719 1.688 -0.741 0.421-1.52 0.76-2.302 1.097 -1.59 0.605-3.202 1.151-4.792 1.755 -1.859 0.703-3.695 1.469-5.551 2.184 -0.379 0.145-0.684 0.324-0.895 0.688 -0.203 0.348-0.258 0.77-0.152 1.156 0.102 0.375 0.355 0.699 0.691 0.895 0.316 0.188 0.797 0.289 1.152 0.152 1.047-0.402 2.09-0.812 3.137-1.219 0.66-0.258 1.312-0.547 1.977-0.797 1.555-0.59 3.133-1.121 4.688-1.715 1.539-0.586 3.094-1.25 4.488-2.137 1.43-0.906 2.84-1.844 4.254-2.781 1.773-1.175 3.413-2.523 5.078-3.845 1.17-0.883 2.343-1.76 3.516-2.636 1.281-0.953 2.578-1.871 3.984-2.641 0.648-0.355 1.312-0.688 1.973-1.02 0.742-0.375 1.465-0.781 2.184-1.195 0.637-0.367 1.277-0.73 1.895-1.129 0.65-0.422 1.26-0.888 1.865-1.364 0.942-0.688 1.937-1.297 2.89-1.964 0.994-0.694 2.028-1.312 3.123-1.827 0.383-0.152 0.766-0.304 1.131-0.493 0.729-0.375 1.41-0.852 2.113-1.277 0.694-0.422 0.952-1.336 0.534-2.051 -0.272-0.47-0.789-0.742-1.312-0.742C91.107 31.586 90.854 31.65 90.623 31.789M92.499 33.328c-0.603 0.602-0.547 1.516 0 2.121 1.181 1.312 2.336 2.637 3.483 3.98 0.47 0.547 0.938 1.117 1.457 1.625 0.586 0.566 1.188 1.113 1.793 1.66 0.574 0.516 1.16 1.02 1.716 1.555 0.551 0.535 1.098 1.074 1.629 1.633 0.539 0.566 1.094 1.129 1.586 1.742 0.483 0.605 0.969 1.211 1.444 1.816 -0.017-0.021-0.031-0.042-0.049-0.063 0.018 0.021 0.033 0.042 0.051 0.063 -0.002 0-0.002 0-0.002 0 0.004 0.004 0.004 0.004 0.004 0.004 0.027 0.031 0.052 0.066 0.078 0.098 -0.014-0.015-0.024-0.029-0.037-0.045 0.205 0.263 0.408 0.526 0.613 0.789 -0.002-0.001-0.002-0.001-0.002-0.002 0.012 0.016 0.023 0.03 0.035 0.046 0.061 0.079 0.121 0.156 0.184 0.234 -0.021-0.026-0.041-0.053-0.062-0.078 0.021 0.027 0.042 0.054 0.062 0.081 0.703 0.896 1.438 1.765 2.207 2.604 0.742 0.816 1.582 1.551 2.395 2.293 0.424 0.385 0.879 0.725 1.354 1.034 0.688-0.747 1.375-1.493 2.062-2.24 -0.307-0.181-0.607-0.372-0.896-0.579 -0.473-0.391-0.918-0.805-1.367-1.227 -0.418-0.391-0.854-0.777-1.237-1.199 -0.819-0.902-1.603-1.824-2.367-2.773 0.078 0.102 0.156 0.203 0.234 0.305 -0.349-0.449-0.695-0.898-1.043-1.348 0.077 0.102 0.155 0.203 0.233 0.305 -1.008-1.309-2.039-2.594-3.184-3.793 -0.492-0.52-0.992-1.027-1.504-1.527 -0.586-0.57-1.195-1.113-1.805-1.66 -0.594-0.535-1.191-1.062-1.767-1.621 -0.534-0.516-1.03-1.074-1.516-1.641 -1.207-1.414-2.423-2.812-3.664-4.191 -0.267-0.293-0.647-0.434-1.031-0.434C93.188 32.895 92.784 33.047 92.499 33.328M105.652 49.518c-0.014-0.018-0.026-0.035-0.041-0.053C105.626 49.483 105.641 49.501 105.652 49.518M106.275 50.32c-0.004-0.005-0.008-0.009-0.01-0.014C106.27 50.313 106.271 50.316 106.275 50.32M106.421 50.507c-0.041-0.052-0.081-0.104-0.121-0.156 -0.008-0.01-0.016-0.021-0.022-0.03C106.324 50.384 106.372 50.445 106.421 50.507M127.688 64.559c0.073 0.059 0.147 0.117 0.219 0.172C127.831 64.676 127.762 64.617 127.688 64.559M112.869 56.787c0.689 0.414 1.416 0.774 2.146 1.119 0.983 0.469 1.914 1.008 2.805 1.633 0.617 0.523 1.227 1.062 1.766 1.664 0.594 0.668 1.152 1.371 1.77 2.012 0.613 0.637 1.263 1.238 1.949 1.789 0.76 0.607 1.572 1.142 2.34 1.732 0 0 0-0.001 0-0.002 0.938 0.727 1.918 1.387 2.892 2.066 0.668 0.469 1.664 0.125 2.051-0.539 0.203-0.344 0.259-0.766 0.151-1.152 -0.112-0.402-0.358-0.668-0.69-0.898 -0.81-0.562-1.629-1.113-2.422-1.699 -0.78-0.609-1.578-1.195-2.379-1.773 -0.812-0.668-1.574-1.398-2.263-2.195 -0.401-0.469-0.809-0.938-1.223-1.398 -0.418-0.473-0.883-0.902-1.348-1.324 -0.484-0.441-1.008-0.855-1.559-1.207 -0.521-0.332-1.043-0.691-1.599-0.953 -0.771-0.365-1.557-0.722-2.312-1.131C114.254 55.281 113.561 56.034 112.869 56.787"/><polyline fill="#444444" points="125.65,66.742 125.645,66.736 125.65,66.742   "/><path fill="#444444" d="M104.566 119.809c-0.69 0.426-1.362 0.875-2.073 1.266 -0.208 0.115-0.433 0.213-0.655 0.31 -1.436 0.573-2.89 1.095-4.286 1.765 -0.715 0.345-1.43 0.691-2.151 1.031 -0.668 0.32-1.367 0.59-2.021 0.945 -0.728 0.398-1.438 0.832-2.185 1.195 -0.812 0.397-1.647 0.742-2.469 1.133 -0.969 0.457-1.91 1.137-2.727 1.832 -0.656 0.555-1.27 1.152-1.879 1.754 -0.703 0.684-1.391 1.383-2.082 2.078 -0.578 0.578-0.578 1.543 0 2.121s1.543 0.578 2.121 0c1.332-1.331 2.638-2.697 4.068-3.922 0.349-0.256 0.701-0.498 1.061-0.738 0.75-0.492 1.59-0.828 2.406-1.199 0.473-0.219 0.961-0.414 1.418-0.668 0.477-0.266 0.945-0.539 1.426-0.801 0.918-0.5 1.887-0.895 2.828-1.352 0.921-0.451 1.845-0.894 2.783-1.304 0.675-0.276 1.353-0.542 2.033-0.803 0.434-0.164 0.862-0.336 1.28-0.535 0.918-0.431 1.754-0.983 2.613-1.521 0.694-0.426 0.961-1.332 0.539-2.051 -0.271-0.466-0.793-0.744-1.316-0.744C105.048 119.604 104.794 119.668 104.566 119.809M57.43 113.557c-0.375 0.103-0.699 0.355-0.898 0.691 -0.203 0.344-0.258 0.766-0.148 1.152 0.109 0.406 0.359 0.66 0.688 0.897 1.453 1.06 2.918 2.099 4.379 3.147 1.168 0.841 2.406 1.556 3.582 2.371 0.379 0.316 0.766 0.629 1.137 0.953 0.516 0.449 1.008 0.926 1.508 1.396 0.902 0.844 1.746 1.733 2.59 2.642 0.809 0.87 1.609 1.772 2.527 2.53 0.977 0.81 2.051 1.474 3.078 2.203 0.293 0.25 0.582 0.5 0.844 0.78 0.449 0.695 0.781 1.445 1.168 2.177 0.383 0.719 1.371 0.938 2.055 0.539 0.727-0.427 0.922-1.332 0.535-2.056 -0.387-0.729-0.721-1.496-1.181-2.18 -0.778-0.369-1.444-1.002-1.805-1.773 -0.079-0.06-0.157-0.117-0.237-0.176 -0.68-0.496-1.395-0.944-2.082-1.43 -1.148-0.965-2.152-2.059-3.176-3.16 -0.527-0.566-1.055-1.141-1.621-1.676 -0.586-0.559-1.164-1.133-1.773-1.668 -0.652-0.574-1.312-1.168-2.023-1.672 -0.609-0.43-1.25-0.809-1.879-1.215 -1.293-0.84-2.547-1.742-3.793-2.645 -0.773-0.562-1.547-1.121-2.316-1.681 -0.199-0.146-0.473-0.207-0.734-0.207C57.703 113.502 57.559 113.521 57.43 113.557M83.653 130.703c-0.801 0.363-1.602 0.727-2.402 1.094 -0.652 0.294-1.289 0.617-1.941 0.908 -0.751 0.311-1.514 0.597-2.27 0.896 -0.383 0.147-0.684 0.323-0.898 0.688 -0.203 0.348-0.258 0.77-0.152 1.156 0.105 0.375 0.355 0.703 0.691 0.897 0.316 0.185 0.801 0.289 1.156 0.152 1.051-0.418 2.133-0.785 3.152-1.277 0.457-0.219 0.914-0.434 1.371-0.645 0.934-0.435 1.871-0.855 2.805-1.281 0.336-0.151 0.599-0.556 0.69-0.896 0.105-0.391 0.052-0.812-0.151-1.155 -0.195-0.337-0.522-0.587-0.897-0.691 -0.129-0.034-0.25-0.051-0.369-0.051C84.168 130.5 83.916 130.581 83.653 130.703M103.641 88.887c-0.029 0.423-0.103 0.839-0.209 1.229 -0.004 0.008-0.006 0.017-0.009 0.025 0.104 1.359 0.222 2.721 0.281 4.08 0.06 1.324 0.094 2.648 0.104 3.972 0.008 1.31 0.004 2.613 0.031 3.923 0.023 1.301 0.258 2.594 0.453 3.875 0.168 1.397 0.277 2.801 0.434 4.198 0.094 0.816 0.16 1.638 0.271 2.449 0.086 0.633 0.18 1.266 0.272 1.896 0.078 0.625 0.142 1.25 0.181 1.879 0.051 0.853 0.129 1.728 0.043 2.582 -0.091 0.569-0.211 1.137-0.306 1.711 -0.074 0.414-0.069 0.78 0.148 1.155 0.195 0.337 0.523 0.587 0.898 0.688 0.387 0.109 0.809 0.052 1.156-0.147 0.305-0.185 0.625-0.531 0.688-0.898 0.168-0.965 0.371-1.918 0.461-2.895 0.031-0.367-0.02-0.762-0.035-1.133 -0.023-0.603-0.062-1.203-0.109-1.806 -0.094-1.16-0.289-2.315-0.457-3.473 -0.145-1.431-0.315-2.855-0.438-4.285 -0.121-1.445-0.336-2.879-0.547-4.315 -0.047-0.492-0.105-0.984-0.113-1.48 -0.016-0.621-0.02-1.242-0.023-1.859 0-1.016-0.004-2.031-0.02-3.047 -0.043-2.5-0.215-4.988-0.406-7.48 -0.031-0.406-0.145-0.762-0.44-1.059 -0.281-0.281-0.664-0.441-1.06-0.441C104.411 88.229 103.926 88.491 103.641 88.887M58.072 83.197c0 6.641 0 13.281 0 19.922 0 1.676 0 3.352 0 5.027 0 0.895 0 1.789 0 2.68 0 0.367 0 0.73 0 1.094 0 0.57 0.027 1.156-0.023 1.723 -0.102 0.617-0.242 1.224-0.359 1.836 -0.078 0.406-0.062 0.785 0.152 1.156 0.195 0.336 0.52 0.586 0.895 0.688 0.742 0.202 1.691-0.242 1.848-1.048 0.203-1.069 0.504-2.145 0.488-3.241 -0.004-0.418 0-0.832 0-1.25 0-0.781 0-1.562 0-2.345 0-1.608 0-3.223 0-4.836 0-3.125 0-6.25 0-9.378 0-3.48 0-6.964 0-10.445 -0.037-0.341-0.036-0.681 0-1.028 0-0.185 0-0.369 0-0.554 0-0.82-0.684-1.5-1.5-1.5C58.757 81.698 58.072 82.377 58.072 83.197M84.521 64.033c-0.483 0.207-0.964 0.422-1.448 0.633 -0.723 0.289-1.469 0.512-2.207 0.762 -0.609 0.207-1.172 0.523-1.719 0.859 -1.016 0.625-2.078 1.148-3.133 1.711 -1.188 0.633-2.391 1.277-3.5 2.039 -0.699 0.477-1.34 1.066-1.98 1.625 -0.43 0.371-0.867 0.734-1.316 1.09 -0.785 0.594-1.602 1.164-2.332 1.82 -0.707 0.633-1.422 1.242-2.16 1.832 -1.293 0.957-2.758 1.676-4.168 2.445 -0.715 0.391-0.941 1.363-0.539 2.051 0.422 0.723 1.336 0.93 2.055 0.539 0.065-0.035 0.13-0.07 0.194-0.105 0.417-0.358 0.917-0.629 1.445-0.791 0.178-0.097 0.355-0.194 0.532-0.291 0.375-0.207 0.746-0.418 1.113-0.637 0.551-0.332 1.051-0.746 1.559-1.141 0.906-0.711 1.75-1.496 2.633-2.23 0.727-0.555 1.457-1.105 2.176-1.672 0.766-0.617 1.488-1.289 2.254-1.906 0.703-0.512 1.473-0.934 2.23-1.355 0.621-0.348 1.242-0.688 1.875-1.012 0.613-0.316 1.234-0.621 1.824-0.973 0.555-0.336 1.105-0.688 1.684-0.973 0.328-0.125 0.66-0.234 0.996-0.34 1.184-0.379 2.306-0.898 3.449-1.387 0.336-0.145 0.598-0.562 0.69-0.898 0.105-0.387 0.051-0.809-0.151-1.156 -0.195-0.336-0.522-0.586-0.897-0.688 -0.13-0.035-0.25-0.051-0.367-0.051C85.042 63.834 84.796 63.916 84.521 64.033M85.09 62.963c-0.578 0.574-0.578 1.543 0 2.121 1.008 1.004 2.008 2.008 2.938 3.078 0.367 0.422 0.695 0.875 1.035 1.312 0.406 0.516 0.824 1.023 1.254 1.52 0.771 0.883 1.613 1.66 2.496 2.43 0.422 0.367 0.867 0.711 1.301 1.066 0.742 0.607 1.369 1.305 1.982 2.035 0.959 1.314 1.848 2.673 2.9 3.918 1.011 1.196 2.084 2.335 3.079 3.545 0.466 0.636 0.942 1.263 1.434 1.877 0.239 0.314 0.478 0.628 0.714 0.941 0.703 0.926 1.465 1.797 2.219 2.676 0.535 0.621 1.578 0.547 2.121 0 0.281-0.277 0.441-0.664 0.441-1.059 0-0.422-0.172-0.75-0.441-1.062 -0.523-0.613-1.062-1.217-1.576-1.84 -0.58-0.777-1.18-1.541-1.776-2.309 -0.769-1.034-1.554-2.045-2.42-3 -0.802-0.875-1.578-1.768-2.319-2.694 -0.939-1.288-1.802-2.631-2.855-3.833 -1.184-1.344-2.727-2.312-4.004-3.562 -1.066-1.051-2-2.219-2.914-3.402 -1.047-1.352-2.273-2.551-3.484-3.758 -0.289-0.289-0.675-0.434-1.061-0.434C85.766 62.529 85.379 62.674 85.09 62.963M83.422 68.962c0 6.453 0 12.902 0 19.355 0 1.664 0 3.332 0 4.996 0 0.789 0 1.582 0 2.375 0 0.395 0.008 0.793-0.016 1.188 -0.021 0.377-0.069 0.754-0.117 1.131 -0.136 0.655-0.329 1.294-0.504 1.938 -0.207 0.794 0.258 1.63 1.051 1.849 0.781 0.215 1.633-0.258 1.844-1.051 0.133-0.496 0.277-0.992 0.406-1.492 0.117-0.457 0.164-0.922 0.219-1.392 0.043-0.401 0.094-0.801 0.113-1.202 0.043-0.727 0.004-1.473 0.004-2.203 0-1.496 0-2.992 0-4.492 0-3.168 0-6.336 0-9.508 0-3.828 0-7.66 0-11.492 0-0.816-0.68-1.5-1.5-1.5C84.105 67.462 83.422 68.146 83.422 68.962M69.632 109.443c-0.067 0.056-0.138 0.111-0.208 0.166C69.493 109.555 69.562 109.499 69.632 109.443M84.512 97.671c-1 0.72-1.978 1.492-3.036 2.117 -0.656 0.387-1.344 0.715-2.023 1.06 -1.363 0.694-2.688 1.461-4.066 2.12 -0.766 0.367-1.535 0.724-2.309 1.074 -0.621 0.281-1.258 0.565-1.855 0.901 -1.176 0.656-2.332 1.316-3.406 2.146 -0.833 0.646-1.64 1.319-2.454 1.987 -0.743 0.568-1.482 1.141-2.233 1.699 -0.328 0.246-0.574 0.488-0.688 0.898 -0.109 0.387-0.051 0.809 0.148 1.156 0.199 0.332 0.523 0.586 0.898 0.688 0.352 0.099 0.852 0.078 1.156-0.151 0.836-0.625 1.668-1.267 2.496-1.902 0.764-0.587 1.492-1.216 2.242-1.819 0.946-0.726 1.956-1.328 2.992-1.906 0.621-0.348 1.262-0.648 1.902-0.961 1.129-0.551 2.293-1.021 3.406-1.605 1.227-0.645 2.445-1.309 3.684-1.934 0.621-0.316 1.238-0.633 1.84-0.984 0.254-0.152 0.5-0.32 0.738-0.496 0.691-0.5 1.387-0.996 2.082-1.496 0.328-0.234 0.578-0.492 0.688-0.895 0.108-0.387 0.052-0.809-0.147-1.156 -0.199-0.336-0.523-0.586-0.898-0.691 -0.126-0.033-0.27-0.054-0.415-0.054C84.986 97.465 84.713 97.527 84.512 97.671M85.244 98.596c-0.602 0.602-0.547 1.516 0 2.12 0.645 0.724 1.289 1.453 1.973 2.142 0.602 0.604 1.203 1.207 1.805 1.805 0.306 0.305 0.648 0.57 0.97 0.852 0.309 0.271 0.616 0.543 0.926 0.816 0.556 0.496 1.074 1.039 1.595 1.574 1.133 1.164 2.301 2.281 3.504 3.371 1.202 1.09 2.448 2.129 3.641 3.229 0.434 0.402 0.859 0.815 1.281 1.229 0.233 0.23 0.461 0.461 0.707 0.677 0.655 0.569 1.448 0.978 2.184 1.44 0.691 0.435 1.648 0.148 2.051-0.539 0.422-0.723 0.152-1.617-0.539-2.051 -0.557-0.353-1.128-0.681-1.669-1.061 -0.588-0.521-1.131-1.102-1.706-1.643 -0.582-0.547-1.176-1.078-1.773-1.609 -0.573-0.508-1.172-0.996-1.737-1.512 -0.634-0.574-1.267-1.148-1.888-1.734 -0.565-0.527-1.108-1.078-1.647-1.633 -0.556-0.566-1.099-1.172-1.694-1.699 -0.652-0.578-1.31-1.156-1.966-1.73 -0.565-0.5-1.086-1.065-1.616-1.604 -0.785-0.789-1.531-1.613-2.273-2.44 -0.268-0.298-0.648-0.437-1.031-0.437C85.934 98.159 85.527 98.311 85.244 98.596M63.369 110.43c-0.82 0.613-1.59 1.289-2.395 1.922 0.102-0.078 0.203-0.156 0.305-0.233 -0.301 0.233-0.609 0.461-0.902 0.711 -0.176 0.151-0.34 0.315-0.516 0.469 -0.259 0.222-0.503 0.457-0.761 0.677 -0.089 0.061-0.178 0.119-0.267 0.18 -0.684 0.449-0.969 1.316-0.539 2.051 0.395 0.68 1.367 0.988 2.051 0.539 0.922-0.605 1.656-1.422 2.523-2.094 -0.102 0.078-0.203 0.156-0.305 0.233 0.75-0.575 1.473-1.182 2.207-1.778 0.037-0.028 0.073-0.058 0.109-0.084 0.328-0.242 0.578-0.484 0.691-0.896 0.105-0.387 0.051-0.81-0.152-1.155 -0.195-0.337-0.52-0.587-0.895-0.688 -0.128-0.036-0.276-0.058-0.428-0.058C63.835 110.225 63.562 110.285 63.369 110.43M43.813 59.037c-0.199 0.223-0.41 0.434-0.613 0.656 -0.316 0.355-0.656 0.672-1.023 0.977 -0.438 0.365-0.869 0.733-1.313 1.09 -0.3 0.208-0.614 0.388-0.933 0.57 -0.707 0.406-0.949 1.352-0.539 2.055 0.418 0.707 1.344 0.945 2.055 0.539 0.859-0.496 1.637-1.086 2.383-1.738 0.367-0.32 0.75-0.617 1.105-0.945 0.199-0.184 0.371-0.406 0.559-0.602 0.148-0.16 0.297-0.32 0.445-0.48 0.547-0.605 0.598-1.523 0-2.121C45.653 58.752 45.25 58.6 44.85 58.6 44.465 58.6 44.084 58.74 43.813 59.037M40.054 63.109c-0.598 0.594-0.555 1.52 0 2.121 0.623 0.679 1.332 1.26 1.946 1.942 0.104 0.141 0.204 0.282 0.3 0.429 0.453 0.68 1.316 0.969 2.055 0.539 0.672-0.395 0.992-1.371 0.535-2.051 -0.391-0.59-0.828-1.137-1.332-1.637 -0.195-0.191-0.402-0.371-0.609-0.551 -0.277-0.242-0.523-0.523-0.773-0.793 -0.271-0.295-0.653-0.436-1.037-0.436C40.739 62.674 40.339 62.825 40.054 63.109"/></g></svg>