<svg xmlns="http://www.w3.org/2000/svg" version="1.1" x="0px" y="0px" width="547.826px" height="518.261px" viewBox="0 0 547.826 518.261" enable-background="new 0 0 547.826 518.261" xml:space="preserve"><path fill="#6DA8C2" d="M169.621 415.688c-18.263 11.015-33.129 26.784-47.959 41.878 -7.279 7.406-14.436 15.043-22.619 21.475 -4.071 3.07-8.312 5.907-12.494 8.822 -3.331 2.32-8.851 6.754-3.662 10.718 3.922 3 7.823-1.132 10.941-3.288 4.468-3.09 8.973-6.137 13.2-9.552 8.086-6.543 15.263-14.146 22.535-21.56 7.267-7.368 14.449-14.791 22.101-21.766 3.775-3.438 7.647-6.78 11.673-9.925 2.017-1.536 4.059-3.039 6.149-4.479 2.085-1.437 5.077-2.652 6.682-4.634C179.641 419.086 174.429 412.761 169.621 415.688"/><path fill="#6DA8C2" d="M415.732 126.104c0.16-0.124 0.325-0.247 0.485-0.372C416.058 125.856 415.893 125.979 415.732 126.104M415.651 126.164c-0.301 0.241-0.154 0.127 0.445-0.338C415.95 125.938 415.8 126.051 415.651 126.164M388.479 134.3C388.392 134.385 388.146 134.548 388.479 134.3M389.034 133.875C389.03 133.875 389.03 133.875 389.034 133.875M389.486 133.526c-0.131 0.103-0.261 0.203-0.395 0.301C389.222 133.727 389.355 133.627 389.486 133.526M496.8 36.31c-13.187 14.876-26.573 29.271-41.295 42.659 -15.074 13.711-30.652 26.696-46.532 39.464 0.783-0.618-1.082 0.837-0.951 0.737 0.349-0.268 0.695-0.536 1.044-0.804 -6.552 5.064-13.101 10.129-19.646 15.201 2.99-2.299-0.643 0.515-0.106 0.08 -1.326 1.025-2.662 2.041-3.994 3.057 -2.532 1.924-5.515 3.961-4.276 7.627 0.91 2.683 4.111 4.236 6.773 3.164 1.349-0.544 2.579-1.812 3.729-2.679 0.676-0.507 1.35-1.018 2.023-1.532 0.36-0.278 3.706-2.875 0.953-0.757 0.375-0.29 0.75-0.582 1.126-0.872 5.771-4.618 13.094-10.122 19.459-15.066 -0.747 0.562 0.452-0.348 0.428-0.331 -0.984 0.74 1.439-1.13-0.36 0.277 18.905-14.534 36.638-30.436 54.333-46.392 8.734-7.886 17.132-16.632 24.877-25.488 2.038-2.335 4.08-4.672 6.12-7.009 1.653-1.892 4.175-3.907 4.858-6.417C506.66 36.456 500.26 32.43 496.8 36.31"/><path fill="#6DA8C2" d="M386.198 358.494c-2.639 4.507 2.005 7.129 5.236 9.036 4.915 2.9 9.816 5.816 14.723 8.726 9.155 5.424 18.239 11.264 27.678 16.175 9.251 4.758 18.392 9.87 27.854 14.19 10.299 4.707 20.61 9.388 30.924 14.068 2.474 1.121 4.948 2.243 7.423 3.365 1.991 0.903 4.353 2.494 6.629 2.38 4.66-0.234 6.921-7.47 2.276-9.576 -10.134-4.593-20.263-9.197-30.391-13.808 -19.61-8.926-38.567-18.873-57.187-29.704 -6.401-3.724-12.723-7.577-19.091-11.356C398.398 359.692 389.884 352.166 386.198 358.494"/><path fill="#6DA8C2" d="M145.741 144.214C146.156 144.541 146.156 144.541 145.741 144.214M40.264 65.683c-2.583 4.421 1.93 7.122 5.113 9.07 4.742 2.902 9.523 5.754 14.104 8.915 9.104 6.278 17.506 13.319 25.831 20.576 16.51 14.396 32.277 29.631 49.007 43.756 1.801 1.52 3.588 3.06 5.46 4.492 1.551 1.185 3.381 3.122 5.36 3.494 4.458 0.834 8.204-4.441 5.152-8.17 -1.295-1.583-3.324-2.7-4.946-3.92 -2.042-1.641-4.004-3.373-6.004-5.063 -3.921-3.345-7.823-6.669-11.611-10.165 -15.686-14.686-31.463-29.85-48.413-43.082 -6.613-5.161-13.423-10.25-20.532-14.705 -3.46-2.168-6.981-4.237-10.452-6.386C45.631 62.82 42.124 62.508 40.264 65.683"/><path fill="#6DA8C2" d="M123.805 305.172c-21.865 1.755-43.78 1.619-65.638 3.736 -10.447 1.011-20.867 3.195-31.148 5.283 -4.79 0.972-10.676 1.32-15.172 3.224 -3.57 1.515-3.953 6.836-0.75 8.929 3.508 2.29 9.583-0.361 13.277-1.132 5.573-1.16 11.151-2.301 16.759-3.285 10.522-1.857 20.947-3.114 31.58-4.153 10.932-1.001 22.024-1.076 32.992-1.402 5.289-0.157 10.579-0.348 15.857-0.732 2.059-0.151 4.306-0.114 5.872-1.682 1.619-1.619 1.95-4.11 0.854-6.102C127.396 306.239 125.7 305.05 123.805 305.172"/><path fill="#6DA8C2" d="M271.576 83.465c0.023 0.187 0.048 0.371 0.071 0.556C271.624 83.835 271.6 83.651 271.576 83.465M268.928 5.621c-2.68 2.68-2.243 9.246-2.716 12.782 -0.643 4.795-1.289 9.591-1.909 14.389 -1.268 9.785-2.81 19.635-3.383 29.49 -0.564 9.683-0.599 19.659 1.863 29.104 1.154 4.427 5.535 21.583 13.15 15.033 3.21-2.76 1.068-6.299-0.356-9.296 -1.629-4.239-3.054-8.576-3.868-13.053 -1.735-9.541-0.86-20.039 0.157-29.617 1.078-10.135 2.585-20.236 3.901-30.342 0.646-4.954 1.293-9.908 1.945-14.859C278.309 4.595 271.816 2.733 268.928 5.621"/><path fill="#6DA8C2" d="M442.159 244.416c0.181 0.022 0.358 0.046 0.539 0.067C442.518 244.462 442.34 244.438 442.159 244.416M422.274 245.193c-1.36 4.971 3.677 6.433 7.336 7.292 5.427 1.273 10.947 2.101 16.492 2.639 10.868 1.053 21.801 0.981 32.705 1.119 11.119 0.142 22.234 0.192 33.354 0.266 5.25 0.03 10.49 0.056 15.729 0.395 3.958 0.254 11.337 2.441 14.247-1.133 2.505-3.073 0.796-7.498-3.011-8.322 -5.406-1.167-11.712-0.932-17.239-1.111 -10.773-0.346-21.572-0.213-32.35-0.264 -10.907-0.05-21.847-0.075-32.747-0.506 -4.892-0.192-9.814-0.457-14.663-1.175 -2.483-0.368-4.959-0.798-7.418-1.313 -2.375-0.495-5.014-1.654-7.439-1.654C424.993 241.424 422.884 242.994 422.274 245.193"/><path fill="#6DA8C2" d="M336.083 429.853c-3.938 2.291-2.438 6.205-0.371 9.063 2.939 4.067 5.939 8.09 9.07 12.011 6.12 7.664 12.823 14.848 20.028 21.505 7.252 6.706 15.086 12.706 22.951 18.669 3.729 2.825 7.306 5.846 10.885 8.856 2.989 2.51 7.071 7.568 11.37 4.727 3.463-2.289 2.535-6.442-0.19-8.718 -3.887-3.255-7.741-6.55-11.691-9.724 -7.711-6.191-15.693-11.96-23.12-18.506 -7.184-6.333-13.867-13.198-20.015-20.537 -3.318-3.96-6.444-8.068-9.501-12.233C343.275 431.936 340.509 427.255 336.083 429.853"/><path fill="#6DA8C2" d="M251.085 458.188c-2.026 1.179-2.552 3.566-3.286 5.611 -1.066 2.974-2.125 5.946-3.179 8.919 -2.105 5.95-4.191 11.91-6.261 17.873 -2.071 5.963-4.125 11.93-6.172 17.899 -1.538 4.482 4.164 8.199 7.841 5.574 1.802-1.285 2.283-3.422 2.96-5.4 1.026-2.984 2.053-5.97 3.082-8.954 2.061-5.962 4.133-11.925 6.227-17.882 2.09-5.956 4.202-11.901 6.34-17.842C260.204 459.642 254.777 456.021 251.085 458.188"/><path fill="#6DA8C2" d="M48.05 196.736c-2.33 0.654-3.917 2.91-3.758 5.324 0.207 3.143 3.453 4.768 5.697 6.433 5.537 4.112 11.152 8.129 16.442 12.561 4.814 4.033 9.688 8.082 15.137 11.248 2.79 1.62 5.739 2.86 8.833 3.773 2.555 0.756 5.77 2.142 8.389 0.962 2.261-1.018 3.449-3.543 2.812-5.936 -0.791-2.98-3.282-3.559-5.912-4.242 -6.264-1.624-11.344-4.644-16.474-8.531 -5.152-4.069-10.117-8.332-15.371-12.281 -2.855-2.147-5.735-4.261-8.606-6.388C53.03 198.023 51.023 195.933 48.05 196.736"/><path fill="#6DA8C2" d="M306.589 171.835c-18.29 2.922-36.749 18.407-41.57 36.545 -1.655 6.221-1.697 12.549-1.674 18.93 0.013 3.248 1.03 8.319-1.234 10.995 -2.728 3.231-8.124 1.785-8.895-2.368 -0.919-4.942-0.139-10.682-0.275-15.715 -0.15-4.812-0.305-9.639-0.802-14.43 -0.937-9.026-5.215-20.109-11.794-26.503 -6.671-6.483-17.868-3.628-25.941-1.739 -10.034 2.347-19.104 5.868-27.783 11.444 -8.183 5.259-15.582 11.397-20.67 19.826 -5.714 9.47-5.595 20.124-5.122 30.856 0.339 7.69 1.209 15.312 2.277 22.929 1.308 9.329 4.617 18.15 8.234 26.803 -0.045-0.161-0.088-0.322-0.131-0.482 4.953 11.716 12.479 22.114 19.563 32.597 5.982 8.88 11.49 18.285 18.505 26.413 15.423 17.873 33.092 33.903 45.216 54.424 6.163-8.445 11.931-17.191 18.05-25.68 6.256-8.678 12.708-17.209 18.889-25.94 11.49-16.241 22.477-32.811 34.121-48.945 5.598-7.756 10.663-15.484 13.389-24.733 3.031-10.285 3.469-20.295 3.409-30.941 -0.061-10.672-0.051-21.35-0.466-32.017 -0.385-9.78-1.406-19.067-6.687-27.525C328.955 176.582 318.409 170.666 306.589 171.835"/><path fill="#444444" d="M263.334 235.022c0.071-6.409-0.293-12.889 0.346-19.274 0.948-9.483 5.071-17.535 11.132-24.783 11.977-14.332 33.472-26.138 51.036-14.312 17.605 11.854 16.229 35.02 16.41 53.689 0.196 20.49 1.78 41.953-9.161 60.276 -5.062 8.473-11.293 16.281-17.025 24.302 -7.219 10.107-14.001 20.513-21.072 30.726 -13.221 19.097-27.636 37.414-40.505 56.716 -12.024-20.349-29.506-36.216-44.798-53.937 -6.915-8.013-12.42-17.184-18.29-25.955 -7.25-10.833-14.939-21.443-20.175-33.455 0.046 0.184 0.113 0.359 0.202 0.529 -0.057-0.137-0.113-0.273-0.168-0.408 -0.657-0.931-1.969-4.737-2.712-6.696 -1.21-3.188-2.351-6.41-3.308-9.683 -1.261-4.316-1.938-8.696-2.558-13.132 -1.758-12.589-2.846-27.568-1.348-38.938 2.716-15.089 15.191-25.353 27.441-33.074 11.874-7.484 27.494-12.226 41.62-12.226 8.219 0 12.689 6.423 16.156 13.035 3.448 6.578 5.384 13.685 5.9 21.071 0.528 7.597 0.609 15.229 0.657 22.841 0.019 3.266 0.229 6.98 4.204 7.708C260.402 240.606 263.303 238.136 263.334 235.022M300.644 162.555c-16.996 3.74-32.143 16.725-40.646 31.606 -3.373-8.435-6.841-17.864-14.219-23.717 -8.326-6.605-18.751-5.7-28.586-3.899 -19.554 3.583-38.99 12.182-52.562 27.16 -6.447 7.095-11.885 15.604-13.339 25.231 -1.554 10.184-0.926 20.576-0.035 30.792 0.877 10.072 2.224 20.287 5.419 29.904 3.253 9.854 7.549 19.16 12.784 28.103 5.233 8.937 11.438 17.259 17.121 25.908 5.74 8.709 11.645 17.12 18.467 25.021 6.902 7.996 14.481 15.325 21.493 23.21 7.015 7.893 13.5 16.653 19.08 25.614 1.937 3.109 4.324 7.54 8.767 5.306 5.169 2.586 8.23-4.107 10.559-7.453 5.97-8.577 11.803-17.216 17.991-25.643 13.138-17.887 25.727-36.063 38.292-54.347 9.491-13.807 21.374-26.789 26.784-42.888 5.886-17.521 4.725-36.083 4.452-54.282 -0.246-16.563 0.322-34.167-9.471-48.398C333.277 165.658 317.427 158.927 300.644 162.555"/></svg>