<svg xmlns="http://www.w3.org/2000/svg" version="1.1" id="Ebene_1" x="0px" y="0px" width="234px" height="235px" viewBox="0 0 234 235" enable-background="new 0 0 234 235" xml:space="preserve"><g id="blue"><path fill="#6DA8C2" d="M92.086 169.252c-0.77-0.68-1.582-1.316-2.441-1.875 -0.883-0.574-1.777-1.129-2.68-1.668 -0.23-0.139-0.488-0.204-0.743-0.204 -0.522 0-1.036 0.271-1.312 0.743 -0.414 0.711-0.16 1.633 0.539 2.051 1.261 0.756 2.527 1.514 3.708 2.389 0.526 0.424 1.041 0.869 1.519 1.346 0.652 0.648 1.211 1.395 1.809 2.09 0.531 0.625 1.574 0.547 2.121 0 0.277-0.277 0.438-0.664 0.438-1.059 0-0.422-0.172-0.75-0.438-1.062C93.794 171.053 93.028 170.08 92.086 169.252zM121.311 193.09c-0.902-0.789-1.832-1.531-2.781-2.266 -0.328-0.254-0.621-0.438-1.059-0.438 -0.395 0.001-0.782 0.161-1.063 0.438 -0.277 0.281-0.438 0.664-0.438 1.062 0 0.353 0.145 0.832 0.438 1.06 0.926 0.719 1.84 1.44 2.723 2.215 1.16 1.016 2.242 2.125 3.341 3.211 0.581 0.574 1.543 0.578 2.12 0 0.574-0.578 0.582-1.547 0-2.121C123.514 195.184 122.45 194.09 121.311 193.09zM135.732 210.177c0.629 0.699 1.336 1.294 2.052 1.91 0.309 0.267 0.641 0.438 1.059 0.438 0.398 0 0.781-0.16 1.062-0.438 0.548-0.547 0.617-1.586 0-2.121 -0.676-0.582-1.362-1.146-1.961-1.809 -0.254-0.285-0.504-0.574-0.766-0.855 -0.668-0.727-1.359-1.426-2.059-2.12 -0.289-0.289-0.676-0.435-1.061-0.435 -0.387 0-0.771 0.146-1.061 0.435 -0.578 0.577-0.578 1.543 0 2.12 0.699 0.695 1.391 1.396 2.059 2.121C135.287 209.673 135.506 209.927 135.732 210.177zM167.204 203.781c-0.253-0.002-0.505 0.064-0.728 0.208 -1.297 0.836-2.598 1.668-3.91 2.483 -1.526 0.945-3.108 1.781-4.703 2.621 -0.723 0.379-0.938 1.371-0.538 2.051 0.43 0.73 1.332 0.918 2.055 0.539 1.591-0.84 3.177-1.676 4.703-2.621 1.312-0.815 2.608-1.647 3.91-2.483 0.688-0.44 0.965-1.324 0.539-2.052C168.262 204.066 167.73 203.781 167.204 203.781zM156.15 211.812c-0.127-0.037-0.272-0.056-0.422-0.056 -0.265 0.001-0.537 0.063-0.736 0.206 -0.941 0.684-1.879 1.375-2.812 2.07 -0.66 0.492-1.324 0.977-1.984 1.473 -0.198 0.149-0.388 0.309-0.579 0.466 -0.101-0.054-0.198-0.11-0.3-0.163 -0.676-0.353-1.371-0.66-2.062-0.974 -0.265-0.119-0.515-0.2-0.784-0.2 -0.119-0.001-0.242 0.016-0.371 0.051 -0.375 0.103-0.699 0.353-0.896 0.688 -0.203 0.349-0.259 0.771-0.152 1.156 0.095 0.34 0.355 0.741 0.691 0.895 0.495 0.226 0.986 0.456 1.478 0.687 -0.168 0.156-0.336 0.313-0.505 0.469 -0.604 0.551-0.559 1.562 0 2.121 0.599 0.598 1.521 0.551 2.121 0 0.3-0.274 0.596-0.553 0.893-0.831 0.163 0.171 0.326 0.343 0.493 0.512 0.578 0.578 1.543 0.578 2.121 0 0.578-0.577 0.578-1.543 0-2.12 -0.121-0.122-0.239-0.246-0.358-0.37 1.497-1.126 3.007-2.238 4.523-3.34 0.328-0.237 0.578-0.487 0.688-0.895 0.109-0.388 0.055-0.81-0.148-1.156C156.85 212.165 156.525 211.915 156.15 211.812zM73.153 159.768c-0.389 0.002-0.779 0.15-1.086 0.432 -1.926 1.768-3.856 3.547-5.909 5.168 -0.902 0.688-1.845 1.309-2.825 1.878 -1.09 0.637-2.266 1.116-3.402 1.651 -0.34 0.16-0.594 0.552-0.691 0.898 -0.105 0.387-0.051 0.809 0.152 1.152 0.195 0.336 0.52 0.586 0.895 0.691 0.418 0.112 0.781 0.026 1.156-0.152 0.891-0.418 1.793-0.812 2.672-1.254 0.965-0.484 1.883-1.078 2.77-1.691 1.137-0.789 2.199-1.688 3.246-2.594 1.375-1.184 2.719-2.398 4.059-3.625 0.602-0.555 0.559-1.562 0-2.125C73.897 159.904 73.526 159.768 73.153 159.768zM30.04 128.498c-0.255 0-0.509 0.064-0.733 0.207 -1.777 1.105-3.539 2.23-5.273 3.402 -2.048 1.384-3.965 2.931-5.879 4.488 -0.29 0.238-0.438 0.699-0.438 1.06 0 0.397 0.16 0.78 0.438 1.062 0.281 0.277 0.664 0.438 1.062 0.438 0.43 0 0.738-0.177 1.059-0.438 0.773-0.629 1.534-1.267 2.315-1.885 1.157-0.857 2.318-1.704 3.516-2.51 1.548-1.042 3.129-2.039 4.712-3.027 0.695-0.434 0.961-1.333 0.538-2.055C31.086 128.777 30.563 128.498 30.04 128.498zM51.437 173.166c-0.386 0-0.772 0.145-1.061 0.434 -0.707 0.707-1.402 1.44-2.145 2.112 -0.355 0.324-0.711 0.647-1.07 0.974 -0.797 0.723-1.688 1.352-2.527 2.02 -0.293 0.23-0.441 0.703-0.441 1.059 0 0.398 0.16 0.781 0.441 1.062 0.277 0.277 0.664 0.438 1.059 0.438 0.434 0 0.734-0.18 1.062-0.438 0.84-0.668 1.695-1.316 2.516-2.004 0.359-0.305 0.695-0.637 1.043-0.953 0.754-0.684 1.465-1.43 2.184-2.148 0.578-0.578 0.578-1.543 0-2.121C52.209 173.311 51.823 173.166 51.437 173.166zM11.524 142.209c-0.252 0-0.502 0.066-0.72 0.212 -2.039 1.354-4.051 2.75-6.062 4.147 -0.332 0.228-0.578 0.496-0.688 0.896 -0.109 0.388-0.055 0.81 0.148 1.156 0.391 0.664 1.383 1.004 2.055 0.539 2.012-1.397 4.023-2.789 6.059-4.147 0.68-0.453 0.973-1.316 0.539-2.052C12.587 142.502 12.052 142.209 11.524 142.209zM159.109 112.853c0.108-0.391 0.055-0.812-0.148-1.156 -0.199-0.336-0.523-0.586-0.898-0.691 -0.127-0.034-0.273-0.054-0.426-0.054 -0.263 0.001-0.537 0.06-0.73 0.207 -2.422 1.84-4.844 3.68-7.336 5.422 -0.332 0.23-0.578 0.496-0.688 0.898 -0.011 0.038-0.013 0.078-0.021 0.117 -0.352 0.109-0.667 0.335-0.858 0.665 -0.414 0.712-0.16 1.634 0.539 2.052 1.035 0.621 2.065 1.237 3.09 1.875 0.981 0.604 1.949 1.232 2.91 1.869 0.167-0.188 0.339-0.373 0.521-0.545 0.565-0.548 1.166-1.041 1.804-1.509 -1.229-0.817-2.462-1.632-3.718-2.41 -0.478-0.295-0.961-0.582-1.441-0.873 2.271-1.609 4.492-3.287 6.714-4.972C158.749 113.502 158.995 113.264 159.109 112.853zM168.218 101.391c-0.388 0-0.78 0.15-1.089 0.43 -0.945 0.855-1.895 1.707-2.831 2.57 -0.669 0.613-1.312 1.254-1.954 1.898 -0.574 0.578-0.578 1.543 0 2.121 0.579 0.578 1.547 0.578 2.121 0 0.646-0.645 1.285-1.285 1.954-1.898 0.938-0.863 1.886-1.715 2.831-2.566 0.609-0.551 0.559-1.566 0-2.125C168.958 101.529 168.59 101.391 168.218 101.391zM183.796 91.184c-0.89 0.015-1.638 0.688-2.328 1.17 -0.829 0.579-1.683 1.12-2.523 1.681 -0.748 0.499-1.801 0.926-2.211 1.784 -0.367 0.77-0.006 1.863 0.862 2.129 1.441 0.441 2.628-1.078 3.695-1.777 1.283-0.84 4.094-1.771 3.991-3.698C185.244 91.743 184.512 91.184 183.796 91.184zM233.372 160.838c-0.281-0.281-0.664-0.438-1.06-0.438 -0.433 0-0.737 0.181-1.062 0.438 -0.668 0.535-1.325 1.076-1.998 1.605 -1.407 1.062-2.911 2.002-4.396 2.945 -0.691 0.438-0.965 1.328-0.539 2.051 0.402 0.688 1.363 0.978 2.051 0.539 0.977-0.617 1.941-1.246 2.898-1.887 1.434-0.961 2.758-2.059 4.104-3.133 0.293-0.234 0.44-0.703 0.44-1.059C233.812 161.502 233.652 161.119 233.372 160.838zM116.952 175.316c1.112-0.715 2.233-1.414 3.297-2.203 0.819-0.609 1.625-1.23 2.429-1.859 0.295-0.23 0.438-0.707 0.438-1.059 0-0.398-0.155-0.781-0.438-1.062 -0.279-0.281-0.662-0.438-1.062-0.438 -0.435 0-0.731 0.18-1.06 0.437 -0.084 0.065-0.17 0.132-0.254 0.199 -0.55 0.423-1.104 0.846-1.66 1.258 -1.031 0.771-2.125 1.44-3.207 2.138 -0.684 0.44-0.962 1.323-0.535 2.051C115.298 175.461 116.264 175.757 116.952 175.316zM111.411 177c-0.258-0.001-0.519 0.062-0.761 0.193 -1.453 0.789-2.914 1.594-4.262 2.555 -0.025 0.018-0.049 0.036-0.074 0.054 -0.687-0.374-1.413-0.691-2.123-1.016 -0.267-0.12-0.519-0.202-0.79-0.202 -0.119 0-0.24 0.016-0.368 0.05 -0.375 0.105-0.699 0.355-0.898 0.691 -0.198 0.348-0.254 0.771-0.148 1.155 0.094 0.34 0.352 0.742 0.688 0.896 0.312 0.142 0.622 0.286 0.931 0.431 -0.126 0.097-0.255 0.19-0.379 0.289 -0.938 0.762-1.848 1.566-2.77 2.353 -0.625 0.526-0.543 1.577 0 2.12 0.277 0.277 0.664 0.438 1.059 0.438 0.426 0 0.75-0.172 1.062-0.438 0.912-0.775 1.812-1.567 2.742-2.325 0.346-0.264 0.702-0.515 1.052-0.773 0.62 0.564 1.171 1.203 1.746 1.82 0.555 0.599 1.559 0.562 2.121 0 0.59-0.594 0.555-1.522 0-2.121 -0.458-0.491-0.903-0.994-1.372-1.478 0.374-0.233 0.752-0.461 1.122-0.692 0.699-0.44 1.449-0.819 2.176-1.215 0.719-0.392 0.941-1.363 0.539-2.052C112.424 177.252 111.925 177 111.411 177zM102.139 149.021c-0.426 0.727-0.152 1.612 0.539 2.051 0.508 0.324 1.016 0.647 1.523 0.973 0.785 0.5 1.539 1.047 2.305 1.582 0.672 0.465 1.664 0.125 2.051-0.539 0.203-0.348 0.258-0.77 0.152-1.156 -0.113-0.397-0.359-0.668-0.691-0.897 -0.73-0.509-1.453-1.035-2.203-1.517 -0.543-0.344-1.082-0.69-1.625-1.035 -0.225-0.142-0.478-0.207-0.73-0.207C102.934 148.273 102.408 148.557 102.139 149.021zM118.963 163.916c0.324 0.262 0.625 0.441 1.059 0.441 0.398 0 0.781-0.16 1.062-0.441 0.277-0.277 0.438-0.664 0.438-1.059 0-0.359-0.145-0.828-0.438-1.062 -1.047-0.828-2.074-1.688-3.152-2.469 -0.746-0.543-1.503-1.066-2.258-1.594 -0.213-0.149-0.459-0.217-0.708-0.217 -0.532 0-1.079 0.305-1.343 0.756 -0.203 0.348-0.258 0.77-0.152 1.155 0.109 0.398 0.359 0.664 0.691 0.896 0.853 0.6 1.705 1.193 2.546 1.808C117.46 162.727 118.21 163.32 118.963 163.916zM35.805 41.09c-0.816 0-1.5 0.683-1.5 1.5 0 2.766 0 5.531 0 8.297 0 0.816 0.684 1.5 1.5 1.5 0.816 0 1.5-0.684 1.5-1.5 0-2.766 0-5.531 0-8.297C37.305 41.774 36.621 41.09 35.805 41.09zM76.637 79.179c0.816 0 1.5-0.68 1.5-1.5 0-2.23 0-4.465 0-6.695 0-0.82-0.684-1.5-1.5-1.5 -0.816 0-1.5 0.68-1.5 1.5 0 2.23 0 4.465 0 6.695C75.137 78.499 75.821 79.179 76.637 79.179zM75.919 59.031c0.734 0.203 1.699-0.242 1.848-1.047 0.145-0.793 0.285-1.582 0.41-2.379 0.07-0.457 0.129-0.922 0.168-1.383 0.078-1-0.113-2.023-0.207-3.02 -0.039-0.41-0.137-0.758-0.438-1.059 -0.281-0.281-0.664-0.441-1.062-0.441 -0.396 0.001-0.783 0.161-1.06 0.443 -0.262 0.258-0.477 0.684-0.441 1.059 0.078 0.852 0.191 1.699 0.223 2.559 0.01 0.369-0.039 0.738-0.085 1.104 -0.125 0.774-0.261 1.546-0.403 2.321 -0.074 0.41-0.066 0.781 0.152 1.152C75.219 58.676 75.544 58.926 75.919 59.031zM146.592 40.677c0.031 0.41 0.145 0.762 0.441 1.059 0.277 0.281 0.664 0.441 1.059 0.441 0.77 0 1.562-0.684 1.5-1.5 -0.09-1.16-0.188-2.32-0.234-3.479 -0.059-1.5-0.073-2.996-0.082-4.496 -0.004-0.816-0.68-1.5-1.5-1.5 -0.815 0-1.504 0.684-1.5 1.5 0.009 1.5 0.023 2.996 0.082 4.496C146.404 38.357 146.503 39.517 146.592 40.677zM147.775 25.587c0.815 0 1.5-0.68 1.5-1.5 0-1.594 0-3.188 0-4.781 0-0.82-0.685-1.5-1.5-1.5 -0.816 0-1.5 0.679-1.5 1.5 0 1.594 0 3.188 0 4.781C146.275 24.907 146.959 25.587 147.775 25.587zM107.486 14.397c0.061 0.616 0.047 1.235 0.047 1.857 0 0.527 0 1.055 0 1.586 0 0.816 0.684 1.5 1.5 1.5 0.821 0 1.5-0.684 1.5-1.5 0-0.621 0-1.242 0-1.863 0-0.402 0-0.805-0.012-1.211 -0.026-0.879-0.254-1.758-0.405-2.621 -0.066-0.367-0.379-0.715-0.688-0.898 -0.23-0.134-0.492-0.204-0.756-0.204 -0.136-0.001-0.271 0.017-0.402 0.054 -0.375 0.102-0.703 0.352-0.897 0.688 -0.22 0.371-0.224 0.746-0.153 1.156C107.308 13.428 107.405 13.909 107.486 14.397zM109.033 6.188c0.395 0 0.781-0.156 1.059-0.438 0.301-0.297 0.41-0.652 0.441-1.062 0.078-1.035 0.145-2.066 0.184-3.102 0.027-0.82-0.707-1.5-1.5-1.5 -0.844 0-1.473 0.68-1.5 1.5 -0.039 1.035-0.105 2.066-0.184 3.102C107.471 5.504 108.263 6.188 109.033 6.188zM21.269 117.396c0.534 0.332 1.079 0.645 1.594 1 0.678 0.561 1.314 1.177 1.961 1.772 0.688 0.633 1.34 1.312 2 1.974 0.578 0.578 1.547 0.578 2.125 0 0.578-0.578 0.574-1.543 0-2.121 -0.789-0.789-1.578-1.582-2.398-2.336 -0.344-0.316-0.688-0.629-1.035-0.938 -0.328-0.297-0.652-0.594-1.012-0.852 -0.555-0.395-1.145-0.73-1.719-1.09 -0.227-0.14-0.48-0.205-0.734-0.205 -0.525 0.001-1.047 0.279-1.321 0.745C20.308 116.068 20.578 116.966 21.269 117.396zM10.574 105.364c-1.16-1.312-2.562-2.379-3.895-3.504 -0.312-0.266-0.637-0.441-1.059-0.441 -0.396-0.001-0.779 0.159-1.06 0.44 -0.543 0.539-0.625 1.59 0 2.121 0.746 0.629 1.492 1.258 2.234 1.887 0.336 0.289 0.664 0.578 0.98 0.887 0.541 0.534 1.014 1.121 1.486 1.712 0.406 0.552 0.814 1.102 1.217 1.655 0.238 0.328 0.492 0.578 0.898 0.691 0.387 0.105 0.809 0.051 1.152-0.152 0.336-0.195 0.586-0.523 0.691-0.898 0.098-0.355 0.074-0.844-0.152-1.156C12.269 107.508 11.476 106.383 10.574 105.364zM134.333 134.152c0.681 0.453 1.656 0.137 2.051-0.539 0.431-0.734 0.142-1.598-0.538-2.051 -0.353-0.234-0.695-0.478-1.06-0.691 -0.207-0.125-0.435-0.211-0.656-0.309 -0.297-0.125-0.59-0.263-0.875-0.422 -0.616-0.345-1.203-0.75-1.801-1.13 -0.226-0.143-0.478-0.208-0.729-0.208 -0.527 0-1.054 0.282-1.326 0.747 -0.422 0.722-0.147 1.613 0.539 2.052 0.599 0.379 1.185 0.784 1.806 1.129 0.245 0.141 0.504 0.266 0.766 0.379 0.195 0.082 0.388 0.164 0.578 0.254C133.527 133.57 133.927 133.883 134.333 134.152zM153.432 41.723c1.082-1.086 2.188-2.145 3.293-3.207 0.469-0.453 0.938-0.906 1.438-1.32 0.973-0.809 1.965-1.594 2.953-2.387 0.293-0.238 0.438-0.703 0.438-1.062 0-0.395-0.16-0.781-0.438-1.059 -0.281-0.281-0.664-0.441-1.062-0.441 -0.43 0-0.738 0.18-1.059 0.441 -0.953 0.762-1.91 1.52-2.848 2.297 -0.535 0.445-1.039 0.926-1.543 1.41 -1.105 1.062-2.211 2.121-3.293 3.207 -0.578 0.578-0.578 1.543 0 2.121C151.889 42.301 152.854 42.301 153.432 41.723zM113.207 19.445c1.66-0.414 3.324-0.812 4.973-1.289 0.707-0.207 1.406-0.477 2.086-0.766 1.484-0.633 2.961-1.285 4.438-1.938 0.336-0.145 0.599-0.555 0.69-0.895 0.105-0.387 0.051-0.809-0.151-1.156 -0.195-0.336-0.522-0.586-0.897-0.688 -0.129-0.036-0.25-0.051-0.367-0.051 -0.271 0.001-0.52 0.084-0.787 0.2 -1.433 0.63-2.859 1.26-4.299 1.874 -0.912 0.327-1.824 0.645-2.768 0.884 -1.238 0.312-2.477 0.625-3.715 0.934 -0.793 0.199-1.262 1.07-1.047 1.844C111.582 19.203 112.414 19.644 113.207 19.445zM73.234 86.027c-0.255-0.001-0.512 0.063-0.746 0.199 -1.203 0.704-2.41 1.407-3.617 2.102 -0.473 0.273-0.945 0.551-1.434 0.801 -0.456 0.236-0.918 0.45-1.385 0.658 -0.5 0.184-1.001 0.364-1.502 0.548 -0.281 0.102-0.562 0.219-0.844 0.324 -0.781 0.305-1.586 0.536-2.383 0.793 -0.777 0.254-1.27 1.031-1.047 1.844 0.211 0.762 1.066 1.301 1.844 1.051 0.898-0.292 1.797-0.566 2.676-0.906 0.414-0.161 0.828-0.312 1.246-0.465 0.906-0.332 1.805-0.684 2.66-1.125 1.805-0.938 3.547-2.008 5.301-3.035 0.707-0.411 0.949-1.348 0.539-2.051C74.265 86.291 73.754 86.027 73.234 86.027zM51.718 98.697c-0.254 0-0.509 0.065-0.738 0.203 -0.719 0.434-1.441 0.883-2.184 1.277 -0.613 0.324-1.227 0.652-1.836 0.984 -1.871 1.02-3.719 2.086-5.582 3.117 -0.715 0.395-0.945 1.359-0.539 2.051 0.418 0.719 1.336 0.938 2.051 0.539 1.867-1.031 3.715-2.094 5.582-3.117 0.613-0.332 1.227-0.66 1.84-0.984 0.742-0.395 1.461-0.84 2.18-1.273 0.699-0.422 0.957-1.34 0.539-2.055C52.758 98.971 52.24 98.697 51.718 98.697zM35.089 57.244c-0.061-0.447-0.297-0.868-0.715-1.075 -0.479-0.235-0.939-0.482-1.375-0.79 -0.762-0.64-1.528-1.279-2.321-1.883 -0.151-0.12-0.304-0.24-0.448-0.366 -0.402-0.348-0.723-0.758-1.062-1.164 -0.251-0.302-0.627-0.438-1.009-0.438 -0.413-0.001-0.833 0.158-1.113 0.438 -0.277 0.277-0.438 0.664-0.438 1.059 0 0.426 0.176 0.746 0.438 1.062 0.246 0.293 0.484 0.59 0.742 0.871 0.156 0.172 0.352 0.32 0.531 0.473 0.259 0.212 0.528 0.416 0.797 0.618 0.417 0.336 0.833 0.676 1.242 1.019 0.207 0.172 0.41 0.344 0.613 0.516 0.518 0.434 1.089 0.763 1.688 1.066 -0.384 0.342-0.768 0.685-1.153 1.027 -0.473 0.419-0.972 0.813-1.458 1.216 -0.778 0.555-1.554 1.105-2.351 1.631 -0.426 0.281-0.855 0.562-1.285 0.84 -0.305 0.195-0.605 0.391-0.91 0.582 -0.483 0.307-1.008 0.549-1.534 0.776 -0.6 0.253-1.199 0.502-1.798 0.759 -0.336 0.148-0.594 0.559-0.688 0.898 -0.105 0.387-0.051 0.809 0.152 1.156 0.195 0.336 0.52 0.586 0.895 0.688 0.426 0.117 0.77 0.02 1.156-0.148 0.16-0.07 0.32-0.141 0.48-0.207 -0.006 0.002-0.011 0.004-0.016 0.006 1.059-0.436 2.12-0.862 3.09-1.479 0.461-0.297 0.918-0.594 1.379-0.891 0.742-0.477 1.477-0.969 2.195-1.484 0.418-0.301 0.855-0.59 1.254-0.922 0.461-0.383 0.922-0.766 1.383-1.152 0.836-0.695 1.637-1.445 2.445-2.172 0.605-0.551 0.555-1.566 0-2.121C35.662 57.42 35.38 57.29 35.089 57.244zM16.017 68.738c-0.424 0-0.745 0.172-1.061 0.438 -0.644 0.54-1.291 1.072-1.952 1.59 -0.817 0.615-1.671 1.159-2.528 1.71 -0.965 0.621-1.934 1.23-2.898 1.844 -0.688 0.438-0.961 1.324-0.539 2.051 0.402 0.688 1.363 0.977 2.055 0.539 1.352-0.859 2.703-1.715 4.051-2.578 1.395-0.891 2.668-1.973 3.934-3.035 0.625-0.523 0.539-1.582 0-2.121C16.798 68.895 16.415 68.738 16.017 68.738zM128.135 167.175c0.008-0.065 0.016-0.131 0.021-0.196 -0.143-0.218-0.254-0.457-0.329-0.713C127.833 166.591 127.939 166.916 128.135 167.175zM215.562 168.329c-0.312-0.254-0.629-0.504-0.938-0.759 -0.267-0.219-0.522-0.44-0.793-0.651 -0.604-0.469-1.276-0.81-1.938-1.185 -0.233-0.133-0.492-0.198-0.748-0.198 -0.518 0-1.025 0.262-1.302 0.737 -0.409 0.699-0.172 1.647 0.539 2.051 0.534 0.305 1.079 0.588 1.593 0.925 0.639 0.508 1.264 1.038 1.896 1.556 0.78 0.637 1.565 1.266 2.353 1.896 0.123 0.1 0.244 0.181 0.37 0.251 -0.17-0.065-0.349-0.1-0.528-0.1 -0.385 0-0.775 0.148-1.084 0.43 -0.744 0.68-1.463 1.393-2.25 2.027 -1.166 0.844-2.342 1.674-3.508 2.523 -0.328 0.238-0.578 0.488-0.688 0.895 -0.109 0.388-0.055 0.81 0.148 1.156 0.198 0.336 0.522 0.586 0.897 0.688 0.354 0.099 0.844 0.074 1.155-0.147 0.75-0.547 1.5-1.098 2.259-1.633 0.555-0.396 1.116-0.781 1.651-1.199 0.867-0.672 1.646-1.448 2.453-2.188 0.605-0.551 0.56-1.565 0-2.12 -0.104-0.104-0.221-0.183-0.343-0.249 0.159 0.066 0.329 0.107 0.527 0.107 0.396 0 0.78-0.16 1.059-0.44 0.281-0.281 0.441-0.664 0.441-1.06 0-0.358-0.147-0.828-0.441-1.062C217.413 169.833 216.484 169.087 215.562 168.329zM143.92 223.914c-0.427 0-0.743 0.176-1.061 0.438 -0.983 0.82-1.961 1.652-2.938 2.484 -0.363 0.309-0.711 0.637-1.062 0.953 -0.607 0.546-1.188 1.13-1.824 1.643 -0.756 0.561-1.549 1.064-2.323 1.6 -0.328 0.229-0.578 0.496-0.688 0.895 -0.104 0.391-0.051 0.812 0.152 1.156 0.387 0.668 1.379 1.004 2.051 0.539 0.681-0.469 1.371-0.918 2.047-1.395 0.688-0.488 1.312-1.027 1.922-1.605 0.523-0.496 1.07-0.965 1.603-1.445 1.035-0.93 2.113-1.812 3.185-2.703 0.293-0.242 0.438-0.695 0.438-1.059 0-0.398-0.156-0.781-0.438-1.062C144.7 224.07 144.318 223.914 143.92 223.914zM130.911 140.452c-0.013-0.004-0.022-0.009-0.035-0.009 -0.199-0.141-0.396-0.28-0.594-0.42 -2.134-1.535-4.293-3.032-6.47-4.504 0.379-0.254 0.758-0.5 1.142-0.75 0.478-0.306 0.965-0.621 1.371-1.021 0.551-0.542 0.805-1.483 0.315-2.151 -0.19-0.263-0.363-0.431-0.637-0.603 -0.316-0.199-0.703-0.226-1.062-0.257 -0.172-0.016-0.344-0.012-0.516-0.012 -0.086 0.004-0.172 0.004-0.258 0 -0.441-0.004-0.883-0.017-1.324-0.027 -0.854-0.023-1.715-0.083-2.562-0.172 -0.691-0.125-1.371-0.282-2.039-0.508 -0.758-0.25-1.516-0.513-2.289-0.709 -1.613-0.41-3.238-0.746-4.883-1.03 -0.84-0.146-1.695-0.267-2.551-0.267 -0.076 0.004-0.146 0.004-0.22 0.004 -0.477 0.012-0.969 0.078-1.418 0.237 -0.625 0.228-1.078 0.595-1.438 1.153 -0.254 0.387-0.312 0.922-0.316 1.371 -0.004 0.195-0.004 0.391-0.004 0.589 0 0.364 0 0.731 0 1.098 0 1.609 0 3.218-0.004 4.828 0 1.375-0.004 2.75-0.031 4.129 -0.023 1.511-0.16 3.019-0.285 4.522 -0.031 0.367 0.117 0.709 0.355 0.974 0.031 0.144 0.09 0.289 0.168 0.427 0.406 0.698 1.352 0.956 2.051 0.538 1.027-0.616 2.059-1.21 3.125-1.758 0.406-0.207 0.816-0.405 1.215-0.633 0.238-0.132 0.477-0.265 0.715-0.402 0.438-0.254 0.789-0.629 1.125-1.016 1.031 0.688 2.055 1.379 3.094 2.05 0.915 0.59 1.844 1.148 2.773 1.711 0.523 0.316 1.048 0.637 1.57 0.953 0.483 0.297 0.944 0.637 1.418 0.953 0.832 0.559 1.629 1.16 2.435 1.754 0.391 0.329 0.78 0.656 1.172 0.984 0.198 0.312 0.508 0.543 0.866 0.645 0.388 0.105 0.81 0.051 1.156-0.152 0.31-0.18 0.629-0.531 0.69-0.895 0.066-0.41 0.16-0.793 0.207-1.208 0.021-0.177 0.013-0.354 0.013-0.531 0-0.637-0.005-1.271 0.034-1.903 0.078-0.43 0.195-0.843 0.349-1.254 0.293-0.625 0.603-1.233 0.888-1.854 0.172-0.367 0.332-0.742 0.516-1.104 0.104-0.211 0.227-0.412 0.352-0.606 0.035-0.035 0.066-0.07 0.102-0.104 0.285-0.285 0.685-0.802 0.767-1.216 0.108-0.534 0.013-1.059-0.388-1.461C131.383 140.65 131.165 140.523 130.911 140.452zM107.952 144.079c0-0.001 0.001-0.003 0.001-0.004 0.018-0.009 0.036-0.017 0.054-0.026C107.989 144.059 107.971 144.068 107.952 144.079zM119.948 137.749c0.042-0.017 0.084-0.032 0.127-0.05l0.014-0.004 0.062-0.016C120.081 137.705 120.014 137.729 119.948 137.749zM121.307 133.633c-0.223-0.021-0.438-0.043-0.647-0.066 0.218 0.022 0.438 0.043 0.655 0.06C121.312 133.628 121.311 133.63 121.307 133.633zM125.242 148.088c0.002-0.098 0.002-0.195 0.002-0.293 0.005 0.102 0.011 0.205 0.018 0.309C125.255 148.098 125.248 148.093 125.242 148.088zM14.645 47.279c0.562 0.418 1.129 0.828 1.715 1.211 0.352 0.227 0.711 0.441 1.066 0.664 0.465 0.293 0.934 0.562 1.418 0.828 0.465 0.258 0.977 0.457 1.465 0.664 0.391 0.164 0.73 0.27 1.156 0.152 0.375-0.105 0.699-0.355 0.898-0.691 0.203-0.344 0.258-0.766 0.148-1.156 -0.09-0.332-0.352-0.754-0.688-0.895 -0.465-0.199-0.957-0.387-1.402-0.629 -0.465-0.254-0.922-0.512-1.371-0.793 -0.359-0.223-0.723-0.441-1.078-0.668 -0.621-0.406-1.219-0.836-1.812-1.277 -0.196-0.146-0.469-0.208-0.731-0.208 -0.151 0-0.298 0.021-0.426 0.056 -0.375 0.102-0.699 0.355-0.898 0.688 -0.203 0.348-0.258 0.77-0.148 1.156C14.066 46.791 14.316 47.037 14.645 47.279zM102.074 19.006c1.242 0.566 2.426 1.219 3.543 2.008 0.668 0.469 1.664 0.121 2.051-0.539 0.203-0.348 0.258-0.77 0.152-1.156 -0.109-0.402-0.359-0.664-0.691-0.898 -0.594-0.418-1.207-0.793-1.84-1.164 -0.652-0.379-1.355-0.684-2.043-0.996 -1.241-0.563-2.483-1.125-3.737-1.657 -0.402-0.183-0.776-0.42-1.153-0.647 -0.23-0.137-0.486-0.202-0.741-0.202 -0.524-0.002-1.04 0.269-1.315 0.739 -0.414 0.711-0.16 1.633 0.539 2.051 0.406 0.246 0.801 0.496 1.238 0.684 0.25 0.109 0.504 0.211 0.754 0.32 -0.121-0.051-0.238-0.102-0.359-0.152C99.683 17.913 100.878 18.463 102.074 19.006zM81.135 7.461c0.695 0.367 1.41 0.703 2.098 1.086 0.582 0.32 1.141 0.672 1.699 1.027 0.496 0.32 0.965 0.68 1.438 1.035 0.605 0.453 1.223 0.887 1.848 1.316 0.672 0.469 1.664 0.129 2.051-0.535 0.203-0.348 0.258-0.77 0.152-1.156 -0.109-0.398-0.359-0.668-0.688-0.898 -0.586-0.402-1.172-0.812-1.742-1.238 -0.469-0.352-0.938-0.723-1.434-1.039C85.998 6.7 85.444 6.34 84.866 6.02c-0.73-0.402-1.48-0.758-2.219-1.148 -0.242-0.129-0.506-0.192-0.764-0.192 -0.511-0.001-1.004 0.247-1.287 0.73C80.198 6.094 80.412 7.082 81.135 7.461zM82.806 92.395c-0.371-0.445-0.789-0.832-1.238-1.199 -0.363-0.297-0.727-0.59-1.086-0.895 -0.906-0.77-1.794-1.559-2.672-2.359 -0.308-0.281-0.697-0.431-1.086-0.431 -0.372 0-0.744 0.138-1.036 0.431 -0.558 0.559-0.604 1.57 0 2.121 0.88 0.801 1.767 1.594 2.673 2.359 0.359 0.305 0.723 0.598 1.086 0.895 0.383 0.316 0.738 0.641 1.074 1.008 0.449 0.504 0.852 1.051 1.281 1.574 0.242 0.293 0.695 0.438 1.062 0.438 0.395 0 0.781-0.156 1.059-0.438 0.281-0.281 0.441-0.664 0.441-1.062 0-0.426-0.177-0.742-0.441-1.059C83.548 93.321 83.185 92.852 82.806 92.395zM147.706 46.004c-0.203 0.347-0.258 0.769-0.151 1.156 0.108 0.402 0.358 0.668 0.688 0.898 1.066 0.742 2.125 1.496 3.172 2.262 0.438 0.316 0.875 0.633 1.316 0.941 0.242 0.167 0.487 0.335 0.729 0.504 0.551 0.378 1.151 0.684 1.729 1.015 0.707 0.406 1.638 0.172 2.052-0.539 0.409-0.699 0.172-1.645-0.535-2.05 -0.578-0.333-1.181-0.637-1.729-1.016 -0.246-0.167-0.488-0.336-0.734-0.508 -0.441-0.305-0.875-0.621-1.312-0.938 -1.051-0.766-2.104-1.52-3.172-2.262 -0.215-0.149-0.462-0.216-0.712-0.216C148.514 45.252 147.971 45.555 147.706 46.004zM87.882 97.397c-0.385-0.001-0.771 0.143-1.059 0.432 -0.578 0.578-0.578 1.547 0 2.121 0.598 0.598 1.176 1.219 1.754 1.832 0.734 0.777 1.52 1.488 2.297 2.223 0.594 0.559 1.531 0.59 2.121 0 0.566-0.566 0.594-1.562 0-2.121 -0.777-0.734-1.562-1.445-2.297-2.223 -0.578-0.613-1.156-1.234-1.754-1.832C88.654 97.541 88.268 97.397 87.882 97.397z"/></g><g id="black"><path fill="#444444" d="M206.514 183.064c-0.08-0.571-0.16-1.144-0.24-1.713 -0.092-0.707-0.156-1.41-0.193-2.123 -0.027-0.473-0.039-0.944-0.078-1.418 -0.087-1.104-0.216-2.195-0.363-3.295 -0.146-1.232-0.236-2.478-0.32-3.716 -0.047-0.668-0.022-1.348-0.022-2.016 -0.004-0.625-0.004-1.246-0.008-1.867 -0.013-1.358-0.031-2.719-0.075-4.074 -0.046-1.469-0.206-2.938-0.339-4.397 -0.04-0.41-0.142-0.762-0.44-1.062 -0.279-0.277-0.664-0.438-1.06-0.438 -0.072 0-0.145 0.011-0.217 0.022 0.031-0.206 0.022-0.418-0.033-0.62 -0.002-0.007-0.004-0.013-0.006-0.019 -0.314 0.267-0.639 0.522-0.965 0.774 -0.002 0.002-0.005 0.004-0.007 0.006 -0.588-0.485-1.181-0.968-1.799-1.414 -0.318-0.229-0.633-0.463-0.943-0.699 -0.449-0.396-0.893-0.803-1.334-1.21 -0.685-0.634-1.478-1.129-2.301-1.56 -0.638-0.332-1.306-0.598-1.98-0.844 -0.561-0.203-1.131-0.354-1.688-0.562 -0.713-0.344-1.351-0.826-2-1.277 -0.552-0.383-1.113-0.719-1.691-1.047 -0.969-0.547-2.008-0.91-3.062-1.238 -0.246-0.078-0.495-0.131-0.739-0.207 0.025-0.406 0.045-0.813 0.032-1.216 -0.027-0.823-0.065-1.647-0.108-2.474 -0.039-0.784-0.188-1.562-0.263-2.344 -0.074-0.772-0.108-1.551-0.133-2.328 -0.055-1.562-0.031-3.129-0.035-4.69 0-1.526 0-3.06 0-4.586 0-0.474 0-0.945 0-1.418 0-0.657-0.446-1.223-1.046-1.42 0.304-0.263 0.608-0.522 0.917-0.775 0.057-0.054 0.114-0.106 0.172-0.159 -0.055-0.061-0.119-0.099-0.181-0.148 0.021-0.053 0.061-0.097 0.076-0.152 0.099-0.348 0.078-0.855-0.151-1.156 -1.021-1.336-1.996-2.707-3.146-3.94 -1.281-1.379-2.777-2.508-4.341-3.547 -0.422-0.281-0.836-0.57-1.27-0.836 -0.988-0.609-2.02-1.082-3.102-1.496 -0.996-0.387-2.021-0.707-3.035-1.047 -0.131-0.044-0.266-0.064-0.398-0.064 -0.648-0.002-1.272 0.484-1.445 1.113 -0.227 0.816 0.273 1.586 1.048 1.844 1.192 0.397 2.391 0.784 3.556 1.247 0.936 0.415 1.807 0.939 2.655 1.507 0.715 0.478 1.43 0.954 2.118 1.468 1.291 1.035 2.434 2.23 3.459 3.527 0.271 0.358 0.542 0.719 0.812 1.078 -1.105 0.719-2.205 1.44-3.341 2.113 -0.612 0.363-1.233 0.728-1.849 1.099 -0.715 0.431-1.434 0.844-2.155 1.254 -0.582 0.332-1.185 0.646-1.742 1.013 -2.883 1.895-5.698 3.891-8.534 5.852 -0.332 0.23-0.582 0.5-0.691 0.898 -0.039 0.145-0.049 0.295-0.044 0.443 -2.842-1.864-5.69-3.719-8.423-5.736 -1.172-0.977-2.311-1.984-3.441-3.002 -0.024-0.022-0.057-0.03-0.082-0.051 1.221-0.546 2.452-1.077 3.654-1.661 0.625-0.305 1.229-0.637 1.844-0.969 0.586-0.324 1.141-0.729 1.703-1.103 1.152-0.758 2.332-1.477 3.5-2.215 0.551-0.348 1.117-0.664 1.672-1.004 0.324-0.195 0.645-0.395 0.965-0.602 0.66-0.426 1.277-0.926 1.896-1.41 -0.002 0.001-0.004 0.002-0.006 0.004 0.004-0.003 0.008-0.005 0.01-0.008 -0.002 0.001-0.004 0.002-0.006 0.004 0.031-0.024 0.062-0.048 0.094-0.072 0.067-0.053 0.135-0.106 0.203-0.158 -0.022 0.019-0.047 0.037-0.069 0.056 0.144-0.11 0.288-0.22 0.435-0.329 0.323-0.25 0.573-0.484 0.688-0.898 0.105-0.387 0.051-0.809-0.152-1.156 -0.195-0.336-0.52-0.586-0.895-0.688 -0.127-0.036-0.274-0.056-0.426-0.056 -0.266 0-0.541 0.061-0.732 0.208 -0.445 0.334-0.884 0.676-1.327 1.018 -0.474 0.362-0.95 0.717-1.45 1.041 -0.277 0.18-0.559 0.348-0.836 0.516 -0.551 0.336-1.109 0.652-1.652 0.992 -1.184 0.746-2.379 1.48-3.547 2.25 -0.52 0.34-1.035 0.715-1.582 1.016 -0.608 0.341-1.219 0.668-1.844 0.974 -1.414 0.688-2.867 1.297-4.301 1.944 -0.336 0.156-0.594 0.556-0.688 0.898 -0.055 0.201-0.064 0.412-0.034 0.617 -0.072-0.012-0.144-0.023-0.216-0.023 -0.398 0-0.781 0.16-1.062 0.44 -0.301 0.302-0.402 0.647-0.438 1.06 -0.086 0.934-0.158 1.868-0.226 2.803 -0.128-0.036-0.26-0.061-0.394-0.061 -0.434-0.002-0.735 0.178-1.063 0.437 -0.444 0.358-0.888 0.722-1.334 1.077 -1.069 0.804-2.235 1.496-3.354 2.228 -1.022 0.677-2.059 1.324-3.108 1.953 -0.521 0.312-1.043 0.621-1.551 0.953 -0.521 0.336-1.031 0.698-1.578 0.991 -1.312 0.695-2.685 1.277-4.035 1.896 -0.336 0.152-0.594 0.552-0.69 0.896 -0.105 0.387-0.051 0.809 0.151 1.156 0.065 0.112 0.163 0.197 0.254 0.288 -0.099 0.094-0.187 0.2-0.257 0.319 -0.103 0.176-0.162 0.361-0.187 0.547 -0.069-0.01-0.14-0.021-0.212-0.021 -0.818 0-1.498 0.685-1.498 1.5 0 0.871 0 1.742 0 2.613 0 0.738 0.031 1.496-0.021 2.234 -0.094 1.402-0.25 2.801-0.305 4.207 -0.142 3.48-0.103 6.969-0.103 10.453 0 0.333 0.118 0.641 0.309 0.893 -0.177-0.071-0.354-0.143-0.529-0.216 -0.111-0.045-0.236-0.065-0.366-0.065 -0.278-0.002-0.573 0.09-0.788 0.215 -0.336 0.195-0.586 0.521-0.688 0.896 -0.109 0.388-0.055 0.81 0.148 1.156 0.219 0.371 0.52 0.53 0.897 0.688 0.532 0.224 1.065 0.444 1.599 0.666 -0.013-0.005-0.023-0.009-0.035-0.014 0.969 0.414 1.891 0.906 2.762 1.504 0.496 0.34 0.992 0.672 1.496 0.996 0.668 0.434 1.348 0.848 2.027 1.258 1.331 0.812 2.719 1.527 4.065 2.309 1.426 0.824 2.848 1.638 4.219 2.548 1.388 0.918 2.776 1.827 4.177 2.729 1.096 0.704 2.15 1.463 3.196 2.249 0.78 0.646 1.569 1.273 2.365 1.896 0.93 0.729 1.832 1.508 2.797 2.19 0.883 0.621 1.776 1.23 2.69 1.797 0.893 0.554 1.746 1.16 2.584 1.791 2.174 1.795 4.324 3.608 6.361 5.558 1.023 0.983 2.098 1.948 3.227 2.812 0.566 0.438 1.146 0.853 1.75 1.242 0.271 0.172 0.535 0.348 0.806 0.516 0.276 0.176 0.547 0.355 0.832 0.521 0.483 0.281 0.991 0.522 1.487 0.785 0.724 0.379 1.629 0.19 2.056-0.539 0.173-0.297 0.224-0.65 0.174-0.988 0.189-0.025 0.38-0.082 0.56-0.173 1.578-0.785 3.125-1.605 4.641-2.508 1.387-0.82 2.754-1.707 4.066-2.641 0.641-0.457 1.272-0.941 1.94-1.363 0.738-0.461 1.478-0.914 2.224-1.355 1.362-0.809 2.762-1.551 4.121-2.367 1.19-0.715 2.354-1.492 3.461-2.34 0.641-0.496 1.258-1.004 1.858-1.551 0.442-0.402 0.896-0.796 1.36-1.177 0.566-0.392 1.15-0.763 1.726-1.147 0.289-0.191 0.57-0.395 0.854-0.594 0.254-0.178 0.524-0.333 0.789-0.498 0.005 0.036 0.011 0.072 0.016 0.109 0.051 0.358 0.391 0.723 0.688 0.895 0.349 0.203 0.771 0.258 1.155 0.152 0.375-0.102 0.7-0.355 0.899-0.691C206.587 183.834 206.572 183.482 206.514 183.064zM134.895 142.527c0.539-0.284 1.043-0.651 1.551-0.983 0.523-0.34 1.062-0.66 1.603-0.978 1.138-0.672 2.242-1.391 3.345-2.112 0.526-0.349 1.059-0.695 1.586-1.035 0.285-0.185 0.565-0.375 0.852-0.555 0.334-0.214 0.652-0.454 0.966-0.7 -0.089 0.674-0.175 1.348-0.245 2.023 -0.078 0.711-0.117 1.431-0.191 2.142 -0.164 1.512-0.309 3.022-0.487 4.522 -0.16 1.09-0.332 2.172-0.478 3.262 -0.164 1.182-0.282 2.364-0.388 3.55 -0.468-0.288-0.938-0.572-1.397-0.868 -0.633-0.406-1.267-0.816-1.902-1.211 -1.375-0.844-2.695-1.777-4.055-2.648 -0.656-0.422-1.367-0.78-2.047-1.172 -0.676-0.387-1.332-0.812-1.992-1.227 -0.139-0.086-0.274-0.174-0.41-0.261C132.444 143.717 133.694 143.169 134.895 142.527zM171.766 175.402c0 6.578 0 13.156 0 19.73 0 1.057 0 2.111 0 3.167 -0.37-0.249-0.739-0.497-1.097-0.767 -1.134-0.93-2.215-1.922-3.28-2.928 -1.156-1.09-2.341-2.141-3.556-3.168 -1.289-1.082-2.56-2.203-3.944-3.164 -1.273-0.891-2.617-1.676-3.884-2.573 -0.394-0.279-0.778-0.566-1.162-0.857 -1.231-1-2.495-1.962-3.717-2.975 -1.254-1.039-2.608-1.974-3.978-2.853 -1.422-0.914-2.836-1.84-4.242-2.776 -1.358-0.898-2.776-1.699-4.188-2.517 -1.422-0.824-2.879-1.586-4.285-2.44 -0.828-0.505-1.645-1.023-2.457-1.552 -0.262-0.172-0.516-0.348-0.77-0.522 -0.5-0.349-1.02-0.656-1.559-0.94 -0.496-0.265-1.012-0.496-1.532-0.717 0.711-0.113 1.272-0.738 1.272-1.477 0-3.449-0.039-6.898 0.098-10.344 0.056-1.422 0.207-2.832 0.306-4.246 0.051-0.734 0.022-1.484 0.022-2.219 0-0.77 0-1.542 0-2.312 0.642 0.414 1.286 0.832 1.945 1.213 0.75 0.43 1.5 0.859 2.258 1.285 0.656 0.371 1.285 0.82 1.91 1.246 0.609 0.41 1.211 0.832 1.84 1.219 1.438 0.887 2.853 1.816 4.293 2.699 0.452 0.277 0.897 0.566 1.338 0.862 0.039 0.808 0.664 1.482 1.498 1.482 0.553 0 1.069-0.333 1.327-0.809 0.024-0.005 0.046-0.004 0.07-0.011 0.375-0.105 0.699-0.355 0.896-0.691 0.203-0.344 0.258-0.766 0.151-1.156 -0.09-0.332-0.352-0.754-0.688-0.895 -0.144-0.061-0.288-0.124-0.434-0.186 -0.037-0.778-0.03-1.556 0.059-2.333 0.043-0.33 0.041-0.625-0.091-0.929 0.042-0.392 0.071-0.784 0.118-1.176 0.137-0.996 0.297-1.984 0.44-2.98 0.164-1.141 0.246-2.289 0.383-3.438 0.095-0.801 0.176-1.604 0.251-2.409 0.627-0.181 1.081-0.761 1.094-1.437 0.035-1.785 0.027-3.578 0.142-5.359 0.039-0.602 0.096-1.2 0.145-1.8 1.043 0.936 2.087 1.862 3.164 2.757 0.949 0.791 1.984 1.461 2.992 2.162 1.043 0.726 2.073 1.468 3.146 2.151 1.316 0.844 2.622 1.71 3.927 2.575 -0.025 0.014-0.054 0.019-0.078 0.033 -0.306 0.176-0.638 0.535-0.691 0.898 -0.198 1.354-0.413 2.711-0.559 4.077 -0.074 0.711-0.113 1.427-0.181 2.138 -0.133 1.332-0.315 2.651-0.469 3.979 -0.211 1.504-0.465 3.004-0.789 4.483 -0.236 1.082-0.432 2.174-0.622 3.266 -0.143 0.164-0.255 0.354-0.284 0.549 -0.039 0.281-0.086 0.562-0.129 0.844 -0.465 0.021-0.965 0.34-1.176 0.742 -0.141 0.27-0.23 0.496-0.23 0.805 0 0.449 0.199 0.801 0.474 1.133 0.192 0.232 0.427 0.411 0.665 0.589 -0.003 0.021-0.004 0.04-0.007 0.06 0.18 0.137 0.358 0.271 0.543 0.398 0.539 0.375 1.062 0.758 1.586 1.152 0.703 0.594 1.414 1.176 2.142 1.737 0.266 0.203 0.53 0.407 0.793 0.609 0.516 0.397 1.039 0.784 1.555 1.18 0.508 0.394 1.012 0.785 1.52 1.177 1.254 0.967 2.508 1.928 3.832 2.791 0.582 0.375 1.188 0.715 1.793 1.055 0.072 0.041 0.148 0.073 0.222 0.111C171.813 174.989 171.766 175.19 171.766 175.402zM173.868 172.45c-0.609-0.296-1.211-0.625-1.785-0.98 -0.621-0.383-1.233-0.77-1.832-1.188 -0.547-0.384-1.074-0.794-1.604-1.191 -0.562-0.434-1.125-0.866-1.688-1.301 0.047 0.035 0.09 0.069 0.133 0.101 -0.791-0.613-1.598-1.214-2.393-1.827 -0.046-0.035-0.093-0.071-0.138-0.106h0.004c-0.172-0.133-0.34-0.262-0.513-0.391 -0.235-0.189-0.472-0.379-0.706-0.567 -0.06-0.013-0.117-0.026-0.177-0.042 -0.508-0.125-0.938-0.43-1.297-0.792 -0.097-0.097-0.192-0.214-0.283-0.337 -0.061-0.082-0.11-0.173-0.163-0.262 -0.038-0.067-0.083-0.131-0.115-0.2 -0.074-0.16-0.133-0.324-0.155-0.483 -0.031-0.208-0.056-0.355-0.07-0.473 -0.001-0.001-0.003-0.002-0.004-0.003 -0.012-0.088-0.019-0.163-0.021-0.231 0.001 0 0.002 0 0.003-0.001 0-0.016 0.001-0.031 0.001-0.047 0-0.035 0-0.069 0.003-0.106 0-0.01 0.002-0.021 0.003-0.031 0.012-0.141 0.042-0.312 0.094-0.618 0.03-0.199 0.089-0.392 0.144-0.586 0.031-0.375 0.074-0.754 0.191-1.109 0.094-0.276 0.207-0.551 0.277-0.836 0.02-0.152 0.047-0.304 0.074-0.455 0.063-0.351 0.142-0.696 0.271-1.016 0.247-1.147 0.484-2.304 0.646-3.468 0.211-1.517 0.397-3.035 0.573-4.56 0.168-1.44 0.255-2.891 0.431-4.332 0.108-0.762 0.227-1.522 0.34-2.284 0.059-0.399 0.063-0.746-0.13-1.106 0.34-0.119 0.644-0.348 0.825-0.657 0.388-0.656 0.195-1.414-0.336-1.892 0.076-0.032 0.151-0.066 0.221-0.115 2.812-1.94 5.598-3.918 8.453-5.793 0.565-0.375 1.172-0.695 1.762-1.031 0.707-0.405 1.414-0.809 2.113-1.229 0.612-0.367 1.229-0.73 1.848-1.094 0.746-0.444 1.479-0.908 2.209-1.377 0.009-0.008 0.017-0.017 0.024-0.024 -0.003 3.218-0.039 6.443 0.024 9.661 0.016 0.812 0.047 1.625 0.094 2.435 0.051 0.776 0.18 1.547 0.258 2.32 0.168 1.608 0.191 3.229 0.086 4.84 0 0.005-0.001 0.01-0.001 0.015 -0.001 0.003-0.004 0.006-0.005 0.01 -0.054 0.196-0.065 0.4-0.039 0.6 -0.004 0.066-0.009 0.134-0.014 0.199 -0.059 0.816 0.727 1.5 1.5 1.5 0.208 0 0.413-0.047 0.602-0.13 0.227 0.071 0.448 0.157 0.677 0.219 0.585 0.161 1.165 0.345 1.731 0.567 1.188 0.551 2.26 1.271 3.334 2.019 0.398 0.276 0.801 0.539 1.234 0.754 0.453 0.224 0.941 0.383 1.418 0.543 0.505 0.168 1.011 0.327 1.512 0.507 0.743 0.338 1.469 0.708 2.133 1.186 0.688 0.574 1.312 1.219 2.023 1.765 0.516 0.396 1.043 0.776 1.566 1.164 0.108 0.088 0.214 0.176 0.322 0.265 -0.05 0.017-0.095 0.038-0.146 0.053 -0.026 0.006-0.054 0.014-0.079 0.02 -0.146 0.156-0.299 0.305-0.46 0.445 -1.195 0.883-2.406 1.734-3.656 2.543 -0.672 0.434-1.348 0.867-2 1.328 -0.646 0.457-1.284 0.914-1.94 1.352 -0.646 0.43-1.301 0.836-1.935 1.277 -0.637 0.44-1.258 0.902-1.891 1.348 -1.281 0.898-2.681 1.59-4.06 2.328 -0.66 0.352-1.309 0.723-1.969 1.078 -0.328 0.18-0.672 0.348-0.992 0.547 -0.336 0.203-0.691 0.387-1.008 0.613 -0.328 0.233-0.652 0.469-0.977 0.703 -0.698 0.503-1.342 1.064-1.961 1.654 -0.536-0.426-1.075-0.853-1.659-1.203C174.523 172.746 174.184 172.602 173.868 172.45zM201.461 181.559c-0.258 0.164-0.504 0.352-0.758 0.522 -0.574 0.387-1.152 0.762-1.73 1.146 -0.633 0.418-1.199 0.93-1.77 1.426 -0.488 0.426-0.965 0.863-1.456 1.287 -1.162 0.879-2.354 1.719-3.603 2.471 -0.685 0.41-1.371 0.797-2.06 1.195 -0.703 0.405-1.422 0.789-2.121 1.203 -0.729 0.438-1.457 0.875-2.176 1.327 -0.656 0.414-1.281 0.884-1.91 1.332 -1.353 0.966-2.762 1.841-4.172 2.72 -1.496 0.934-3.074 1.729-4.656 2.516 -0.107 0.054-0.2 0.126-0.284 0.205 0-6.495 0-12.99 0-19.484 0.456 0.065 0.938-0.059 1.258-0.415 1.16-1.293 2.305-2.637 3.66-3.729 0.375-0.281 0.754-0.555 1.133-0.828 0.336-0.238 0.699-0.441 1.051-0.652 0.664-0.406 1.363-0.754 2.043-1.133 1.359-0.758 2.758-1.438 4.098-2.234 0.691-0.406 1.332-0.897 1.984-1.371 0.609-0.444 1.23-0.879 1.871-1.285 1.352-0.858 2.633-1.815 3.965-2.702 0.922-0.613 1.863-1.195 2.777-1.824 0.479-0.332 0.953-0.676 1.422-1.026 0.354-0.267 0.715-0.523 1.055-0.81 0.316-0.267 0.582-0.617 0.848-0.935 0.039-0.047 0.078-0.095 0.117-0.142 0.075 0.853 0.14 1.707 0.166 2.562 0.049 1.422 0.071 2.845 0.075 4.267 0.008 1.461-0.017 2.926 0.082 4.387 0.093 1.347 0.231 2.688 0.412 4.023 -0.003-0.017-0.005-0.031-0.007-0.046 0.121 1 0.211 2 0.273 3.004 0.027 0.488 0.034 0.98 0.078 1.469 0.014 0.161 0.039 0.321 0.056 0.482C202.608 180.841 202.032 181.194 201.461 181.559zM125.07 127.702c0 0.204 0 0.408 0 0.612 0 0.474 0.229 0.9 0.58 1.178 0.146-0.024 0.293-0.037 0.442-0.037 0.402 0 0.75 0.084 1.072 0.232 0.048-0.021 0.087-0.057 0.133-0.083 0.086 0.075 0.175 0.146 0.26 0.222 -0.023 0.012-0.047 0.023-0.071 0.035 0.052 0.031 0.103 0.063 0.152 0.098 -0.035-0.023-0.065-0.047-0.098-0.075 0.066 0.052 0.133 0.099 0.199 0.149 0.027 0.02 0.059 0.043 0.086 0.066 0.465 0.338 0.93 0.69 1.359 1.077 0.282 0.253 0.506 0.535 0.685 0.843 0.041-0.021 0.083-0.041 0.124-0.062 0.641-0.315 1.309-0.59 1.93-0.935 0.391-0.215 0.777-0.434 1.168-0.648 0.406-0.223 0.789-0.508 1.176-0.758 0.656-0.422 1.324-0.824 1.988-1.223 0.668-0.402 1.352-0.773 2.035-1.145 0.738-0.398 1.457-0.828 2.176-1.254 1.332-0.792 2.723-1.469 4.098-2.188 1.138-0.598 2.146-1.371 3.185-2.117 0.181-0.127 0.329-0.269 0.452-0.429 -0.016 0.684-0.133 1.365-0.207 2.048 -0.039 0.375 0.184 0.806 0.441 1.062 0.28 0.281 0.664 0.438 1.059 0.438 0.398 0 0.781-0.156 1.062-0.438 0.305-0.305 0.395-0.648 0.438-1.062 0.102-0.938 0.289-1.871 0.176-2.812 -0.055-0.444-0.102-0.888-0.148-1.332 -0.062-0.608-0.133-1.223-0.188-1.84 -0.145-1.531-0.305-3.059-0.555-4.578 -0.459-2.79-0.952-5.573-1.361-8.371 -0.199-1.596-0.395-3.189-0.568-4.79 -0.156-1.465-0.297-2.93-0.438-4.395 -0.168-1.762-0.352-3.512-0.559-5.27 -0.199-1.66-0.31-3.32-0.41-4.988 -0.191-3.156-0.117-6.336-0.117-9.5 0-3.242 0.004-6.484 0.004-9.727 0-2.988 0-5.98 0.023-8.969 0.016-1.594 0.039-3.188 0.073-4.785 0.035-1.641 0.169-3.281 0.316-4.918 0.025-0.284-0.089-0.595-0.256-0.84 0.188-0.124 0.354-0.284 0.47-0.483 0.422-0.723 0.156-1.621-0.539-2.051 -3.664-2.285-7.316-4.586-10.883-7.023 -1.457-1-2.891-2.023-4.328-3.055 -0.621-0.445-1.262-0.863-1.891-1.293 -0.566-0.387-1.121-0.816-1.719-1.16 -1.273-0.734-2.535-1.508-3.832-2.207 -1.418-0.77-2.845-1.535-4.267-2.301 -1.242-0.668-2.488-1.34-3.758-1.957 -0.961-0.473-1.945-0.895-2.934-1.305 -0.277-0.117-0.562-0.214-0.843-0.318 0.226-0.133 0.453-0.265 0.67-0.408 0.262-0.168 0.535-0.418 0.695-0.691 0.184-0.312 0.219-0.664 0.238-1.02 0-0.27-0.066-0.52-0.203-0.754 -0.211-0.363-0.516-0.547-0.895-0.691 -0.354-0.132-0.699-0.193-1.051-0.193 -0.23 0-0.464 0.026-0.705 0.076 -0.496 0.098-0.98 0.227-1.461 0.383 -0.527 0.168-1.051 0.352-1.574 0.527 -0.773 0.262-1.535 0.527-2.293 0.832 -0.553 0.223-1.104 0.451-1.654 0.679 -0.75 0-1.501 0-2.251 0 -0.816 0-1.5 0.68-1.5 1.5 0 0.066 0.011 0.13 0.02 0.194 -0.521 0.25-1.042 0.5-1.544 0.778 -0.781 0.43-1.559 0.863-2.336 1.293 -0.742 0.414-1.473 0.844-2.207 1.266 -0.723 0.414-1.473 0.789-2.207 1.18 -0.711 0.375-1.457 0.688-2.184 1.02 -0.684 0.312-1.371 0.613-2.059 0.91 -1.441 0.625-2.902 1.227-4.332 1.891 -1.613 0.746-3.223 1.5-4.82 2.281 -1.367 0.672-2.719 1.383-4.086 2.062 -1.59 0.793-3.176 1.59-4.754 2.402 -0.617 0.32-1.234 0.637-1.844 0.965 -0.746 0.398-1.52 0.766-2.242 1.203 -1.603 0.97-3.203 1.945-4.82 2.888 -0.918 0.446-1.849 0.866-2.773 1.292 -0.234 0.108-0.43 0.334-0.561 0.578 -0.09 0.049-0.181 0.097-0.271 0.145 -1.477 0.781-2.965 1.535-4.453 2.289 -0.832 0.422-1.664 0.836-2.5 1.258 -0.75 0.375-1.473 0.828-2.203 1.246 -1.406 0.797-2.82 1.574-4.25 2.332 -1.383 0.734-2.828 1.352-4.184 2.133 -0.742 0.43-1.484 0.859-2.23 1.277 -0.418 0.234-0.836 0.469-1.254 0.711 -0.93 0.535-1.797 1.188-2.688 1.789 -0.332 0.223-0.578 0.5-0.688 0.895 -0.105 0.387-0.051 0.809 0.152 1.156 0.11 0.19 0.271 0.348 0.455 0.472 -0.093 0.135-0.159 0.288-0.19 0.456 -0.094 0.512-0.18 1.023-0.258 1.539 -0.082 0.539-0.199 1.09-0.242 1.633 -0.066 0.883-0.133 1.766-0.199 2.648 -0.062 0.809-0.059 1.621-0.082 2.43 -0.02 0.656-0.039 1.312-0.043 1.969 -0.043 3.504-0.047 7.008-0.098 10.508 -0.027 1.656-0.109 3.309-0.18 4.961 -0.062 1.445-0.09 2.895-0.129 4.34 -0.055 1.832-0.125 3.656-0.223 5.484 -0.078 1.457-0.141 2.918-0.168 4.379 -0.105 5.802-0.103 11.605-0.101 17.41 -0.108 0.205-0.175 0.435-0.175 0.679 0 1.021 0 2.035 0 3.056 0 0.952 0.066 1.905 0.132 2.858 0.017 0.223 0.023 0.447 0.034 0.671 0 0.229-0.002 0.46-0.001 0.689 0.012 0.007 0.024 0.014 0.037 0.021 0.016 0.439 0.031 0.88 0.056 1.318 0.07 1.12 0.062 2.245 0.066 3.37 0.004 0.816 0.681 1.5 1.5 1.5 0.816 0 1.504-0.684 1.5-1.5 -0.002-0.546-0.005-1.09-0.013-1.633 0.121 0.071 0.242 0.143 0.362 0.215 0.633 0.375 1.281 0.724 1.902 1.117 1.395 0.875 2.762 1.781 4.113 2.724 1.367 0.948 2.75 1.87 4.109 2.832 1.41 0.995 2.781 2.051 4.172 3.081 0.543 0.402 1.137 0.755 1.703 1.121 0.734 0.48 1.453 0.966 2.168 1.474 1.186 0.841 2.348 1.709 3.511 2.582 2.354 1.926 4.618 3.963 7.001 5.853 1.23 0.977 2.543 1.84 3.879 2.664 1.189 0.737 2.337 1.543 3.463 2.375 0.337 0.283 0.672 0.567 1.01 0.852 0.355 0.301 0.684 0.645 1.023 0.965 0.375 0.352 0.754 0.699 1.125 1.055 0.523 0.493 1.102 0.931 1.691 1.353 0.017 0.412 0.043 0.821 0.073 1.229 0.074 1.039 0.18 2.078 0.199 3.121 0.006 0.303-0.042 0.594-0.134 0.867h0.001c0.348 0.203 0.77 0.258 1.156 0.152 0.375-0.105 0.699-0.355 0.898-0.691 0.223-0.379 0.211-0.734 0.148-1.156 -0.07-0.489-0.147-0.979-0.222-1.468 0.268 0.005 0.539-0.033 0.788-0.171 1.402-0.762 2.801-1.527 4.188-2.324 0.598-0.344 1.168-0.758 1.746-1.133 0.582-0.383 1.191-0.719 1.773-1.094 1.18-0.758 2.383-1.496 3.512-2.324 1.199-0.882 2.379-1.785 3.551-2.703 0.613-0.453 1.215-0.938 1.852-1.355 0.359-0.238 0.723-0.473 1.086-0.711 0.297-0.194 0.586-0.41 0.895-0.582 0.495-0.274 0.985-0.553 1.479-0.824 0.131 0.172 0.297 0.321 0.464 0.418 0.348 0.203 0.77 0.259 1.156 0.152 0.375-0.101 0.699-0.354 0.895-0.688 0.219-0.375 0.223-0.742 0.152-1.156 -0.087-0.52-0.17-1.039-0.259-1.558 -0.077-0.57-0.16-1.14-0.212-1.712 0-0.002 0-0.004-0.001-0.006 -0.022 0.012-0.044 0.024-0.067 0.036 -0.053-0.324-0.112-0.648-0.162-0.974 -0.026-0.295-0.047-0.59-0.07-0.884 0.01-0.07 0.022-0.141 0.022-0.214 -0.004-3.733 0.074-7.495-0.211-11.227 -0.062-0.801-0.125-1.602-0.184-2.402 -0.055-0.78-0.023-1.569-0.023-2.352 -0.004-1.621-0.012-3.238-0.023-4.859 -0.012-1.625-0.07-3.254-0.152-4.878 -0.039-0.758-0.117-1.512-0.168-2.266 -0.055-0.801-0.074-1.598-0.078-2.398 0-1.572-0.008-3.144-0.039-4.715 0.057 0.273 0.187 0.53 0.399 0.73 0.742 0.703 1.492 1.398 2.227 2.109 0.273 0.262 0.539 0.52 0.82 0.773 0.59 0.52 1.215 1.008 1.855 1.457 1.122 0.789 2.291 1.5 3.396 2.311 1.164 0.985 2.277 2.023 3.439 3.014 0.609 0.516 1.211 1.039 1.828 1.547 0.59 0.484 1.133 1.023 1.707 1.531 1.258 1.109 2.484 2.238 3.835 3.234 0.646 0.477 1.306 0.934 2.009 1.315 0.733 0.401 1.461 0.812 2.163 1.272 0.215 0.14 0.419 0.291 0.621 0.446C124.629 127.315 124.844 127.515 125.07 127.702zM75.438 155.764c-0.363-0.336-0.707-0.699-1.086-1.02 -0.906-0.766-1.824-1.516-2.805-2.188 -0.969-0.664-1.953-1.31-2.953-1.927 -0.878-0.546-1.717-1.144-2.554-1.744 -0.539-0.426-1.081-0.846-1.603-1.292 -0.688-0.59-1.375-1.176-2.066-1.762 -1.246-1.059-2.461-2.16-3.766-3.141 -1.352-1.017-2.707-2.021-4.086-3 -1.289-0.914-2.66-1.707-3.934-2.652 -0.691-0.516-1.383-1.035-2.074-1.559 -0.652-0.496-1.324-0.961-1.992-1.435 -1.32-0.935-2.672-1.828-3.996-2.754 -1.305-0.906-2.629-1.771-3.973-2.617 -0.602-0.379-1.227-0.719-1.836-1.077 -0.671-0.391-1.338-0.79-2.004-1.189 -0.013-0.257-0.023-0.515-0.041-0.771 -0.07-0.961-0.14-1.922-0.14-2.887 0-0.029 0-0.059 0-0.089 0.053-0.097 0.105-0.192 0.174-0.285 0-0.009 0-0.019 0-0.026 0.004-6.771-0.023-13.543 0.094-20.312 0.023-1.457 0.07-2.914 0.148-4.367 0.098-1.797 0.18-3.59 0.23-5.387 0.047-1.609 0.09-3.219 0.141-4.828 0.051-1.488 0.156-2.973 0.176-4.461 0.043-2.996 0.051-5.992 0.082-8.988 0.02-1.617 0.043-3.23 0.094-4.848 0.02-0.617 0.023-1.238 0.07-1.855 0.059-0.797 0.121-1.594 0.18-2.391 0.129-0.828 0.25-1.652 0.398-2.469 0.037-0.194 0.051-0.379 0.036-0.561 0.996 0.269 1.983 0.55 2.94 0.934 1.836 0.824 3.477 1.965 5.139 3.081 0.918 0.615 1.829 1.237 2.744 1.859 0.651 0.522 1.304 1.044 1.959 1.566 0.59 0.473 1.141 0.992 1.707 1.5 1.121 1.004 2.219 2.035 3.297 3.09 1.293 1.27 2.594 2.531 3.891 3.793 1.16 1.129 2.406 2.172 3.637 3.223 1.911 1.633 3.96 3.102 5.983 4.584 1.255 0.982 2.486 1.995 3.759 2.955 0.285 0.211 0.57 0.426 0.859 0.633 0.309 0.223 0.695 0.426 1.055 0.535 0.281 0.085 0.565 0.116 0.848 0.115 -0.132 1.543-0.238 3.083-0.283 4.634 -0.043 1.656-0.055 3.312-0.094 4.965 -0.039 1.59-0.141 3.172-0.211 4.762 -0.07 1.652-0.125 3.305-0.148 4.957 -0.102 6.488-0.047 12.977-0.047 19.465 0 1.684 0 3.367 0 5.055 0 1.516 0.086 3.027 0.168 4.543 0.094 1.754 0.176 3.508 0.324 5.262 0.103 1.254 0.195 2.508 0.311 3.758 0.121 0.207 0.21 0.431 0.26 0.668 0.293 1.406 0.465 2.832 0.656 4.255 0.176 1.283 0.35 2.566 0.503 3.851C75.552 155.871 75.495 155.817 75.438 155.764zM74.645 86.62c-0.146 0.054-0.294 0.102-0.444 0.14 -0.431-0.227-0.821-0.53-1.208-0.829 -1.153-0.897-2.287-1.817-3.44-2.711 -1.186-0.921-2.415-1.791-3.621-2.688 -0.593-0.471-1.185-0.942-1.777-1.414 -0.641-0.508-1.25-1.066-1.871-1.598 -1.277-1.09-2.48-2.273-3.684-3.441 -1.074-1.043-2.137-2.102-3.223-3.137 -1.25-1.188-2.523-2.344-3.809-3.492 -0.324-0.289-0.684-0.547-1.02-0.816 -0.473-0.375-0.945-0.754-1.414-1.129 -0.863-0.688-1.812-1.27-2.723-1.891 -0.797-0.539-1.598-1.07-2.398-1.605 -0.918-0.613-1.875-1.168-2.871-1.637 -0.952-0.445-1.935-0.784-2.935-1.082 0.2-0.114 0.399-0.228 0.598-0.341 0.66-0.367 1.316-0.742 1.969-1.117 0.801-0.461 1.605-0.891 2.426-1.312 0.738-0.371 1.48-0.73 2.219-1.094 1.402-0.688 2.762-1.48 4.121-2.254 0.789-0.449 1.578-0.895 2.367-1.344 0.754-0.43 1.559-0.785 2.336-1.176 2.75-1.387 5.523-2.758 8.168-4.34 0.082-0.049 0.164-0.098 0.246-0.147 0.276-0.134 0.553-0.27 0.828-0.408 1.164-0.582 2.332-1.152 3.512-1.703 2.072-0.966 4.189-1.845 6.286-2.755 2.941-1.211 5.895-2.403 8.862-3.549 0.777-0.301 1.559-0.59 2.32-0.93 0.809-0.359 1.637-0.691 2.434-1.078 0.801-0.391 1.605-0.781 2.406-1.168 0.762-0.371 1.508-0.785 2.258-1.176 2.848-1.48 5.703-2.945 8.57-4.387 1.488-0.746 2.984-1.473 4.508-2.145 1.321-0.583 2.658-1.152 3.958-1.788 0.511 0.096 1.021 0.202 1.525 0.337 0.877 0.23 1.724 0.563 2.56 0.91 2.733 1.193 5.339 2.64 7.964 4.051 1.465 0.793 2.91 1.602 4.352 2.43 0.598 0.348 1.23 0.66 1.801 1.051 0.852 0.578 1.703 1.16 2.555 1.742 1.215 0.832 2.392 1.723 3.605 2.559 1.559 1.07 3.129 2.113 4.703 3.16 1.986 1.322 4.006 2.594 6.03 3.861 -0.129 0.033-0.255 0.082-0.376 0.149 -1.285 0.711-2.56 1.43-3.883 2.062 -0.685 0.328-1.375 0.653-2.052 0.996 -1.526 0.774-3.051 1.539-4.551 2.359 -0.707 0.383-1.397 0.793-2.094 1.199 -0.652 0.379-1.31 0.734-1.978 1.086 -0.652 0.344-1.305 0.696-1.969 1.012 -0.822 0.391-1.64 0.777-2.458 1.167 -0.017-0.019-0.022-0.042-0.04-0.061 -0.287-0.287-0.679-0.434-1.068-0.434 -0.385-0.002-0.77 0.14-1.051 0.431 -0.449 0.466-0.876 0.949-1.357 1.382 -0.555 0.404-1.105 0.807-1.648 1.228 -0.012 0.009-0.023 0.019-0.035 0.027 -0.04 0.024-0.073 0.058-0.11 0.085 -0.281 0.152-0.562 0.306-0.845 0.455 -0.917 0.488-1.832 0.984-2.75 1.477 -0.387 0.207-0.809 0.368-1.211 0.547 -0.455 0.202-0.911 0.405-1.364 0.61 -1.117 0.438-2.237 0.877-3.358 1.308 -0.379 0.145-0.684 0.328-0.895 0.688 -0.203 0.348-0.258 0.77-0.152 1.156 0.102 0.375 0.355 0.703 0.688 0.898 0.052 0.03 0.113 0.054 0.172 0.079 -0.087 0.057-0.17 0.119-0.258 0.173 -0.84 0.52-1.684 1.039-2.523 1.559 -0.664 0.41-1.367 0.766-2.051 1.141 -1.5 0.832-3 1.668-4.5 2.5 -0.641 0.355-1.27 0.734-1.906 1.105 -0.59 0.344-1.184 0.68-1.758 1.047 -0.828 0.531-1.656 1.062-2.48 1.598 -0.699 0.449-1.375 0.938-2.062 1.406 -1.395 0.957-2.762 1.949-4.133 2.938 -0.598 0.434-1.223 0.832-1.836 1.242 -0.582 0.391-1.16 0.785-1.746 1.164 -0.75 0.477-1.484 0.992-2.254 1.441 -0.738 0.434-1.477 0.867-2.215 1.301 -0.691 0.402-1.375 0.812-2.059 1.223C76.584 85.494 75.645 86.141 74.645 86.62zM122.936 122.715c-0.737-0.404-1.416-0.917-2.093-1.417 -1.125-0.925-2.226-1.878-3.294-2.864 -1.141-1.055-2.336-2.046-3.52-3.055 -1.289-1.098-2.504-2.285-3.855-3.305 -0.629-0.477-1.293-0.898-1.957-1.32 -0.596-0.385-1.176-0.794-1.746-1.216 -1.357-1.101-2.584-2.344-3.852-3.542 -0.301-0.283-0.689-0.431-1.077-0.431 -0.375 0.002-0.751 0.142-1.042 0.433 -0.245 0.245-0.383 0.572-0.419 0.908 -0.042-1.464-0.142-2.922-0.273-4.38 -0.023-0.297-0.051-0.59-0.078-0.883 -0.039-0.414-0.141-0.762-0.441-1.062 -0.277-0.281-0.664-0.438-1.059-0.438 -0.763 0-1.576 0.683-1.501 1.5 0.16 1.773 0.305 3.543 0.363 5.324 0.051 1.527 0.043 3.055 0.047 4.582 0.004 0.742-0.023 1.492 0.027 2.234 0.059 0.82 0.121 1.645 0.184 2.465 0.113 1.613 0.152 3.23 0.18 4.844 0.023 1.641 0.027 3.281 0.031 4.926 0 0.773-0.008 1.547 0.012 2.32 0.02 0.801 0.09 1.598 0.156 2.395 0.261 3.18 0.248 6.377 0.25 9.568 -0.065 0.166-0.104 0.345-0.105 0.532 -0.008 1.751 0.235 3.478 0.523 5.198 -0.162 0.083-0.327 0.162-0.485 0.251 -0.703 0.391-1.434 0.75-2.105 1.188 -0.68 0.448-1.375 0.875-2.031 1.354 -0.656 0.479-1.32 0.944-1.957 1.448 -0.512 0.398-1.02 0.802-1.527 1.199 -1.012 0.742-2.027 1.473-3.062 2.176 -0.984 0.672-2 1.297-3.012 1.918 -0.977 0.605-1.918 1.27-2.914 1.844 -0.753 0.431-1.515 0.842-2.274 1.258 -0.336-0.244-0.671-0.488-1.008-0.73 -0.005-0.303-0.007-0.605-0.013-0.908 -0.031-1.508-0.102-3.023-0.27-4.527 -0.176-1.598-0.328-3.195-0.5-4.797 -0.172-1.633-0.273-3.273-0.41-4.914 -0.133-1.621-0.199-3.25-0.285-4.879 -0.043-0.777-0.109-1.555-0.121-2.332 -0.02-0.875-0.035-1.746-0.035-2.617 0-3.254 0-6.508 0-9.762 0-6.562-0.066-13.133 0.223-19.695 0.047-1.02 0.129-2.043 0.156-3.066 0.031-1.266 0.062-2.531 0.078-3.801 0.016-1.129 0.016-2.266 0.078-3.395 0.07-1.375 0.172-2.738 0.297-4.109 0.014-0.154-0.021-0.314-0.075-0.469 0.097-0.059 0.194-0.117 0.29-0.175 0.457-0.277 0.918-0.555 1.375-0.832 1.426-0.863 2.867-1.703 4.305-2.547 0.691-0.406 1.359-0.859 2.031-1.289 0.574-0.367 1.137-0.738 1.699-1.117 0.727-0.488 1.473-0.953 2.18-1.465 0.758-0.551 1.523-1.098 2.285-1.648 1.309-0.945 2.652-1.844 3.988-2.762 0.695-0.477 1.422-0.914 2.133-1.367 0.551-0.355 1.105-0.695 1.672-1.023 1.57-0.914 3.145-1.809 4.734-2.691 1.355-0.75 2.711-1.504 4.07-2.258 0.703-0.387 1.375-0.848 2.062-1.27 0.621-0.383 1.215-0.789 1.816-1.203 2.589-1.791 5.094-3.708 7.579-5.648 -0.008 0.005-0.014 0.01-0.021 0.016 0.341-0.263 0.681-0.526 1.021-0.789 0.054-0.033 0.099-0.073 0.146-0.111 0.671-0.355 1.343-0.71 2.011-1.063 0.73-0.386 1.484-0.727 2.224-1.086 0.612-0.3 1.223-0.594 1.84-0.887 0.737-0.347 1.496-0.676 2.219-1.055 1.246-0.652 2.492-1.296 3.703-2.008 1.104-0.648 2.215-1.297 3.354-1.875 1.211-0.609 2.414-1.234 3.629-1.828 0.574-0.281 1.148-0.555 1.724-0.828 1-0.48 1.967-1.02 2.936-1.559 -0.104 1.294-0.193 2.589-0.22 3.89 -0.039 1.805-0.062 3.609-0.074 5.418 -0.026 3.121-0.02 6.246-0.02 9.371 0 3.379-0.004 6.754-0.004 10.129 0 1.496-0.012 2.988 0.016 4.484 0.016 0.812-0.004 1.637 0.047 2.449 0.062 0.988 0.121 1.98 0.185 2.969 0.047 0.793 0.147 1.582 0.227 2.371 0.078 0.797 0.181 1.59 0.273 2.387 0.18 1.492 0.297 2.988 0.444 4.484 0.34 3.492 0.715 6.977 1.234 10.445 0.372 2.504 0.826 5 1.241 7.496 0.14 1.152 0.263 2.301 0.368 3.457 0.055 0.566 0.121 1.129 0.18 1.695 0.001 0.007 0.002 0.013 0.002 0.02 -0.184-0.186-0.396-0.341-0.65-0.412 -0.129-0.035-0.272-0.056-0.418-0.056 -0.264 0.002-0.537 0.063-0.736 0.209 -0.875 0.629-1.723 1.301-2.664 1.832 -0.375 0.211-0.758 0.406-1.141 0.609 -0.681 0.355-1.379 0.68-2.056 1.051 -0.729 0.398-1.444 0.82-2.16 1.246 -0.641 0.383-1.297 0.738-1.952 1.098 -1.449 0.801-2.855 1.672-4.25 2.565 -0.526 0.339-1.072 0.638-1.625 0.925 -0.067-0.125-0.149-0.243-0.26-0.343 -0.68-0.603-1.367-1.201-2.062-1.79 0.001-6.214 0.004-12.425 0-18.639 0-3.105 0.009-6.211-0.043-9.316 -0.026-1.52-0.104-3.031-0.254-4.547 -0.073-0.754-0.19-1.523-0.344-2.266 -0.215-1.07-0.434-2.141-0.664-3.211 -0.145-0.664-0.812-1.094-1.469-1.094 -0.124 0.001-0.253 0.016-0.374 0.047 -0.074 0.021-0.126 0.069-0.193 0.099 -0.013-0.223-0.07-0.448-0.194-0.659 -0.271-0.461-0.797-0.745-1.322-0.745 -0.256 0-0.509 0.066-0.734 0.209 -1.102 0.704-2.19 1.422-3.297 2.121 -0.59 0.375-1.215 0.699-1.828 1.036 -1.297 0.71-2.625 1.355-3.93 2.043 -1.266 0.664-2.496 1.402-3.738 2.105 -1.273 0.715-2.595 1.337-3.914 1.957 -0.467 0.191-0.933 0.391-1.414 0.543 -0.922 0.297-1.848 0.594-2.777 0.879 -0.781 0.239-1.27 1.04-1.047 1.848 0.211 0.769 1.062 1.285 1.844 1.047 0.992-0.305 1.98-0.621 2.965-0.941 0.422-0.133 0.832-0.329 1.246-0.492 0.461-0.184 0.906-0.391 1.355-0.602 1.484-0.699 2.926-1.465 4.352-2.27 1.371-0.778 2.73-1.562 4.145-2.262 1.434-0.711 2.844-1.473 4.227-2.281 0.305-0.176 0.594-0.379 0.887-0.574 0.762-0.511 1.54-0.992 2.311-1.482 0.005 0.089-0.009 0.176 0.011 0.265 0.219 1.016 0.422 2.031 0.629 3.051 0.108 0.527 0.185 1.059 0.267 1.59 0.078 0.797 0.145 1.594 0.188 2.391 0.035 0.73 0.059 1.465 0.07 2.195 0.027 1.656 0.035 3.312 0.039 4.965 0.008 3.191 0.004 6.383 0.004 9.574 0 3.693 0 7.386 0 11.078C124.374 123.52 123.663 123.113 122.936 122.715z"/></g></svg>