<svg xmlns="http://www.w3.org/2000/svg" version="1.1" x="0px" y="0px" width="233px" height="229px" viewBox="0 0 233 229" enable-background="new 0 0 233 229" xml:space="preserve"><path fill="#6DA8C2" d="M199.781 162.242c-0.208-0.256-0.416-0.512-0.623-0.768 -1.654-2.34-3.241-4.725-4.822-7.109 0.629-0.409 0.945-1.37 0.488-2.025 -0.48-0.688-1.006-1.332-1.536-1.98 -1.039-1.354-2.088-2.697-3.136-4.049 -3.891-5.153-7.678-10.396-11.321-15.73 -0.534-0.936-1.067-1.866-1.603-2.803 -0.871-1.524-1.721-3.067-2.561-4.614 -0.318-0.59-1.062-0.863-1.693-0.688 -0.375 0.104-0.699 0.354-0.896 0.688 -0.221 0.371-0.229 0.746-0.152 1.153 0.092 0.492 0.17 0.968 0.338 1.438 0.197 0.548 0.439 1.086 0.685 1.617 0.28 0.606 0.595 1.198 0.921 1.784 -0.316-0.033-0.643 0.033-0.921 0.195 -0.187 0.108-0.349 0.265-0.474 0.443 -0.008-0.01-0.015-0.021-0.021-0.029 -0.285-0.444-0.582-0.889-0.854-1.346 -0.918-1.547-1.812-3.104-2.729-4.65 -0.271-0.453-0.539-0.905-0.811-1.358 -0.273-0.463-0.774-0.74-1.299-0.74 -0.127 0.001-0.26 0.019-0.39 0.054 -0.754 0.207-1.312 1.07-1.051 1.844 0.176 0.515 0.336 1.027 0.522 1.535 0.205 0.562 0.469 1.113 0.723 1.656 0.175 0.377 0.354 0.752 0.541 1.123 -0.449-0.408-1.217-0.419-1.717-0.127 -0.094 0.055-0.179 0.117-0.252 0.186 -0.424-0.625-0.832-1.26-1.248-1.889 -0.449-0.68-1.315-0.969-2.053-0.539 -0.697 0.41-0.961 1.354-0.537 2.055 0.814 1.355 1.559 2.777 2.482 4.066 0.418 0.586 0.833 1.168 1.25 1.749 -0.289-0.003-0.578 0.067-0.811 0.201 -0.223 0.133-0.399 0.312-0.535 0.539 -0.188 0.312-0.293 0.801-0.149 1.155 0.229 0.56 0.437 1.13 0.672 1.685 0.229 0.521 0.483 1.021 0.75 1.517s0.546 0.983 0.833 1.47c-0.059-0.069-0.113-0.14-0.173-0.207 -0.562-0.665-1.119-1.33-1.679-2 -0.896-1.179-1.795-2.351-2.688-3.524 -0.508-0.668-1.016-1.33-1.521-1.994 -0.824-1.082-1.719-2.109-2.594-3.152 -0.429-0.512-1.273-0.555-1.816-0.237 -0.336 0.199-0.586 0.522-0.691 0.897 -0.113 0.414-0.027 0.781 0.152 1.156 0.238 0.494 0.461 0.994 0.73 1.479 0.27 0.479 0.582 0.93 0.891 1.383 0.298 0.438 0.604 0.875 0.918 1.309 0.033 0.17 0.096 0.338 0.172 0.514 0.184 0.402 0.352 0.812 0.543 1.212 0.191 0.413 0.43 0.81 0.656 1.202 0.199 0.347 0.406 0.688 0.615 1.022 -0.646-0.733-1.287-1.472-1.935-2.208 -0.438-0.504-1.267-0.559-1.813-0.232 -0.672 0.392-1 1.375-0.539 2.052 0.603 0.892 1.185 1.799 1.793 2.688 -0.453 0.239-0.825 0.728-0.813 1.244 -0.596-0.836-1.198-1.664-1.804-2.492 -0.238-0.328-0.488-0.574-0.895-0.688 -0.39-0.104-0.812-0.051-1.156 0.151 -0.682 0.396-0.984 1.367-0.539 2.052 0.301 0.457 0.586 0.926 0.918 1.358 0.297 0.383 0.59 0.767 0.883 1.146 0.055 0.07 0.109 0.143 0.164 0.213 0.128 0.184 0.256 0.365 0.383 0.549 0.637 0.914 1.27 1.832 1.902 2.746 0.453 0.652 0.887 1.32 1.328 1.979 0.266 0.397 0.529 0.799 0.801 1.195 0.271 0.406 0.56 0.807 0.828 1.217 -0.194 0.021-0.385 0.08-0.57 0.188 -0.336 0.195-0.586 0.521-0.691 0.896 -0.203 0.742 0.246 1.688 1.047 1.846 0.461 0.09 0.91 0.254 1.367 0.354 0.613 0.137 1.414 0.232 1.957-0.174 0.084-0.049 0.16-0.104 0.23-0.165 0.271 0.331 0.549 0.662 0.824 0.993 0.654 0.793 1.356 1.525 2.068 2.271 0.467 0.483 1.245 0.565 1.815 0.233 0.711-0.414 0.946-1.344 0.538-2.055 -0.49-0.851-1.004-1.687-1.521-2.519 0.563 0.582 1.134 1.162 1.692 1.748 0.662 0.69 1.326 1.383 1.99 2.073 0.91 0.945 1.847 1.868 2.752 2.812 0.582 0.676 1.164 1.352 1.744 2.027 0.436 0.508 1.271 0.559 1.819 0.233 0.668-0.392 0.996-1.375 0.539-2.052 -0.53-0.775-1.166-1.478-1.812-2.154 -0.465-0.544-0.936-1.087-1.409-1.623 -0.71-0.798-1.419-1.596-2.128-2.395 0.134-0.033 0.265-0.086 0.386-0.156 0.339-0.199 0.569-0.521 0.675-0.879 0.807 0.947 1.612 1.896 2.438 2.826 0.496 0.561 1.006 1.104 1.521 1.646 0.582 0.604 1.19 1.149 1.832 1.692 0.188 0.187 0.409 0.312 0.663 0.386 0.388 0.106 0.81 0.055 1.156-0.146 0.077-0.046 0.147-0.099 0.213-0.152 0.005-0.002 0.009-0.006 0.015-0.008 0.737-0.437 0.901-1.32 0.539-2.052 -0.216-0.432-0.406-0.858-0.656-1.271 -0.289-0.471-0.656-0.902-1.004-1.328 -0.236-0.288-0.479-0.571-0.723-0.854 -0.746-1.232-1.499-2.464-2.261-3.688 0.321 0.366 0.647 0.729 0.985 1.08 1.551 1.61 3.104 3.223 4.658 4.836 0.621 0.646 1.246 1.289 1.867 1.937 0.312 0.321 0.646 0.629 0.982 0.938 0.98 0.895 1.996 1.746 2.988 2.629 0.508 0.449 1.211 0.59 1.819 0.234 0.496-0.293 0.794-0.871 0.737-1.441 0.199 0.287 0.408 0.566 0.617 0.848 0.242 0.328 0.482 0.578 0.896 0.691 0.388 0.105 0.81 0.051 1.155-0.152 0.66-0.387 1.014-1.383 0.539-2.051 -0.279-0.396-0.56-0.795-0.838-1.191 -0.676-1.006-1.303-2.045-1.961-3.062 -0.605-0.935-1.215-1.867-1.82-2.801 -0.12-0.188-0.238-0.372-0.357-0.562 3.086 3.898 6.186 7.791 9.32 11.649 0.064 0.081 0.131 0.163 0.197 0.242 0.238 0.289 0.699 0.438 1.059 0.438 0.398 0 0.781-0.159 1.062-0.438 0.281-0.28 0.438-0.663 0.438-1.062C200.219 162.871 200.043 162.562 199.781 162.242zM148.186 141.993c-0.142-0.216-0.302-0.418-0.461-0.617 -0.927-1.242-1.867-2.469-2.82-3.681 -0.086-0.163-0.197-0.301-0.34-0.426 -0.431-0.543-0.861-1.086-1.301-1.625 -1.38-1.69-2.945-3.211-4.406-4.828 0.682 0.479 1.379 0.938 2.104 1.341 0.375 0.254 0.793 0.5 1.229 0.598 0.66 0.156 1.344-0.09 1.693-0.688 0.389-0.664 0.199-1.692-0.539-2.051 -0.266-0.125-0.529-0.262-0.787-0.406 -0.217-0.137-0.424-0.282-0.631-0.438 -0.361-0.25-0.723-0.508-1.072-0.773 -1.6-1.27-2.979-2.783-4.233-4.387 -1.47-1.934-2.771-4.004-3.867-6.176 -0.323-1.129-0.569-2.277-0.733-3.441 -0.013-0.098-0.021-0.195-0.035-0.293 -0.058 1.142-0.11 2.278-0.209 3.416 -0.068 0.819-0.279 1.522-0.879 2.121 -0.181 0.18-0.383 0.336-0.603 0.465 0 0.832 0 1.664-0.004 2.496 0.276 0.646 0.569 1.284 0.875 1.918 1 2.078 2.181 4.078 3.539 5.94 0.737 1.012 1.551 1.965 2.397 2.883 -0.574-0.354-1.139-0.729-1.682-1.141 -0.332-0.267-0.654-0.539-0.979-0.82 -0.34-0.414-0.672-0.832-1-1.25 -0.594-0.78-1.164-1.577-1.707-2.392 -0.049 0.754-0.133 1.505-0.146 2.259 -0.004 0.633-0.008 1.271-0.004 1.905 0 0.168 0 0.336 0 0.505 0 0.136-0.01 0.27-0.028 0.401 0.2 0.188 0.401 0.373 0.606 0.555 0.06 0.056 0.116 0.104 0.176 0.16 0.918 1.111 1.875 2.193 2.875 3.232 1.147 1.195 2.397 2.281 3.69 3.324 1.238 0.996 2.496 1.969 3.816 2.854 0.637 0.432 1.254 0.887 1.926 1.254 0.328 0.182 0.688 0.312 1.039 0.432 0.431 0.141 0.914 0.09 1.357 0.086 0.961-0.01 1.721-0.953 1.445-1.896C148.416 142.551 148.33 142.219 148.186 141.993zM149.848 128.619c-0.211-0.207-0.396-0.445-0.595-0.668 -0.44-0.504-0.887-1.012-1.328-1.516 -0.034-0.039-0.069-0.082-0.108-0.125 0.863 0.422 1.785 0.688 2.742 0.793 0.698 0.078 1.354-0.269 1.811-0.765 0.188-0.185 0.314-0.403 0.387-0.657 0.1-0.354 0.078-0.854-0.15-1.156 -0.16-0.215-0.324-0.433-0.496-0.637 -0.112-0.14-0.289-0.261-0.418-0.382 -0.155-0.146-0.312-0.289-0.469-0.438 -0.217-0.197-0.432-0.396-0.646-0.594 0.18-0.267 0.266-0.607 0.244-0.939 0.652-0.289 1.061-1.078 0.854-1.789 -0.09-0.314-0.227-0.629-0.461-0.863 -0.012-0.012-0.022-0.021-0.034-0.033 0.062-0.018 0.125-0.031 0.188-0.053 0.772-0.207 1.28-1.064 1.047-1.844 -0.103-0.336-0.237-0.682-0.492-0.932 -0.258-0.258-0.577-0.4-0.909-0.535 -0.768-0.35-1.539-0.689-2.306-1.043 0.01-0.292-0.03-0.576-0.194-0.856 -0.203-0.344-0.509-0.57-0.824-0.789 -0.073-0.062-0.15-0.125-0.224-0.188 -0.353-0.289-0.651-0.629-0.934-0.984 -0.289-0.391-0.548-0.793-0.777-1.211 -0.569-0.039-1.142-0.102-1.707-0.211 -0.37-0.069-0.729-0.165-1.087-0.27 -0.378-0.112-0.75-0.24-1.119-0.378 -0.019-0.006-0.035-0.013-0.054-0.02 -0.381-0.144-0.761-0.297-1.14-0.454 -1.312-0.539-2.59-1.105-3.789-1.871 -0.676-0.43-1.344-0.879-2.029-1.285 -0.396-0.235-0.793-0.476-1.186-0.725 -0.018-0.01-0.031-0.021-0.047-0.032 -0.348-0.221-0.687-0.452-1.018-0.693 -0.579-0.421-1.135-0.873-1.623-1.39 -0.352-0.369-0.689-0.745-1.01-1.138 -0.004 0.139-0.008 0.279-0.01 0.419 -0.021 0.711-0.022 1.426-0.086 2.133 -0.027 0.31-0.062 0.618-0.104 0.925 0.152 0.06 0.3 0.129 0.434 0.208 0.986 0.59 1.498 1.515 1.736 2.551 0 0.004-0.001 0.008-0.001 0.013 0.082 0.363 0.133 0.742 0.16 1.125 0.045 0.675 0.063 1.356 0.045 2.032 -0.004 0.16 0.001 0.32-0.011 0.479 -0.012 0.148-0.021 0.297-0.029 0.449 0.029 0.082 0.061 0.164 0.09 0.246 0.039 0.117 0.086 0.234 0.129 0.352 0.01 0.048 0.021 0.095 0.03 0.143 0.173 1.12 0.381 2.232 0.685 3.329 0.426 1.551 1.029 3.056 1.767 4.486 1.37 2.678 3.487 4.896 5.819 6.75 1.203 0.957 2.478 1.797 3.779 2.604 0.6 0.371 1.199 0.728 1.836 1.031 0.354 0.168 0.721 0.314 1.092 0.439 0.422 0.146 0.883 0.197 1.314 0.297 0.646 0.146 1.361-0.082 1.693-0.688 0.256-0.47 0.449-0.978 0.303-1.517C150.491 129.287 150.18 128.951 149.848 128.619zM95.569 154.895c-1.262-0.973-2.598-1.852-3.922-2.731 -0.102-0.065-0.204-0.138-0.306-0.204 0.222-0.189 0.394-0.45 0.462-0.729 0.062-0.258 0.102-0.514 0.102-0.772 0-0.479-0.227-0.828-0.535-1.168 -0.009-0.011-0.018-0.019-0.027-0.028 -0.124-0.207-0.298-0.383-0.52-0.503 -0.629-0.344-1.281-0.659-1.891-1.047 -0.383-0.241-0.766-0.483-1.148-0.728 -0.777-0.496-1.555-0.987-2.336-1.479 -0.676-0.43-1.367-0.836-2.055-1.254 -0.684-0.414-1.359-0.849-2.051-1.25 -1.052-0.61-2.107-1.213-3.162-1.817 -0.332-0.244-0.663-0.488-0.994-0.73 -1.289-0.953-2.57-1.918-3.848-2.885 -0.625-0.471-1.252-0.941-1.874-1.414 -1.622-1.295-3.246-2.584-4.837-3.912 -0.316-0.268-0.637-0.441-1.062-0.441 -0.324 0-0.64 0.108-0.899 0.305 -0.171-0.15-0.341-0.305-0.511-0.455 -0.31-0.279-0.701-0.433-1.089-0.433 -0.37-0.001-0.738 0.138-1.031 0.433 -0.211 0.211-0.347 0.479-0.405 0.767 -0.229 0.013-0.457 0.077-0.666 0.198 -0.609 0.357-0.816 1.025-0.688 1.693 0.036 0.184 0.066 0.363 0.097 0.547 -0.374-0.092-0.783-0.035-1.116 0.16 -0.59 0.35-0.855 1.039-0.691 1.694 0.199 0.797 0.328 1.59 0.652 2.354 0.047 0.109 0.097 0.223 0.148 0.332 -0.48-0.353-1.129-0.406-1.656-0.101 -0.025 0.017-0.049 0.03-0.072 0.045 -0.89-0.827-1.781-1.653-2.674-2.481 -0.594-0.551-1.141-1.151-1.703-1.733 -0.57-0.586-1.551-0.569-2.121 0 -0.281 0.28-0.438 0.664-0.438 1.062 0 0.422 0.172 0.746 0.438 1.062 0.801 0.946 1.602 1.896 2.438 2.812 0.271 0.299 0.543 0.599 0.816 0.896 -0.407 0.582-0.352 1.407 0.165 1.924 0.559 0.557 1.098 1.139 1.684 1.664 0.348 0.305 0.691 0.612 1.039 0.922 0.664 0.59 1.324 1.186 1.992 1.772 0.342 0.305 0.688 0.604 1.036 0.903 -0.129-0.017-0.26-0.02-0.39-0.01 -0.565-0.492-1.131-0.984-1.696-1.477 -1.07-0.932-2.129-1.867-3.215-2.781 -0.316-0.266-0.637-0.441-1.062-0.441 -0.32 0-0.648 0.111-0.91 0.308 -0.587-0.625-1.166-1.261-1.727-1.907 -0.539-0.621-1.578-0.547-2.125 0 -0.277 0.275-0.438 0.664-0.438 1.061 0 0.426 0.172 0.75 0.438 1.062 0.886 1.041 1.778 2.075 2.675 3.104 -0.083-0.057-0.167-0.111-0.25-0.168 -0.871-0.595-1.75-1.177-2.613-1.781 -0.93-0.646-1.859-1.293-2.836-1.871 -0.559-0.327-1.137-0.621-1.734-0.865 -0.578-0.242-1.191-0.371-1.793-0.544 -0.648-0.185-1.355 0.112-1.695 0.69 -0.316 0.539-0.277 1.392 0.234 1.815 0.969 0.806 1.926 1.613 2.918 2.383 0.922 0.712 1.84 1.427 2.762 2.142 0.109 0.086 0.219 0.17 0.329 0.254 -0.436-0.18-0.886-0.307-1.333-0.457 -0.496-0.172-1.098 0.023-1.457 0.385 -0.188 0.188-0.316 0.408-0.387 0.663 -0.094 0.349-0.078 0.854 0.152 1.155 0.656 0.854 1.281 1.707 2.035 2.479 0.185 0.189 0.375 0.378 0.567 0.562 -0.073-0.062-0.146-0.119-0.219-0.182 -0.887-0.728-1.773-1.443-2.68-2.141 -0.441-0.342-0.883-0.673-1.332-0.996 -0.512-0.371-1.055-0.695-1.586-1.035 -0.562-0.367-1.355-0.229-1.816 0.233 -0.547 0.548-0.617 1.581 0 2.12 1.402 1.211 2.867 2.346 4.309 3.514 0.897 0.727 1.797 1.447 2.688 2.184 -0.215-0.105-0.438-0.203-0.661-0.287 -0.371-0.139-0.73-0.195-1.125-0.238 -0.071 0-0.142 0.002-0.211 0.008 -0.001-0.002-0.002-0.002-0.003-0.004 -0.957-0.84-1.883-1.723-2.859-2.539 -0.43-0.357-0.875-0.702-1.34-1.016 -0.418-0.277-0.859-0.518-1.285-0.781 -0.574-0.354-1.352-0.233-1.82 0.232 -0.484 0.488-0.559 1.229-0.234 1.82 0.27 0.489 0.523 0.987 0.787 1.479 -0.114 0.1-0.222 0.203-0.334 0.306 -0.284 0.263-0.424 0.625-0.435 0.991 -0.068 0.05-0.134 0.104-0.194 0.164 -0.277 0.276-0.438 0.664-0.438 1.061 0 0.174 0.029 0.328 0.08 0.473 -0.194-0.033-0.393-0.029-0.607 0.027 -0.429 0.119-0.777 0.428-0.962 0.821 -0.242-0.189-0.484-0.382-0.726-0.571 -0.59-0.466-1.18-0.936-1.77-1.396 -0.855-0.682-1.742-1.32-2.625-1.975 -0.535-0.396-1.379-0.203-1.816 0.233 -0.578 0.577-0.574 1.543 0 2.12 0.582 0.586 1.145 1.203 1.766 1.746 0.43 0.375 0.859 0.754 1.289 1.125 0.323 0.281 0.642 0.568 0.962 0.854 -0.082 0.47 0.043 0.974 0.413 1.306 0.383 0.349 0.758 0.698 1.156 1.026 0.453 0.37 0.93 0.719 1.398 1.069 0.719 0.531 1.454 1.039 2.192 1.541 0.012 0.012 0.024 0.021 0.036 0.033 0.134 0.325 0.269 0.652 0.409 0.979 -0.983-0.864-1.979-1.719-2.964-2.58 -1.168-1.021-2.34-2.039-3.512-3.057 -0.332-0.293-0.668-0.582-1-0.875 -0.496-0.435-0.973-0.887-1.484-1.305 -0.539-0.445-1.121-0.82-1.707-1.203 -0.438-0.289-1.066-0.259-1.512 0 -0.582 0.34-0.867 1.047-0.691 1.694 0.141 0.509 0.246 1.009 0.465 1.496 0.199 0.449 0.465 0.854 0.75 1.258 0.016 0.021 0.032 0.044 0.048 0.066 -0.006 0.267 0.059 0.532 0.209 0.758 0.242 0.362 0.469 0.729 0.715 1.09 0.285 0.419 0.618 0.808 0.96 1.179 -0.024 0.014-0.049 0.026-0.074 0.041 -0.28 0.159-0.5 0.42-0.625 0.715 -0.089-0.092-0.178-0.184-0.266-0.271 -0.551-0.557-1.07-1.139-1.621-1.695 -0.52-0.524-1.082-1.063-1.723-1.442 -0.578-0.351-1.344-0.242-1.816 0.231 -0.281 0.277-0.438 0.664-0.438 1.062 0 0.426 0.172 0.745 0.438 1.062 0.009 0.012 0.019 0.022 0.028 0.033 -0.063 0.034-0.126 0.071-0.188 0.109 -0.48 0.312-0.828 0.738-1.035 1.271 -0.144 0.356-0.147 0.764-0.074 1.147 -0.675-0.414-1.384-0.759-2.137-1.026 -0.523-0.186-1.055-0.15-1.598-0.129 -0.535 0.021-1.02 0.271-1.297 0.741 -0.133 0.233-0.203 0.483-0.203 0.759 0 0.43 0.18 0.732 0.441 1.059 0.45 0.562 0.906 1.119 1.365 1.674 -0.255-0.141-0.544-0.199-0.83-0.182 -0.107-0.023-0.218-0.037-0.332-0.039 -0.398 0-0.781 0.16-1.062 0.44 -0.277 0.28-0.438 0.664-0.438 1.06 0 0.432 0.176 0.742 0.438 1.062 0.688 0.841 1.371 1.668 2.117 2.457 0.859 0.906 1.754 1.773 2.645 2.646 0.523 0.509 1.062 0.992 1.594 1.488 1.141 1.071 2.281 2.146 3.426 3.215 0.307 0.288 0.615 0.572 0.924 0.856 0.203 0.224 0.405 0.443 0.607 0.664 0.469 0.514 0.984 0.988 1.473 1.48 0.777 0.781 1.555 1.566 2.332 2.348 0.301 0.306 0.605 0.609 0.902 0.918 0.418 0.431 0.824 0.867 1.254 1.277 0.184 0.176 0.379 0.336 0.574 0.496 0.258 0.207 0.535 0.449 0.84 0.586 0.234 0.133 0.484 0.203 0.754 0.203 0.398 0 0.781-0.16 1.062-0.438 0.578-0.578 0.578-1.549 0-2.125 -0.723-0.724-1.444-1.447-2.166-2.174 0.022-0.117 0.027-0.23 0.019-0.346 0.031 0.016 0.061 0.028 0.092 0.044 0.613 0.297 1.312 0.271 1.816-0.231 0.59-0.592 0.562-1.527 0-2.121 -0.389-0.412-0.771-0.84-1.182-1.229 0.193-0.136 0.357-0.312 0.463-0.493 0.001-0.002 0.001-0.003 0.003-0.005 0.927 0.819 1.845 1.653 2.767 2.481 0.469 0.422 0.938 0.84 1.406 1.263 0.652 0.582 1.309 1.168 1.996 1.715 0.371 0.298 0.754 0.578 1.152 0.841 0.445 0.289 0.965 0.469 1.449 0.688 0.234 0.137 0.484 0.203 0.758 0.203 0.395 0 0.777-0.156 1.059-0.438 0.282-0.282 0.441-0.663 0.441-1.062 0-0.252-0.062-0.463-0.167-0.659 0.565 0.319 1.313 0.192 1.769-0.263 0.281-0.277 0.441-0.664 0.441-1.062 0-0.422-0.172-0.754-0.441-1.062 -0.91-1.043-1.809-2.104-2.75-3.125 -0.504-0.547-1.007-1.096-1.511-1.644 0.099 0.075 0.199 0.148 0.3 0.222 0.445 0.322 0.996 0.478 1.508 0.668 0.625 0.229 1.375-0.147 1.695-0.69 0.272-0.466 0.259-1.015 0.018-1.468 0.144 0.115 0.308 0.199 0.48 0.252 0.914 0.75 1.837 1.492 2.764 2.229 0.504 0.402 1.004 0.807 1.508 1.203 0.625 0.496 1.227 1.014 1.863 1.496 0.328 0.246 0.68 0.453 1.055 0.621 0.512 0.229 1.039 0.344 1.578 0.491 0.512 0.146 1.082-0.009 1.457-0.384 0.445-0.443 0.621-1.271 0.234-1.818 -0.59-0.832-1.152-1.682-1.738-2.514 -0.386-0.551-0.79-1.09-1.208-1.616 0.55 0.452 1.117 0.886 1.705 1.284 0.461 0.312 0.938 0.565 1.449 0.777 0.547 0.229 1.117 0.401 1.672 0.612 0.488 0.185 1.105-0.035 1.457-0.388 0.469-0.469 0.586-1.241 0.234-1.815 -0.246-0.401-0.477-0.812-0.75-1.203 -0.32-0.461-0.691-0.891-1.062-1.315 -0.348-0.396-0.695-0.793-1.039-1.189 -0.014-0.017-0.029-0.033-0.043-0.05 0.052-0.062 0.098-0.128 0.141-0.2 0.219-0.371 0.227-0.746 0.152-1.154 -0.043-0.229-0.078-0.44-0.156-0.66 -0.102-0.285-0.23-0.51-0.398-0.75 -0.301-0.436-0.672-0.811-1.051-1.182 -0.052-0.051-0.103-0.103-0.154-0.154 0.018-0.047 0.034-0.097 0.048-0.146 0.358-0.871-0.022-1.743-0.586-2.456 0.75 0.604 1.503 1.203 2.262 1.796 1.105 0.867 2.227 1.711 3.395 2.496 1.098 0.737 2.289 1.297 3.457 1.918 0.598 0.319 1.324 0.258 1.816-0.232 0.281-0.281 0.438-0.664 0.438-1.061 0-0.436-0.176-0.736-0.438-1.062 -0.387-0.479-0.75-0.979-1.176-1.422 -0.174-0.186-0.35-0.369-0.526-0.554 -0.058-0.097-0.126-0.188-0.205-0.274 -0.642-0.7-1.241-1.412-1.956-2.034 -0.038-0.041-0.075-0.084-0.113-0.125 0.208 0.18 0.416 0.356 0.627 0.534 1.584 1.332 3.179 2.648 4.746 4 0.635 0.58 1.275 1.149 1.934 1.707 0.312 0.267 0.637 0.439 1.059 0.439 0.398 0 0.781-0.16 1.062-0.439 0.555-0.557 0.605-1.569 0-2.121 -0.648-0.586-1.304-1.159-1.966-1.729 -0.914-0.834-1.808-1.689-2.696-2.554 -0.002-0.126-0.024-0.252-0.068-0.374 -0.091-0.252-0.175-0.51-0.271-0.76 0.453 0.291 0.915 0.562 1.381 0.837 0.402 0.233 0.886 0.261 1.304 0.101 0.438 0.34 0.877 0.678 1.313 1.02 0.332 0.259 0.625 0.439 1.062 0.439 0.395 0 0.781-0.16 1.059-0.439 0.555-0.551 0.613-1.578 0-2.121 -0.394-0.35-0.792-0.691-1.174-1.053 0.039 0.004 0.078 0.006 0.119 0.006 0.395 0 0.781-0.16 1.059-0.438 0.281-0.28 0.441-0.664 0.441-1.062 0-0.4-0.159-0.713-0.402-1.014 0.018 0.018 0.036 0.031 0.055 0.049 0.312 0.267 0.641 0.438 1.062 0.438 0.395 0 0.777-0.16 1.059-0.438 0.064-0.063 0.122-0.137 0.172-0.209 0.475 0.348 0.955 0.689 1.441 1.024 0.609 0.418 1.234 0.824 1.883 1.19 0.723 0.406 1.492 0.729 2.238 1.103 0.605 0.306 1.316 0.267 1.816-0.233 0.574-0.574 0.582-1.547 0-2.121 -0.324-0.317-0.647-0.639-0.969-0.959 0.591 0.502 1.182 1.004 1.773 1.506 0.312 0.268 0.637 0.438 1.059 0.438 0.398 0 0.781-0.16 1.062-0.438 0.562-0.562 0.598-1.564 0-2.121 -0.25-0.232-0.5-0.469-0.75-0.702 0.251 0.067 0.506 0.118 0.766 0.185 0.656 0.155 1.344-0.099 1.691-0.69 0.347-0.593 0.23-1.323-0.234-1.815 -0.384-0.408-0.767-0.818-1.149-1.23 0.013 0.008 0.026 0.019 0.04 0.023 0.445 0.268 0.965 0.422 1.441 0.621 0.266 0.069 0.531 0.069 0.797 0 0.375-0.104 0.699-0.354 0.895-0.689 0.019-0.033 0.036-0.063 0.052-0.1 0.357 0.248 0.715 0.496 1.073 0.742 0.32 0.223 0.793 0.254 1.156 0.15 0.535-0.146 0.863-0.543 1.047-1.047 0.102-0.28 0.188-0.496 0.203-0.806 0.012-0.262-0.02-0.508-0.098-0.758 -0.096-0.323-0.247-0.629-0.424-0.917 0.215 0.148 0.431 0.299 0.646 0.447 0.285 0.199 0.57 0.396 0.855 0.599 0.766 0.531 1.5 1.108 2.324 1.552 0.492 0.266 1.039 0.422 1.562 0.608 0.625 0.223 1.371-0.146 1.691-0.69 0.324-0.552 0.27-1.38-0.234-1.815C97.862 156.825 96.761 155.812 95.569 154.895zM137.891 197.516c-0.785-0.688-1.466-1.451-2.103-2.272 0.017 0.021 0.034 0.043 0.05 0.063 -0.234-0.298-0.464-0.523-0.852-0.633 -0.387-0.109-0.812-0.055-1.155 0.148 -0.336 0.199-0.586 0.523-0.69 0.898 -0.037 0.137-0.058 0.301-0.054 0.469 -0.212 0.062-0.411 0.181-0.587 0.356 -0.172 0.168-0.294 0.369-0.368 0.599 -0.122-0.056-0.247-0.098-0.378-0.117 -0.266-0.069-0.531-0.069-0.797 0 -0.298 0.084-0.566 0.261-0.764 0.498 -0.03-0.006-0.062-0.017-0.092-0.021 -0.401-0.086-0.793-0.061-1.156 0.152 -0.162 0.094-0.32 0.229-0.445 0.393 -0.118-0.031-0.236-0.048-0.357-0.051 -0.031-0.025-0.062-0.055-0.092-0.08 -0.391-0.35-0.773-0.707-1.184-1.029 -0.246-0.19-0.492-0.389-0.738-0.578 -0.211-0.164-0.418-0.34-0.633-0.492 -0.367-0.254-0.758-0.393-1.199-0.465 -0.266-0.069-0.531-0.069-0.797 0 -0.254 0.072-0.477 0.203-0.664 0.388 -0.398 0.401-0.488 0.922-0.383 1.461 0.033 0.174 0.062 0.35 0.095 0.524 -0.304-0.199-0.606-0.395-0.915-0.58 -0.176-0.104-0.352-0.215-0.527-0.319 -0.196-0.121-0.383-0.242-0.598-0.341 -0.18-0.108-0.371-0.172-0.578-0.18 -0.211-0.043-0.418-0.062-0.629-0.062 -0.438-0.015-0.861 0.204-1.148 0.534 -0.448-0.312-1.057-0.435-1.568-0.219 -0.121 0.051-0.238 0.103-0.359 0.146 -0.152 0.107-0.301 0.229-0.438 0.354 -0.069 0.062-0.155 0.172-0.235 0.295 -0.213-0.237-0.425-0.479-0.636-0.721 -0.512-0.582-1.008-1.188-1.574-1.719 -0.296-0.275-0.672-0.438-1.065-0.438 -0.127 0.002-0.258 0.02-0.389 0.057 -0.477 0.129-0.953 0.543-1.051 1.047 -0.043 0.242-0.082 0.48-0.09 0.727 -0.012 0.293 0.098 0.582 0.207 0.851 0.065 0.155 0.138 0.308 0.216 0.452 -0.076 0.011-0.15 0.022-0.22 0.044 -0.52 0.145-0.891 0.543-1.051 1.047 -0.094 0.301-0.164 0.551-0.199 0.864 -0.035 0.3-0.008 0.578 0.051 0.871 0.111 0.529 0.32 1.02 0.542 1.511 -0.218-0.091-0.456-0.122-0.691-0.104 -0.364-0.434-0.741-0.854-1.16-1.226 -0.641-0.57-1.477-0.565-2.121 0 -0.496 0.438-0.723 1.039-0.641 1.694 0.09 0.742 0.414 1.431 0.723 2.104 0.285 0.625 0.668 1.207 1.023 1.793 0.101 0.167 0.211 0.329 0.317 0.493 -0.524 0.353-0.868 1.03-0.639 1.646 0.422 1.143 1.008 2.182 1.684 3.186 0.305 0.457 0.609 0.908 0.914 1.365 0.266 0.397 0.562 0.781 0.848 1.168 0.523 0.717 1.047 1.428 1.574 2.139 0.242 0.328 0.488 0.578 0.895 0.689 0.387 0.104 0.809 0.053 1.156-0.15 0.192-0.111 0.344-0.271 0.468-0.452 0.077 0.071 0.16 0.138 0.252 0.188 0.719 0.42 1.625 0.156 2.051-0.537 0.031-0.051 0.06-0.102 0.083-0.151 0.297 0.322 0.594 0.646 0.896 0.961 0.625 0.656 1.271 1.32 2 1.863 0.333 0.245 0.787 0.264 1.188 0.137 0.438 0.455 0.873 0.909 1.31 1.363 0.185 0.188 0.37 0.38 0.556 0.571 0.258 0.308 0.522 0.607 0.81 0.89 0.577 0.573 1.539 0.582 2.121 0 0.276-0.281 0.438-0.664 0.438-1.062 0-0.423-0.178-0.742-0.438-1.061 -0.233-0.277-0.481-0.544-0.732-0.807 -0.147-0.176-0.295-0.354-0.442-0.529 -0.379-0.444-0.75-0.896-1.125-1.346 -0.606-0.723-1.188-1.469-1.775-2.207 -0.668-0.961-1.336-1.928-2.005-2.896 -0.254-0.362-0.479-0.745-0.72-1.116 -0.448-0.703-0.901-1.406-1.354-2.113 -0.105-0.166-0.215-0.334-0.322-0.5 0.062 0.059 0.121 0.115 0.183 0.174 1.22 1.146 2.452 2.275 3.659 3.435 1.172 1.12 2.324 2.263 3.471 3.405 0.668 0.668 1.331 1.332 2 1.996 0.577 0.578 1.543 0.578 2.12 0 0.258-0.258 0.396-0.583 0.427-0.917 0.588 0.596 1.186 1.184 1.796 1.757 0.599 0.562 1.531 0.596 2.121 0 0.59-0.59 0.562-1.525 0-2.121 -0.729-0.773-1.478-1.531-2.226-2.288 0.228-0.017 0.449-0.082 0.646-0.196 0.229-0.133 0.401-0.312 0.539-0.539 0.219-0.379 0.215-0.736 0.146-1.154 -0.078-0.518-0.375-0.938-0.693-1.336 -0.312-0.397-0.668-0.76-1.004-1.139 -0.604-0.677-1.25-1.312-1.889-1.953 -0.719-0.724-1.438-1.439-2.154-2.162 -0.354-0.356-0.702-0.719-1.049-1.084 0.074 0.062 0.146 0.127 0.221 0.19 0.861 0.773 1.719 1.556 2.59 2.32 1.867 1.637 3.781 3.228 5.562 4.957 0.59 0.569 1.539 0.582 2.121 0 0.607-0.604 0.539-1.509 0-2.121 -0.336-0.388-0.656-0.797-1.004-1.176 -0.234-0.253-0.467-0.509-0.699-0.763 0.267-0.053 0.52-0.185 0.732-0.397 0.545-0.545 0.569-1.418 0.104-2.005 0.238-0.325 0.326-0.719 0.271-1.098 0.083 0.016 0.169 0.021 0.257 0.022 0.271-0.004 0.522-0.069 0.76-0.207 0.426-0.25 0.789-0.78 0.74-1.293 -0.025-0.315-0.052-0.594-0.216-0.875 -0.136-0.233-0.317-0.397-0.521-0.556 0.062 0 0.127-0.004 0.188-0.012 0.271 0 0.521-0.068 0.761-0.203 0.188-0.112 0.344-0.258 0.467-0.431 0.356-0.19 0.635-0.556 0.738-0.937 0.147-0.531-0.021-1.062-0.388-1.457C138.113 197.686 138.003 197.6 137.891 197.516z"/><path fill="#444444" d="M118.082 144.08c0.957-0.695 1.859-1.445 2.734-2.238 1.467-1.331 2.992-2.602 4.557-3.816 -0.055 0.043-0.109 0.086-0.164 0.127 0.057-0.045 0.113-0.088 0.17-0.133 0.001 0 0.001 0 0.002 0l0 0c0.004-0.002 0.008-0.006 0.01-0.008 0.104-0.062 0.197-0.134 0.279-0.214 0.268-0.208 0.531-0.417 0.798-0.628 0.882-0.697 1.683-1.486 2.539-2.214 0.39-0.276 0.784-0.546 1.165-0.836 0.301-0.228 0.59-0.461 0.875-0.711 0.645-0.57 1.211-1.242 1.809-1.863 0.556-0.571 0.576-1.487 0.03-2.075 0.271-0.271 0.445-0.632 0.409-1.021 -0.148-1.592-0.266-3.182-0.328-4.773 -0.059-1.43-0.059-2.857-0.07-4.289 -0.008-1.418-0.008-2.83-0.008-4.25 -0.005-0.645-0.013-1.297 0.031-1.941 0.046-0.716 0.105-1.432 0.171-2.147 0.203-1.508 0.405-3.017 0.485-4.536 0.042-0.778 0.066-1.558 0.081-2.337 -0.048-0.001-0.093-0.012-0.14-0.014 0-0.014 0.004-0.027 0.004-0.041 0-0.43-0.176-0.738-0.438-1.059 -0.517-0.633-1.022-1.277-1.613-1.84 -0.547-0.523-1.125-1.02-1.68-1.539 -0.526-0.5-1.056-1-1.603-1.484 -0.582-0.521-1.112-1.074-1.617-1.672 -0.444-0.527-0.901-1.047-1.37-1.559 -0.355-0.387-0.738-0.734-1.146-1.07 -0.271-0.227-0.535-0.457-0.794-0.695 -0.534-0.492-1.021-1.027-1.534-1.539 -0.488-0.488-0.906-1.039-1.367-1.559 -0.186-0.207-0.379-0.414-0.578-0.613 -0.163-0.164-0.354-0.324-0.547-0.449 -0.324-0.21-0.709-0.329-1.08-0.457 0.002-0.3 0.002-0.601 0.004-0.9 0.008-2.141 0.021-4.281 0.24-6.41 0.117-0.781 0.246-1.551 0.5-2.301 0.188-0.539 0.379-1.07 0.578-1.605 0.396-0.906 0.815-1.801 1.254-2.688 0.596-1.207 1.211-2.445 2.014-3.531 0.814-0.992 1.75-1.855 2.723-2.688 1.321-0.975 2.665-1.92 4.01-2.86 0.053-0.057 0.104-0.113 0.159-0.167 0.603-0.49 1.226-0.944 1.884-1.344 0.36-0.22 0.728-0.431 1.114-0.608 0.06-0.027 0.117-0.051 0.173-0.078 0.258-0.152 0.521-0.293 0.784-0.426 0.271-0.133 0.55-0.254 0.828-0.37 0.12-2.783 0.099-5.568 0.099-8.353 0.004-6.539 0-13.074 0-19.609 0-0.59 0-1.18 0-1.77 0-0.718-0.526-1.333-1.213-1.47 0-0.021 0.01-0.04 0.01-0.061 0.037-0.05 0.09-0.08 0.123-0.137 0.391-0.672 0.193-1.688-0.541-2.055 -0.693-0.344-1.414-0.676-2.082-1.07 -0.642-0.383-1.267-0.774-1.892-1.18 -1.137-0.747-2.207-1.598-3.328-2.375 -0.534-0.368-1.055-0.758-1.597-1.122 -0.561-0.378-1.133-0.738-1.689-1.117 -0.98-0.671-1.916-1.413-2.865-2.129 -0.543-0.458-1.066-0.938-1.607-1.395 -0.604-0.516-1.23-1.008-1.855-1.504 -1.167-0.925-2.285-1.925-3.363-2.957 -1.094-1.051-2.137-2.172-3.325-3.121 -0.688-0.551-1.383-1.086-2.086-1.613 -0.289-0.215-0.57-0.438-0.859-0.652 -0.073-0.055-0.152-0.101-0.227-0.154 0.212-0.54 0.099-1.192-0.33-1.621 -0.29-0.289-0.671-0.432-1.053-0.432 -0.386 0-0.773 0.145-1.068 0.432 -0.013 0.013-0.026 0.026-0.04 0.04 -0.147-0.052-0.299-0.086-0.454-0.086 -0.529 0.001-1.06 0.289-1.33 0.749 -0.202 0.347-0.241 0.725-0.157 1.076 -0.24 0.156-0.481 0.309-0.716 0.473 -0.43 0.304-0.832 0.65-1.239 0.98 -1.212 0.885-2.51 1.643-3.745 2.5 -1.383 0.965-2.727 1.98-4.078 2.988 -0.574 0.426-1.137 0.867-1.727 1.272 -0.727 0.496-1.453 0.988-2.188 1.473 -1.242 0.824-2.488 1.648-3.754 2.434 -1.027 0.645-2.066 1.266-3.125 1.86 -1.043 0.585-2.141 1.085-3.207 1.636 -0.484 0.25-0.949 0.531-1.43 0.781 -0.578 0.301-1.152 0.598-1.738 0.879 -1.002 0.477-2.014 0.937-3.024 1.396 -0.759 0.301-1.519 0.592-2.292 0.858 -0.941 0.329-1.887 0.637-2.832 0.95 -0.167 0.056-0.318 0.139-0.455 0.238 -0.086-0.079-0.176-0.149-0.264-0.201 -0.232-0.135-0.497-0.205-0.762-0.205 -0.132 0-0.264 0.018-0.393 0.053 -0.375 0.105-0.699 0.355-0.895 0.691 -0.227 0.379-0.215 0.734-0.152 1.156 0.01 0.073 0.021 0.146 0.031 0.22 0.134 1.032 0.23 2.064 0.34 3.101 0.062 0.602 0.125 1.204 0.186 1.807 -0.307 0.276-0.506 0.671-0.506 1.108 0 6.676 0 13.352 0 20.023 0 6.277 0 12.559 0 18.836 0 6.371-0.012 12.742 0.004 19.113 0.008 3.117-0.012 6.242 0.246 9.355 0.066 0.824 0.141 1.645 0.152 2.473 0.008 0.812 0.004 1.625 0.004 2.438 0 1.59 0 3.18 0 4.77 0 4.639 0 9.276 0 13.917 -0.424 0.071-0.815 0.31-1.047 0.702 -0.406 0.697-0.172 1.646 0.539 2.051 0.545 0.311 1.058 0.641 1.556 1.012 0.332 0.26 0.672 0.514 1.007 0.771 -0.002 0.036-0.011 0.071-0.011 0.108 0 0.354 0.145 0.832 0.438 1.062 1.711 1.328 3.383 2.699 5.125 3.983 1.523 1.121 3.058 2.229 4.571 3.365 1.006 0.781 1.999 1.567 2.945 2.42 0.465 0.422 0.953 0.818 1.418 1.24 0.539 0.492 1.035 1.01 1.508 1.561 0.859 0.996 1.773 1.923 2.773 2.771 1.098 0.932 2.229 1.809 3.378 2.67 0.522 0.418 1.034 0.844 1.563 1.256 0.574 0.444 1.152 0.893 1.707 1.366 0.785 0.677 1.56 1.363 2.352 2.033 -0.003 0.667-0.007 1.334-0.007 2.001 0 0.814 0.684 1.5 1.5 1.5 0.777 0 1.421-0.615 1.487-1.374 0.239 0.108 0.481 0.211 0.742 0.285 0.461 0.133 0.965 0.065 1.422-0.026 0.449-0.095 0.891-0.345 1.289-0.57 0.398-0.229 0.773-0.525 1.148-0.797 1.336-0.965 2.586-2.056 3.891-3.062 0.035-0.025 0.07-0.055 0.104-0.08 0.885-0.646 1.792-1.259 2.677-1.904 0.504-0.375 1.004-0.75 1.488-1.146 0.441-0.359 0.848-0.768 1.27-1.148 0.367-0.34 0.75-0.668 1.102-1.025 0.41-0.422 0.812-0.854 1.215-1.288 0.746-0.806 1.559-1.541 2.409-2.231C116.481 145.211 117.291 144.659 118.082 144.08zM120.053 94.228c0.512 0.527 1.023 1.043 1.578 1.531 0.352 0.309 0.727 0.586 1.062 0.914 0.293 0.289 0.562 0.605 0.844 0.906 0.484 0.52 0.902 1.094 1.387 1.617 0.512 0.551 1.074 1.035 1.625 1.551 0.543 0.508 1.074 1.039 1.629 1.539 0.578 0.516 1.16 1.02 1.691 1.586 0.035 0.038 0.066 0.08 0.102 0.118 -0.772-0.054-1.553-0.103-2.324-0.193 -0.961-0.164-1.922-0.422-2.832-0.781 -0.832-0.41-1.621-0.902-2.371-1.457 -0.559-0.457-1.047-0.973-1.504-1.531 -0.354-0.5-0.727-1-1.039-1.523 -0.356-0.602-0.688-1.215-0.989-1.848 -0.05-0.109-0.097-0.223-0.144-0.332 -0.271-0.652-0.434-1.355-0.551-2.051 -0.076-0.71-0.08-1.428-0.074-2.143 0.178 0.191 0.354 0.382 0.521 0.581C119.1 93.247 119.568 93.735 120.053 94.228zM70.119 31.381c0.84-0.292 1.668-0.601 2.496-0.934 0.805-0.32 1.586-0.703 2.371-1.062 0.676-0.312 1.355-0.609 2.012-0.953 1.512-0.793 3-1.613 4.527-2.363 1.465-0.715 2.852-1.574 4.234-2.434 1.266-0.789 2.508-1.613 3.754-2.438 0.73-0.484 1.461-0.979 2.188-1.473 0.586-0.406 1.152-0.848 1.723-1.273 1.352-1.008 2.699-2.023 4.082-2.988 1.262-0.879 2.598-1.653 3.836-2.566 0.4-0.297 0.783-0.614 1.171-0.926 0.313-0.221 0.634-0.435 0.962-0.641 0.185-0.117 0.357-0.248 0.527-0.381 0.432 0.286 0.861 0.576 1.271 0.892 0.406 0.312 0.814 0.619 1.22 0.928 0.554 0.431 1.119 0.854 1.62 1.341 0.594 0.57 1.18 1.148 1.77 1.723 1.144 1.121 2.332 2.183 3.555 3.214 0.559 0.469 1.16 0.887 1.714 1.359 0.629 0.535 1.238 1.09 1.868 1.622 0.655 0.55 1.355 1.055 2.043 1.57 0.646 0.48 1.28 0.973 1.944 1.426 0.802 0.546 1.632 1.046 2.417 1.617 0.793 0.578 1.598 1.141 2.395 1.715 0.842 0.61 1.688 1.199 2.558 1.77 0.517 0.335 1.058 0.632 1.604 0.915 -0.926 0.89-1.873 1.761-2.822 2.62 -0.316 0.281-0.635 0.566-0.949 0.848 -0.289 0.258-0.557 0.543-0.828 0.82 -0.854 0.878-1.633 1.836-2.426 2.77 -0.051 0.058-0.094 0.118-0.137 0.177 -0.957 0.467-1.908 0.953-2.824 1.494 -0.531 0.316-1.062 0.633-1.562 0.996 -0.56 0.402-1.095 0.828-1.629 1.262 -0.504 0.406-1.016 0.805-1.512 1.223 -0.486 0.409-0.958 0.828-1.439 1.241 -0.578 0.442-1.158 0.885-1.732 1.337 -0.53 0.417-1.043 0.856-1.572 1.279 -1.115 0.842-2.233 1.682-3.37 2.495 -0.602 0.43-1.246 0.805-1.867 1.203 -0.613 0.395-1.258 0.75-1.848 1.176 -1.289 0.938-2.426 2.062-3.586 3.148 -0.59 0.557-1.164 1.155-1.685 1.796 -0.152-0.117-0.31-0.229-0.467-0.331 -0.207-0.134-0.412-0.27-0.617-0.406 -0.125-0.198-0.289-0.375-0.497-0.509 -0.394-0.255-0.793-0.502-1.188-0.753 -0.013-0.011-0.026-0.021-0.039-0.033 -0.157-0.136-0.319-0.247-0.494-0.323 -0.14-0.094-0.284-0.182-0.421-0.281 -0.65-0.566-1.231-1.219-1.788-1.876 -0.539-0.637-1.078-1.27-1.617-1.906 -0.492-0.586-1.074-1.105-1.625-1.637 -0.559-0.535-1.172-1.016-1.773-1.504 -1.348-1.082-2.695-2.16-4.094-3.172 -0.582-0.422-1.203-0.809-1.805-1.199 -0.715-0.465-1.414-0.945-2.105-1.438 -0.387-0.277-0.773-0.555-1.156-0.836 -0.387-0.281-0.805-0.523-1.211-0.781 -0.711-0.453-1.393-0.947-2.073-1.446 -1.004-0.853-2.004-1.71-2.994-2.585 -0.613-0.544-1.242-1.07-1.879-1.586 -0.435-0.454-0.871-0.905-1.321-1.344 -0.311-0.302-0.608-0.612-0.895-0.932C68.795 31.828 69.458 31.611 70.119 31.381zM90.859 150.214c-0.673-0.55-1.375-1.062-2.068-1.584 -1.167-0.938-2.369-1.871-3.393-2.967 -0.539-0.578-1.035-1.199-1.582-1.771 -0.555-0.582-1.145-1.108-1.75-1.643 -0.605-0.529-1.207-1.068-1.82-1.594 -0.605-0.521-1.254-0.996-1.883-1.484 -1.297-1.004-2.625-1.957-3.949-2.922 -0.665-0.488-1.329-0.982-1.989-1.482 0.038-0.134 0.065-0.271 0.065-0.408 0-0.358-0.145-0.823-0.438-1.062 -0.672-0.539-1.332-1.076-2.066-1.525 -0.219-0.139-0.449-0.25-0.664-0.389 -0.525-0.333-1.021-0.68-1.519-1.048 -0.211-0.167-0.423-0.334-0.633-0.502 -0.154-0.122-0.313-0.229-0.47-0.347 0.265-0.271 0.43-0.639 0.43-1.04 0-6.523 0-13.048 0-19.566 0-0.785 0.035-1.578-0.02-2.359 -0.059-0.824-0.125-1.645-0.188-2.465 -0.113-1.551-0.152-3.105-0.176-4.66 -0.043-3.117-0.023-6.238-0.023-9.359 0-6.449 0-12.898 0-19.348 0-6.133 0-12.262 0-18.391 0-4.159 0-8.317 0-12.476 0.431-0.269 0.74-0.736 0.705-1.26 -0.066-0.992-0.165-1.982-0.267-2.974 0.343 0.267 0.682 0.538 1.019 0.811 0.024 0.025 0.049 0.049 0.074 0.075 0.088 0.091 0.188 0.163 0.294 0.226 0.088 0.074 0.181 0.144 0.268 0.219 0.684 0.578 1.352 1.164 2.02 1.758 0.57 0.504 1.152 0.996 1.73 1.484 0.668 0.566 1.352 1.125 2.074 1.609 0.727 0.484 1.457 0.961 2.191 1.43 0.309 0.195 0.598 0.43 0.895 0.645 0.293 0.219 0.594 0.43 0.895 0.641 1.359 0.953 2.777 1.82 4.125 2.797 0.041 0.029 0.08 0.059 0.12 0.086 0.873 0.685 1.745 1.371 2.611 2.066 0.414 0.332 0.832 0.656 1.227 1.008 0.477 0.43 0.941 0.863 1.402 1.309 0.859 0.824 1.598 1.773 2.367 2.68 0.383 0.453 0.773 0.898 1.191 1.32 0.406 0.41 0.828 0.785 1.293 1.133 0.335 0.254 0.69 0.484 1.049 0.707 0.319 0.25 0.629 0.51 0.959 0.748 0.448 0.321 0.919 0.611 1.369 0.933 0.094 0.085 0.177 0.176 0.258 0.27 -0.027 0.067-0.06 0.132-0.085 0.2 -0.664 1.762-0.52 3.676-0.52 5.523 0 1.566 0 3.129 0.004 4.695 0.004 3.039-0.004 6.078 0.277 9.105 0.07 0.762 0.129 1.52 0.129 2.285 0 0.723 0 1.449 0 2.176 0 1.512 0 3.023-0.004 4.539 -0.004 1.578-0.012 3.156-0.059 4.734 -0.051 1.688-0.16 3.363-0.324 5.043 -0.066 0.715-0.172 1.422-0.25 2.133 -0.079 0.705-0.167 1.403-0.259 2.104 -0.131 0.865-0.261 1.727-0.362 2.599 -0.102 0.879-0.172 1.758-0.242 2.641 -0.129 1.617-0.137 3.238-0.137 4.859 0 3.211 0 6.422-0.039 9.633 -0.02 1.521-0.078 3.047-0.211 4.562 -0.137 1.539-0.375 3.062-0.523 4.599 -0.168 1.729-0.293 3.461-0.398 5.198 -0.043 0.703-0.039 1.418-0.035 2.125 0.008 0.888 0.02 1.777 0.031 2.664 0.023 1.315 0.062 2.634 0.137 3.949 0.09 1.539 0.188 3.073 0.215 4.616 0.019 1.062 0.017 2.13 0.017 3.195 -0.357-0.305-0.72-0.602-1.084-0.896C92.199 151.288 91.527 150.757 90.859 150.214zM112.015 145.043c-0.812 0.785-1.543 1.66-2.367 2.438 -0.764 0.715-1.532 1.438-2.338 2.106 -0.549 0.413-1.104 0.817-1.662 1.222 -0.293 0.211-0.594 0.406-0.891 0.605 -0.391 0.262-0.766 0.559-1.137 0.848 -1.161 0.896-2.292 1.82-3.444 2.723 -0.543 0.396-1.082 0.809-1.681 1.113 -0.06 0.021-0.119 0.037-0.18 0.053 -0.022-0.006-0.045-0.014-0.067-0.021 -0.458-0.228-0.883-0.536-1.297-0.853 0.005-2.342 0.006-4.682-0.036-7.021 -0.012-0.693-0.078-1.396-0.117-2.09 -0.051-0.875-0.098-1.75-0.137-2.625 -0.066-1.582-0.086-3.164-0.102-4.746 -0.004-0.801 0.008-1.598 0.016-2.396 0.008-0.78 0.094-1.565 0.148-2.344 0.121-1.617 0.246-3.238 0.453-4.85 0.207-1.574 0.406-3.156 0.469-4.746 0.062-1.611 0.09-3.225 0.102-4.836 0.016-2.551 0.016-5.102 0.016-7.652 0-1.379 0.016-2.746 0.102-4.121 0.083-1.269 0.205-2.527 0.35-3.789 0.237-1.578 0.43-3.156 0.623-4.738 0.199-1.664 0.371-3.324 0.445-5 0.137-3.117 0.117-6.242 0.117-9.363 0-0.77 0-1.539 0-2.312 0-0.73 0.031-1.473-0.02-2.203 -0.102-1.521-0.27-3.027-0.316-4.551 -0.094-3.066-0.074-6.133-0.074-9.199 0-0.832 0-1.664 0-2.496 0-0.749-0.014-1.498 0.044-2.244 0.076-0.439 0.172-0.867 0.321-1.291 0.282-0.604 0.638-1.15 1.029-1.692 0.692-0.843 1.47-1.587 2.27-2.331 0.734-0.688 1.462-1.38 2.245-2.008 0.396-0.285 0.819-0.534 1.232-0.796 0.414-0.262 0.824-0.531 1.242-0.789 0.852-0.531 1.66-1.105 2.469-1.695 0.816-0.594 1.621-1.203 2.426-1.812 0.863-0.65 1.69-1.357 2.535-2.031 0.469-0.351 0.94-0.701 1.387-1.082 0.379-0.32 0.746-0.652 1.125-0.973 0.715-0.604 1.451-1.181 2.18-1.765 1.146-0.845 2.375-1.542 3.632-2.211 1.278-0.684 2.604-1.293 3.937-1.872 0.873-0.333 1.791-0.537 2.688-0.789 0.785-0.223 1.266-1.055 1.047-1.844 -0.18-0.656-0.798-1.104-1.455-1.104 -0.062-0.001-0.124 0.017-0.186 0.024 0.037-0.034 0.074-0.067 0.113-0.101 0.758-0.681 1.51-1.372 2.252-2.071 0 6.643 0 13.283 0 19.923 0 2.729 0 5.46-0.084 8.189 -0.271-0.197-0.597-0.324-0.929-0.324 -0.247-0.001-0.497 0.066-0.713 0.218 -1.457 1.02-2.938 2.008-4.371 3.066 -0.688 0.508-1.413 0.973-2.062 1.527 -0.733 0.629-1.444 1.27-2.108 1.973 -0.741 0.785-1.375 1.664-1.918 2.594 -0.211 0.359-0.396 0.742-0.59 1.109 -0.384 0.719-0.742 1.449-1.103 2.184 -0.885 1.797-1.69 3.711-2.046 5.688 -0.305 1.68-0.375 3.398-0.41 5.102 -0.035 1.578-0.031 3.156-0.035 4.734 -0.004 1.996-0.125 4.031 0.293 5.992 0.238 1.125 0.715 2.227 1.254 3.238 0.36 0.672 0.75 1.309 1.184 1.93 0.699 1.008 1.423 1.988 2.384 2.77 0.854 0.691 1.754 1.289 2.715 1.812 0.832 0.453 1.759 0.723 2.664 0.984 1.574 0.458 3.265 0.473 4.886 0.596 -0.07 0.983-0.162 1.965-0.291 2.945 0.015-0.133 0.034-0.266 0.051-0.398 -0.211 1.582-0.367 3.152-0.396 4.75 -0.026 1.555 0 3.113 0.004 4.668 0.004 1.473 0.022 2.941 0.06 4.41 0.043 1.684 0.185 3.363 0.34 5.043 0.033 0.391 0.134 0.724 0.402 1.015 -0.728 0.754-1.417 1.546-2.229 2.209 -0.32 0.235-0.652 0.46-0.977 0.696 -0.496 0.359-0.957 0.762-1.41 1.168 -0.688 0.625-1.38 1.24-2.109 1.814 -0.098 0.057-0.187 0.125-0.267 0.199 -0.104 0.078-0.204 0.162-0.312 0.246 -0.729 0.562-1.443 1.143-2.16 1.725 -1.416 1.153-2.729 2.436-4.15 3.59 -0.777 0.582-1.582 1.129-2.371 1.693C113.761 143.493 112.855 144.227 112.015 145.043z"/><path fill="#444444" d="M222.622 118.637c-0.026-2.082-0.039-4.169-0.259-6.243 -0.077-0.754-0.146-1.504-0.155-2.262 -0.017-0.738-0.026-1.477-0.065-2.211 -0.095-1.699-0.336-3.371-0.613-5.047 -0.258-1.551-0.529-3.094-0.869-4.625 -0.108-0.482-0.201-0.964-0.286-1.45 -0.125-0.907-0.271-1.809-0.409-2.714 -0.062-0.41-0.121-0.82-0.254-1.215 -0.066-0.209-0.172-0.414-0.295-0.607 0.262-0.271 0.427-0.636 0.427-1.037 0-0.816-0.684-1.5-1.5-1.5 -2.368 0.005-4.743-0.003-7.114 0.071 -0.932 0.027-1.854 0.09-2.785 0.176 -0.924 0.086-1.852 0.232-2.771 0.362 -1.293 0.144-2.586 0.311-3.885 0.424 0.115-0.793 0.215-1.592 0.197-2.387 -0.014-0.424-0.035-0.848-0.061-1.272 0.2-0.475 0.391-0.958 0.465-1.462 0.068-0.449 0.09-0.891 0.098-1.344 0.013-0.66 0.02-1.316 0.035-1.973 0.031-1.344 0.125-2.684 0.25-4.02 0.09-0.617 0.193-1.234 0.276-1.852 0.113-0.836 0.199-1.676 0.259-2.521 0.061-0.801 0.043-1.602 0.043-2.402 0-0.742 0-1.488 0-2.234 0-1.605 0-3.207-0.014-4.809 -0.012-1.566-0.004-3.145-0.121-4.707 -0.029-0.383-0.062-0.762-0.107-1.141 -0.041-0.352-0.086-0.703-0.148-1.055 -0.094-0.535-0.314-1.047-0.557-1.535 -0.197-0.403-0.5-0.733-0.853-0.995 0.345 0.188 0.753 0.244 1.132 0.136 0.375-0.102 0.697-0.352 0.896-0.688 0.186-0.316 0.289-0.8 0.146-1.156 -0.814-2.082-1.595-4.184-2.668-6.148 -0.31-0.571-0.681-1.079-1.082-1.586 -0.396-0.5-0.914-0.895-1.418-1.277 -0.353-0.27-0.707-0.523-1.078-0.757 -0.607-0.379-1.297-0.645-1.961-0.907 -0.656-0.262-1.336-0.488-2.021-0.68 -0.746-0.207-1.496-0.426-2.259-0.57 -0.87-0.168-1.745-0.293-2.629-0.395 -0.473-0.059-0.952-0.066-1.43-0.066 -0.318-0.001-0.635 0.002-0.951 0.002 -3.15 0-6.306-0.011-9.457 0.016 -1.646 0.016-3.279 0.055-4.922 0.137 -1.685 0.083-3.349 0.336-5.009 0.625 -0.758 0.129-1.504 0.274-2.254 0.434 -0.784 0.172-1.562 0.422-2.336 0.645 -0.806 0.23-1.603 0.531-2.396 0.801 -0.758 0.258-1.518 0.527-2.271 0.801 -1.528 0.547-3.028 1.168-4.551 1.75 -0.957 0.367-1.906 0.782-2.808 1.282 -0.508 0.285-0.998 0.607-1.457 0.967 -0.176 0.256-0.361 0.507-0.551 0.759 -0.379 0.512-0.793 0.984-1.242 1.438 -0.16 0.161-0.311 0.332-0.463 0.499 0-0.002 0-0.004 0-0.007 -0.201 0.219-0.396 0.438-0.6 0.653 -0.152 0.163-0.305 0.33-0.461 0.49 -0.035 0.039-0.068 0.075-0.105 0.109 -0.215 0.207-0.438 0.398-0.68 0.582 -0.145 0.191-0.304 0.368-0.459 0.549 -0.102 0.119-0.193 0.247-0.303 0.36 -0.066 0.07-0.133 0.141-0.203 0.211 -0.023 0.035-0.051 0.066-0.078 0.098 -0.039 0.047-0.078 0.094-0.113 0.137 0 1.773 0 3.543-0.004 5.312 -0.008 1.191 0 2.379-0.043 3.57 -0.047 1.219-0.145 2.438-0.271 3.656 -0.108 0.742-0.233 1.484-0.358 2.227 -0.207 1.238-0.188 2.48-0.188 3.73 0 1.531 0 3.062 0 4.594 0 3.07 0 6.145 0 9.215 0 2.371-0.004 4.746 0.014 7.117 0.008 0.769 0.02 1.538 0.038 2.307 -0.017 0.093-0.021 0.188-0.013 0.287 0.025 0.287 0.041 0.576 0.054 0.865 0.002 0.027 0.001 0.054 0.003 0.081 0.002 0.039 0.006 0.077 0.009 0.115 0.033 1.042-0.005 2.093-0.005 3.13 0 1.293 0 2.585 0 3.875 0 0.684-0.057 1.363-0.057 2.043 -0.004 0.629 0.031 1.246 0.049 1.875 0.023 0.911 0.012 1.826 0.009 2.74 -0.003 0.017-0.005 0.04-0.008 0.057 0.002 0.004 0.005 0.008 0.008 0.013 0 0.066-0.001 0.132-0.001 0.198 0 0.636 0.417 1.187 0.984 1.401 0.656 0.962 1.346 1.894 2.205 2.69 0.59 0.543 1.203 1.055 1.836 1.551 0.66 0.52 1.367 0.938 2.099 1.354 0.668 0.379 1.328 0.777 2.004 1.156s1.392 0.688 2.103 0.986c0.78 0.332 1.582 0.59 2.397 0.824 0.772 0.223 1.539 0.473 2.328 0.641 1.5 0.324 3.021 0.553 4.526 0.854 0.797 0.16 1.586 0.363 2.383 0.527 0.859 0.172 1.738 0.258 2.604 0.344 1.522 0.146 3.069 0.139 4.599 0.146 0.599 0.004 1.193 0.002 1.791 0.004 -0.074 0.053-0.16 0.084-0.229 0.152 -0.562 0.562-0.605 1.568 0 2.119 0.639 0.59 1.338 1.135 1.909 1.795 0.396 0.557 0.737 1.141 1.11 1.713 0.408 0.621 0.802 1.25 1.177 1.887 0.36 0.609 0.728 1.213 1.065 1.832 0.357 0.656 0.758 1.281 1.129 1.932 0.366 0.633 0.672 1.297 1.043 1.932 0.373 0.629 0.791 1.232 1.211 1.83 0.443 0.639 0.903 1.269 1.367 1.889 0.314 0.427 0.668 0.828 1.008 1.232 0.357 0.428 0.787 0.793 1.185 1.182 1.211 1.19 2.336 2.479 3.444 3.765 0.884 1.201 1.724 2.435 2.564 3.666 0.475 0.69 0.942 1.379 1.45 2.043 0.594 0.772 1.188 1.539 1.789 2.305 1.961 2.513 4.058 4.914 6.083 7.367 0.486 0.59 0.979 1.181 1.46 1.772 0.239 0.293 0.698 0.438 1.062 0.438 0.396 0 0.78-0.155 1.061-0.438 0.279-0.28 0.439-0.664 0.439-1.062 0-0.43-0.181-0.737-0.439-1.06 -0.073-0.09-0.146-0.18-0.225-0.269 0.377 0.091 0.777 0.035 1.108-0.159 0.358-0.207 0.556-0.517 0.69-0.896 0.271-0.746 0.549-1.483 0.832-2.228 0.604-1.414 1.242-2.828 1.677-4.31 0.215-0.733 0.387-1.483 0.54-2.229 0.15-0.754 0.279-1.522 0.482-2.268 0.225-0.812 0.465-1.611 0.733-2.41 0.25-0.723 0.556-1.43 0.824-2.145 0.272-0.717 0.526-1.438 0.78-2.156 0.246-0.699 0.527-1.383 0.799-2.068 0.354-0.898 0.703-1.804 1.06-2.701 0.511-1.144 1.03-2.278 1.479-3.442 0.442-1.136 0.854-2.279 1.306-3.41 0.341-0.78 0.722-1.536 1.106-2.301 0.414-0.815 0.769-1.664 1.137-2.504 0.386-0.884 0.695-1.794 1.035-2.695 0.504-1.328 0.896-2.688 1.305-4.047 0.018-0.054 0.021-0.108 0.029-0.163C222.463 119.398 222.628 119.035 222.622 118.637zM204.768 93.433c1.016-0.112 2.023-0.248 3.034-0.385 2.851-0.323 5.736-0.328 8.612-0.322 -0.012 0.031-0.025 0.059-0.036 0.09 -0.099 0.273-0.099 0.594-0.133 0.879 -0.002 0.019-0.004 0.037-0.007 0.056 -0.106 0.666-0.266 1.302-0.508 1.934 -0.371 0.885-0.687 1.77-0.941 2.698 -0.129 0.461-0.297 0.91-0.441 1.367 -0.178 0.563-0.354 1.133-0.562 1.69 -0.362 0.802-0.79 1.566-1.22 2.337 -0.474 0.855-0.938 1.723-1.365 2.602 -0.406 0.836-0.742 1.699-1.131 2.539 -0.415 0.902-0.822 1.808-1.204 2.723 -0.493 1.089-1.013 2.168-1.502 3.257 -0.483 1.079-0.944 2.176-1.522 3.211 -0.615 1.094-1.24 2.184-1.922 3.238 -0.527 0.818-1.053 1.641-1.579 2.463 -0.655-0.932-1.28-1.881-1.876-2.85 -0.848-1.367-1.646-2.771-2.512-4.125 -0.396-0.621-0.854-1.219-1.289-1.812 -0.482-0.658-0.979-1.314-1.449-1.986 -0.517-0.73-1.115-1.41-1.703-2.09 -0.504-0.578-0.981-1.168-1.465-1.766 -0.729-0.902-1.422-1.852-2.211-2.703 -0.793-0.863-1.617-1.699-2.414-2.559 -0.822-0.891-1.633-1.797-2.443-2.695 -0.717-0.785-1.367-1.626-2.018-2.466 -0.371-0.529-0.736-1.055-1.104-1.589 -0.305-0.441-0.594-0.898-0.909-1.332 -0.382-0.516-0.787-1.013-1.179-1.521 2.239 0 4.479 0 6.722 0 0.862 0 1.728 0 2.586-0.012 0.871-0.012 1.733-0.051 2.604-0.102 1.625-0.098 3.25-0.18 4.879-0.223 0.939-0.027 1.883-0.035 2.822-0.055 0.963-0.023 1.92-0.121 2.871-0.199C203.096 93.652 203.932 93.523 204.768 93.433zM148.67 52.843c0.652-0.746 1.258-1.504 2.016-2.137 0.605-0.422 1.25-0.812 1.922-1.113 0.332-0.148 0.668-0.301 1-0.449 1.277-0.492 2.558-1.003 3.836-1.488 1.386-0.523 2.785-1 4.187-1.477 1.261-0.43 2.539-0.851 3.843-1.133 1.352-0.289 2.704-0.52 4.071-0.726 3.086-0.348 6.199-0.348 9.304-0.356 1.567-0.004 3.137-0.004 4.704-0.004 1.646 0 3.308-0.059 4.945 0.051 0.207 0.015 0.418 0.039 0.625 0.066 1.996 0.32 3.961 0.832 5.84 1.578 0.422 0.184 0.836 0.379 1.215 0.641 0.238 0.16 0.472 0.328 0.699 0.496 0.16 0.133 0.317 0.266 0.479 0.403 0.215 0.191 0.396 0.406 0.578 0.629 0.403 0.578 0.715 1.214 1.028 1.847 0.231 0.469 0.461 0.941 0.672 1.418 0.398 1.016 0.804 2.031 1.203 3.051 0.116 0.297 0.254 0.548 0.481 0.746 -0.396-0.239-0.85-0.391-1.325-0.407 -0.55-0.02-1.083 0.141-1.606 0.285 -0.343 0.094-0.688 0.176-1.025 0.273 -0.436 0.125-0.855 0.309-1.271 0.488 -0.55 0.246-1.089 0.512-1.646 0.758 -1.391 0.508-2.854 0.781-4.305 1.102 -1.427 0.316-2.814 0.734-4.207 1.168 -0.744 0.23-1.47 0.5-2.203 0.742 -0.791 0.262-1.586 0.5-2.388 0.715 -0.688 0.188-1.375 0.387-2.073 0.516 -0.828 0.152-1.66 0.293-2.492 0.418 -0.482 0.07-0.965 0.145-1.447 0.219 -0.82 0.082-1.639 0.152-2.467 0.168 -0.887 0.02-1.771 0.004-2.658-0.008 -1.789-0.023-3.562-0.098-5.346-0.266 -1.654-0.242-3.289-0.602-4.938-0.914 -0.875-0.164-1.771-0.297-2.637-0.504 -0.843-0.203-1.652-0.465-2.457-0.77 -0.55-0.258-1.082-0.527-1.599-0.84 -0.646-0.391-1.232-0.891-1.834-1.348 0.104 0.078 0.203 0.156 0.308 0.234 -0.772-0.641-1.507-1.324-2.281-1.957 -0.507-0.415-1.026-0.811-1.545-1.213C148.139 53.444 148.404 53.146 148.67 52.843zM199.6 57.361c0.043 0.016 0.082 0.031 0.121 0.047v0.004C199.682 57.393 199.643 57.377 199.6 57.361zM171.057 120.753c-1.328-0.026-2.652-0.094-3.969-0.25 -0.414-0.062-0.824-0.129-1.23-0.228 -0.52-0.121-1.032-0.254-1.559-0.354 -0.992-0.198-1.984-0.375-2.98-0.562 -1.016-0.195-2.032-0.355-3.028-0.656 -0.988-0.301-1.981-0.57-2.953-0.922 -0.942-0.41-1.854-0.867-2.754-1.375 -0.515-0.285-1.015-0.598-1.521-0.891 -0.461-0.265-0.898-0.538-1.342-0.831 -0.955-0.758-1.918-1.551-2.688-2.496 -0.438-0.593-0.843-1.203-1.222-1.827 0.166-0.241 0.266-0.531 0.266-0.842 0.008-2.914 0.012-5.812 0.223-8.718 0.027-0.365-0.119-0.699-0.354-0.962 -0.106-1.184-0.204-2.37-0.233-3.558 -0.043-1.617-0.047-3.234-0.051-4.852 -0.009-3.09-0.004-6.184-0.004-9.277 0-1.926 0-3.855 0-5.785 0-0.883 0-1.766 0-2.648 0-1.27-0.062-2.559 0.069-3.82 0.271-1.582 0.533-3.16 0.646-4.758 0.108-1.605 0.137-3.207 0.146-4.812 0.004-1.291 0.002-2.584 0.002-3.876 0.692 0.548 1.375 1.107 2.031 1.695 0.613 0.551 1.246 1.059 1.902 1.559 0.822 0.629 1.672 1.207 2.613 1.645 0.789 0.363 1.593 0.672 2.431 0.918 0.772 0.23 1.562 0.371 2.354 0.527 1.547 0.297 3.09 0.637 4.642 0.906 0.93 0.164 1.858 0.309 2.796 0.395 0.844 0.082 1.688 0.129 2.534 0.168 1.565 0.07 3.138 0.066 4.702 0.074 1.699 0.012 3.375-0.246 5.053-0.504 0.831-0.125 1.665-0.266 2.49-0.418 0.703-0.129 1.389-0.324 2.074-0.512 1.379-0.375 2.729-0.832 4.078-1.297 1.219-0.418 2.473-0.789 3.723-1.102 1.287-0.324 2.591-0.566 3.875-0.879 1.298-0.32 2.475-0.914 3.678-1.457 0.736-0.285 1.511-0.496 2.279-0.672 0.033 0.051 0.061 0.102 0.084 0.152 0.117 0.332 0.199 0.664 0.259 1.012 0.14 1.379 0.176 2.762 0.198 4.148 0.031 1.477 0.031 2.949 0.035 4.426 0 1.43 0 2.859 0 4.289 0 0.715 0.026 1.438-0.022 2.148 -0.052 0.703-0.117 1.398-0.188 2.098 -0.094 0.664-0.207 1.324-0.297 1.988 -0.13 0.93-0.195 1.863-0.25 2.797 -0.027 0.436-0.033 0.869-0.048 1.303 -0.544 0.233-0.985 0.769-0.929 1.376 0.099 1.094 0.195 2.188 0.273 3.281 0.002 0.037 0.004 0.075 0.006 0.112 -0.078 0.184-0.155 0.366-0.228 0.548 -0.144 0.355-0.036 0.836 0.146 1.156 0.045 0.074 0.099 0.142 0.152 0.207 -0.009 0.504-0.037 1.008-0.098 1.51 -0.04 0.295-0.08 0.589-0.121 0.884 -0.064 0.002-0.13 0.007-0.195 0.009 -0.738 0.016-1.477 0.02-2.215 0.039 -1.629 0.047-3.258 0.137-4.887 0.23 -1.723 0.102-3.441 0.102-5.168 0.102 -3.215 0-6.434 0-9.652 0 -0.816 0-1.5 0.684-1.5 1.5 0 0.178 0.037 0.347 0.098 0.507 -0.062-0.008-0.123-0.02-0.187-0.02 -0.765-0.001-1.569 0.682-1.499 1.499 0.145 1.738 0.297 3.477 0.332 5.223 0.039 1.684 0.043 3.371 0.078 5.059 0.02 0.816 0.094 1.637 0.215 2.445 0.117 0.793 0.273 1.57 0.41 2.359 0.277 1.602 0.5 3.215 0.754 4.82 0.105 0.669 0.206 1.338 0.305 2.013 0.111 0.842 0.234 1.682 0.358 2.521 0.056 0.458 0.104 0.917 0.149 1.377 0.004 0.055 0.008 0.108 0.014 0.164C174.458 120.786 172.756 120.789 171.057 120.753zM200.952 156.615c-1.332-1.598-2.634-3.223-3.918-4.863 0.079 0.102 0.155 0.203 0.233 0.305 -0.371-0.482-0.771-0.957-1.113-1.461 -0.375-0.547-0.75-1.094-1.125-1.637 -0.815-1.172-1.612-2.359-2.461-3.508 -0.776-1.059-1.717-2.008-2.598-2.98 -0.463-0.504-0.935-0.992-1.423-1.473 -0.29-0.285-0.59-0.562-0.875-0.855 -0.288-0.302-0.547-0.641-0.813-0.965 -0.795-1.066-1.59-2.146-2.287-3.281 -0.358-0.586-0.676-1.184-0.987-1.793 -0.315-0.61-0.71-1.18-1.042-1.779 -0.645-1.163-1.297-2.323-2.012-3.444 -0.371-0.573-0.742-1.146-1.098-1.729 -0.211-0.354-0.449-0.684-0.695-1.016 -0.105-0.141-0.225-0.27-0.34-0.4 0.228-0.19 0.427-0.463 0.472-0.738 0.112-0.695 0.258-1.385 0.34-2.082 0.051-0.445 0.039-0.871 0.008-1.314 -0.034-0.506-0.077-1.01-0.125-1.51 -0.099-1.007-0.259-2.007-0.411-3.003 -0.236-1.789-0.504-3.57-0.789-5.352 -0.145-0.898-0.281-1.801-0.434-2.699 -0.074-0.418-0.164-0.832-0.242-1.25 -0.064-0.322-0.105-0.648-0.148-0.972 -0.032-0.459-0.069-0.919-0.106-1.379 -0.039-0.492-0.021-0.996-0.028-1.488 -0.021-0.926-0.011-1.852-0.027-2.777 -0.021-0.945-0.031-1.891-0.094-2.832 -0.07-1.11-0.158-2.216-0.252-3.322 0.295 0.37 0.592 0.74 0.887 1.111 0.49 0.662 0.979 1.323 1.438 2.004 0.457 0.664 0.914 1.328 1.381 1.988 0.479 0.688 1.021 1.348 1.551 1.996 0.543 0.664 1.104 1.305 1.681 1.941 1.073 1.18 2.137 2.367 3.254 3.508 1.129 1.156 2.129 2.418 3.129 3.684 0.909 1.142 1.89 2.227 2.794 3.371 0.741 1.044 1.516 2.066 2.253 3.111 0.384 0.539 0.755 1.086 1.095 1.651 0.375 0.634 0.733 1.272 1.117 1.897 0.727 1.185 1.465 2.353 2.229 3.509 0.348 0.522 0.715 1.03 1.094 1.53 0.666 0.869 1.409 1.679 2.146 2.488 -0.617 0.307-1.049 1.064-0.803 1.75 0.252 0.693 0.555 1.368 0.734 2.088 0.029 0.504 0.007 1.016 0.007 1.517 0 0.521 0 1.039 0 1.555 0.004 1.027 0.008 2.052 0.022 3.078 0.017 1.047 0.053 2.095 0.108 3.142 0.058 1.021 0.207 2.041 0.353 3.059 -0.004-0.031-0.008-0.062-0.012-0.094 0.006 0.035 0.01 0.072 0.014 0.107 0-0.005-0.002-0.011-0.002-0.016 0.002 0.017 0.007 0.035 0.009 0.052 0.012 0.085 0.021 0.17 0.034 0.255 -0.012-0.084-0.023-0.169-0.034-0.253 0.104 0.812 0.185 1.623 0.237 2.437 0.062 0.918 0.057 1.832 0.052 2.75 -0.013 1.69-0.038 3.383-0.188 5.066 -0.099 0.609-0.209 1.213-0.334 1.821 -0.091 0.44-0.199 0.883-0.314 1.323C201.973 157.834 201.461 157.227 200.952 156.615zM218.012 122.984c-0.271 0.729-0.533 1.467-0.82 2.19 -0.291 0.675-0.573 1.351-0.897 2.013 -0.367 0.742-0.774 1.465-1.104 2.227 -0.703 1.656-1.313 3.341-1.965 5.021 -0.644 1.469-1.293 2.933-1.869 4.428 -0.562 1.457-1.146 2.902-1.66 4.379 -0.49 1.43-1.129 2.809-1.568 4.258 -0.229 0.746-0.436 1.496-0.6 2.262 -0.172 0.805-0.334 1.613-0.52 2.414 -0.125 0.547-0.266 1.078-0.426 1.613 -0.115 0.393-0.264 0.779-0.412 1.165 0.104-1.091 0.119-2.188 0.139-3.279 0.008-0.577 0.012-1.155 0.017-1.733 0.005-0.65 0.026-1.312-0.021-1.961 -0.048-0.707-0.103-1.414-0.169-2.125 -0.06-0.696-0.18-1.397-0.274-2.094 -0.236-1.975-0.283-3.949-0.307-5.934 -0.009-0.992-0.013-1.98-0.013-2.973 0-0.519 0-1.031 0-1.553 0-0.435 0.017-0.884-0.078-1.31 -0.176-0.771-0.504-1.492-0.771-2.233 -0.025-0.072-0.059-0.143-0.09-0.211 0.187-0.072 0.356-0.182 0.498-0.32 0.603-0.604 0.547-1.514 0-2.121 -0.194-0.217-0.393-0.437-0.588-0.651 0.006-0.173 0.014-0.347 0.021-0.519 0.7-1.1 1.407-2.193 2.114-3.289 0.688-1.066 1.31-2.187 1.931-3.293 0.323-0.578 0.59-1.195 0.862-1.797 0.271-0.604 0.539-1.207 0.81-1.812 0.521-1.154 1.074-2.287 1.563-3.454 0.26-0.593 0.529-1.177 0.799-1.765 0.277-0.598 0.523-1.211 0.789-1.816 0.263-0.594 0.562-1.168 0.863-1.742 0.332-0.641 0.668-1.281 1.021-1.914 0.332-0.598 0.654-1.195 0.949-1.812 0.422-0.883 0.719-1.805 1.012-2.73 0.167-0.522 0.335-1.04 0.492-1.56 0.169 0.769 0.322 1.542 0.479 2.314 0.295 1.518 0.541 3.046 0.754 4.578 0.104 0.924 0.154 1.845 0.193 2.777 0.039 0.91 0.004 1.824 0.09 2.734 0.088 0.891 0.188 1.777 0.238 2.668 0.09 1.475 0.104 2.956 0.122 4.429 -0.147 0.165-0.272 0.353-0.341 0.573C218.882 120.359 218.499 121.688 218.012 122.984zM160.143 176.061c0.078 0.104 0.156 0.203 0.234 0.307 -0.262-0.342-0.523-0.682-0.785-1.021 0.078 0.104 0.156 0.203 0.234 0.305 -0.611-0.793-1.287-1.526-1.916-2.303 -0.402-0.562-0.762-1.148-1.115-1.744 -0.395-0.649-0.82-1.289-1.25-1.922 -0.418-0.621-0.906-1.189-1.336-1.809 -0.461-0.664-0.93-1.324-1.34-2.02 -0.387-0.652-0.777-1.299-1.18-1.938 -0.41-0.642-0.793-1.302-1.188-1.953 -0.418-0.69-0.815-1.392-1.258-2.065 -0.479-0.729-1.031-1.41-1.599-2.078 -0.031-0.041-0.063-0.076-0.1-0.114 -0.802-1.093-1.566-2.237-2.555-3.175 -0.324-0.31-0.664-0.603-1.023-0.865 -0.619-0.461-1.258-0.906-1.994-1.146 -0.345-0.113-0.707-0.173-1.072-0.173 -0.518 0.007-1.034 0.122-1.49 0.37 -0.531 0.289-0.973 0.689-1.418 1.096 -0.918 0.832-1.793 1.711-2.727 2.521 -1.009 0.877-1.972 1.807-2.998 2.661 -0.754 0.562-1.52 1.131-2.195 1.774 -0.354 0.34-0.694 0.687-1.038 1.031 -0.283 0.289-0.589 0.551-0.903 0.803 -0.951 0.719-1.97 1.336-2.929 2.045 -1.181 0.871-2.289 1.807-3.31 2.858 -0.436 0.449-0.836 0.935-1.281 1.375 -0.479 0.474-0.969 0.927-1.479 1.363 -0.495 0.422-0.983 0.858-1.483 1.276 -0.611 0.512-1.242 1.004-1.872 1.496 -0.297 0.228-0.441 0.701-0.441 1.06 0 0.37 0.144 0.724 0.389 0.997 -0.221 0.65 0.011 1.475 0.652 1.797 0.516 0.254 1.031 0.512 1.547 0.77 0.493 0.25 1 0.487 1.457 0.797 0.5 0.418 0.949 0.901 1.367 1.402 0.469 0.559 0.895 1.164 1.383 1.711 0.938 1.043 1.879 2.082 2.863 3.086 0.516 0.527 1.039 1.047 1.535 1.598 0.508 0.562 0.977 1.16 1.457 1.75 0.453 0.558 0.896 1.129 1.383 1.66 0.512 0.562 1.039 1.105 1.562 1.652 0.973 1.02 2.024 1.941 3.024 2.93 0.476 0.465 0.883 1 1.308 1.504 0.188 0.23 0.375 0.465 0.571 0.687 0.293 0.321 0.629 0.59 1.035 0.769 0.332 0.141 0.555 0.211 0.922 0.229 0.188 0.012 0.367 0.008 0.562-0.018 0.653-0.07 1.229-0.293 1.836-0.539 0.453-0.189 0.895-0.4 1.324-0.642 0.629-0.344 1.223-0.741 1.817-1.137 1.177-0.774 2.293-1.634 3.403-2.5 1.246-0.901 2.592-1.658 3.859-2.521 1.328-0.908 2.539-1.967 3.791-2.969 0.74-0.566 1.471-1.146 2.202-1.729 0.661-0.524 1.302-1.078 1.95-1.619 0.32-0.229 0.643-0.438 0.996-0.613 0.646-0.248 1.296-0.479 1.941-0.729 0.379-0.146 0.688-0.328 0.896-0.69 0.136-0.229 0.196-0.494 0.194-0.761 0.059-0.041 0.113-0.082 0.164-0.133 0.566-0.565 0.601-1.562 0-2.121C161.839 177.842 160.913 177.034 160.143 176.061zM145.116 159.425c0.34 0.453 0.714 0.886 1.073 1.328 0.849 1.199 1.578 2.476 2.324 3.733 0.418 0.703 0.865 1.384 1.293 2.082 0.391 0.634 0.75 1.281 1.172 1.896 0.457 0.66 0.931 1.302 1.418 1.94 0.474 0.617 0.888 1.281 1.312 1.931 0.414 0.633 0.789 1.293 1.194 1.931 0.418 0.655 0.918 1.268 1.431 1.854 0.375 0.43 0.746 0.865 1.104 1.312 -0.002-0.002-0.004-0.006-0.006-0.008 0.063 0.083 0.129 0.167 0.193 0.25 0.246 0.325 0.496 0.646 0.764 0.952 -0.266 0.024-0.531 0.048-0.796 0.078 -0.692 0.075-1.384 0.185-2.069 0.295 -1.469 0.187-2.938 0.292-4.408 0.396 -0.221-0.759-0.434-1.516-0.604-2.283 -0.103-0.469-0.177-0.945-0.306-1.406 -0.16-0.559-0.422-1.094-0.656-1.625 0.016 0.035 0.029 0.068 0.044 0.104 -0.215-0.51-0.442-1.014-0.67-1.521 -0.321-0.831-0.629-1.665-0.979-2.488 0.052 0.117 0.103 0.238 0.152 0.354 -0.195-0.504-0.35-1.018-0.51-1.534 -0.172-0.562-0.391-1.104-0.572-1.668 -0.363-1.117-0.711-2.246-1.014-3.384 -0.297-1.133-0.621-2.258-0.996-3.371 -0.184-0.538-0.37-1.073-0.572-1.604 -0.135-0.35-0.271-0.7-0.438-1.038 0.05 0.062 0.104 0.121 0.152 0.185C144.473 158.543 144.786 158.986 145.116 159.425zM140.076 189.245c-0.305 0.505-0.585 1.024-0.848 1.553 -0.096-0.269-0.186-0.537-0.291-0.8 -0.457-1.116-0.971-2.203-1.453-3.307 -0.445-1.123-0.818-2.271-1.219-3.416 -0.199-0.57-0.402-1.144-0.578-1.719 -0.004-0.013-0.006-0.021-0.012-0.031 1.338 0.593 2.646 1.285 4.088 1.584 0.383 0.078 0.779 0.125 1.172 0.138 0.521 0.012 1.056-0.095 1.568-0.16 0.414-0.06 0.824-0.172 1.238-0.254 0.381-0.075 0.77-0.135 1.154-0.192 0.307-0.039 0.607-0.089 0.912-0.132 -0.217 0.242-0.43 0.486-0.651 0.722 -0.441 0.465-0.914 0.897-1.359 1.358 -0.422 0.438-0.832 0.888-1.228 1.353 -0.409 0.479-0.838 0.949-1.229 1.444C140.877 187.98 140.463 188.598 140.076 189.245zM136.166 174.68c0.227-0.461 0.445-0.93 0.664-1.395 0.246-0.527 0.508-1.051 0.711-1.594 0.195-0.523 0.348-1.058 0.48-1.601 0.25-1 0.5-1.985 0.812-2.973 0.313-0.988 0.685-1.959 1.081-2.919 0.039-0.094 0.077-0.188 0.117-0.277 0.078-0.188 0.158-0.377 0.236-0.562 -0.039 0.091-0.074 0.181-0.111 0.271 -0.038 0.088-0.076 0.179-0.114 0.269 0.035-0.084 0.071-0.168 0.106-0.25 -0.01 0.022-0.021 0.047-0.029 0.07 0.203-0.488 0.426-0.969 0.574-1.479 0.102-0.35 0.16-0.707 0.232-1.062 0.12-0.598 0.202-1.201 0.295-1.805 0.01-0.078 0.023-0.156 0.035-0.232 0.081 0.166 0.161 0.334 0.238 0.502 0.357 0.959 0.688 1.92 0.99 2.896 0.324 1.043 0.593 2.098 0.896 3.146 0.303 1.033 0.6 2.082 0.967 3.099 0.176 0.487 0.34 0.977 0.49 1.473 0.174 0.562 0.378 1.101 0.604 1.638 0.192 0.479 0.369 0.959 0.543 1.44 0.205 0.579 0.479 1.128 0.73 1.685 0.156 0.379 0.317 0.756 0.48 1.133 0.246 0.685 0.316 1.412 0.51 2.108 0.085 0.316 0.154 0.638 0.234 0.952 -0.773 0.098-1.543 0.227-2.313 0.346 -0.673 0.086-1.342 0.172-2.013 0.271 -0.652 0.096-1.288 0.267-1.938 0.366 -0.362 0.039-0.72 0.061-1.084 0.033 -0.671-0.127-1.337-0.371-1.969-0.631 -0.312-0.145-0.613-0.31-0.929-0.449 -0.487-0.221-0.983-0.444-1.487-0.625 -0.383-0.143-0.785-0.229-1.188-0.303 -0.016-0.003-0.029-0.005-0.045-0.008 0.006-0.068 0-0.136 0.008-0.204 0.119-0.677 0.244-1.372 0.476-2.021C135.682 175.543 135.943 175.124 136.166 174.68zM140.04 163.9c-0.004 0.009-0.008 0.018-0.011 0.024 -0.004 0.013-0.01 0.021-0.014 0.032C140.023 163.939 140.032 163.92 140.04 163.9zM122.359 171.371c0.688-0.68 1.324-1.402 1.996-2.098 0.607-0.635 1.293-1.198 1.976-1.752 0.603-0.44 1.214-0.862 1.837-1.275 0.699-0.461 1.367-0.961 2.023-1.477 0.281-0.226 0.567-0.445 0.817-0.699 0.277-0.285 0.558-0.578 0.843-0.855 0.553-0.529 1.142-1.023 1.74-1.497 0.708-0.53 1.383-1.089 2.038-1.683 0.582-0.531 1.16-1.066 1.754-1.586 0.388-0.338 0.759-0.688 1.134-1.034 -0.048 0.29-0.104 0.578-0.147 0.868 -0.207 1.268-0.324 2.597-0.794 3.802 -0.051 0.12-0.102 0.24-0.152 0.36 -0.033 0.078-0.066 0.156-0.099 0.234 -0.283 0.668-0.571 1.334-0.821 2.014 -0.266 0.724-0.504 1.449-0.742 2.181 -0.421 1.302-0.625 2.663-1.088 3.951 -0.263 0.598-0.545 1.185-0.83 1.768 -0.168 0.345-0.316 0.691-0.504 1.023 -0.246 0.434-0.48 0.854-0.672 1.315 -0.262 0.629-0.387 1.305-0.516 1.969 -0.08 0.404-0.135 0.812-0.174 1.226 -0.033-0.011-0.063-0.028-0.098-0.038 -0.258-0.082-0.521-0.148-0.775-0.23 -0.59-0.188-1.194-0.348-1.772-0.559 -1.226-0.449-2.452-0.896-3.671-1.361 -0.436-0.209-0.855-0.451-1.294-0.648 -0.625-0.281-1.25-0.539-1.902-0.746 -0.919-0.292-1.892-0.391-2.802-0.718 -0.025-0.015-0.049-0.028-0.074-0.041 0.217-0.181 0.438-0.354 0.648-0.54C120.945 172.621 121.691 172.035 122.359 171.371zM131.156 181h-0.002c-0.051-0.041-0.104-0.08-0.153-0.119C131.053 180.921 131.105 180.96 131.156 181zM135.264 191.328c-1.141-1.031-2.199-2.141-3.262-3.254 -1.027-1.078-1.91-2.281-2.875-3.414 -0.926-1.082-1.953-2.062-2.93-3.098 -0.562-0.597-1.105-1.199-1.652-1.812 -0.496-0.556-0.951-1.146-1.423-1.724 0.524 0.267 1.05 0.533 1.599 0.744 0.784 0.303 1.565 0.604 2.358 0.879 0.392 0.139 0.772 0.277 1.159 0.432 0.396 0.154 0.802 0.268 1.203 0.396 0.332 0.104 0.664 0.211 0.996 0.312 0.232 0.069 0.471 0.133 0.703 0.212 0.043 0.023 0.084 0.053 0.125 0.082 0.037 0.029 0.073 0.061 0.111 0.089 0.332 0.254 0.625 0.438 1.062 0.438 0.045 0 0.091-0.01 0.136-0.014 0.416 1.387 0.887 2.756 1.356 4.125 0.293 0.848 0.604 1.68 0.965 2.5 0.314 0.723 0.656 1.434 0.97 2.157 0.028 0.063 0.058 0.134 0.087 0.198 0.193 0.479 0.376 0.966 0.542 1.458 0.101 0.3 0.212 0.598 0.321 0.896 -0.017-0.018-0.027-0.035-0.043-0.052C136.299 192.332 135.807 191.816 135.264 191.328zM153.412 184.089c-1.025 0.782-2.016 1.597-3.014 2.409 -0.994 0.742-2.012 1.439-3.066 2.096 -0.551 0.344-1.102 0.691-1.641 1.051 -0.584 0.383-1.123 0.836-1.666 1.272 -0.76 0.556-1.522 1.112-2.308 1.636 0.106-0.232 0.205-0.467 0.326-0.691 0.437-0.812 0.91-1.601 1.431-2.36 0.449-0.56 0.928-1.099 1.396-1.646 0.53-0.625 1.103-1.227 1.694-1.793 0.586-0.563 1.15-1.153 1.689-1.771 0.553-0.632 1.133-1.237 1.664-1.887 0.125 0.032 0.254 0.054 0.391 0.045 0.607-0.045 1.224-0.078 1.836-0.109 0.539-0.028 1.078-0.104 1.617-0.149 0.774-0.069 1.547-0.168 2.313-0.276 -0.026 0.022-0.058 0.046-0.082 0.069C155.163 182.712 154.288 183.41 153.412 184.089z"/></svg>