<svg xmlns="http://www.w3.org/2000/svg" version="1.1" x="0px" y="0px" width="702px" height="544px" viewBox="0 0 702 544" enable-background="new 0 0 702 544" xml:space="preserve"><path fill="#444444" d="M373.354 238.034c-25.681 1.635-50.989 4.694-75.047 14.35 -22.002 8.832-40.936 22.577-58.823 38.002 -32.679 28.176-59.688 64.312-77.938 103.397 -5.136 10.999-9.713 22.22-13.892 33.611 -2.786 7.692-5.723 15.352-7.965 23.211 -3.495 12.474-3.668 25.743-3.68 38.602 -0.012 13.286-0.324 26.623 0.036 39.903 0.034 1.29 0.067 2.58 0.092 3.87 1.515-0.03 3.031-0.059 4.546-0.087 1.513-0.026 3.024-0.054 4.538-0.088 1.939-0.038 3.023 0.774 3.023-1.498 0-4.012-0.048-8.014-0.048-11.965 0-9.475 0-18.947 0-28.421 0-9.154 0.138-18.188 1.274-27.285 -0.731-2.424 2.18-10.594 3.266-14.149 1.787-5.846 3.98-11.56 6.08-17.295 3.101-8.475 6.264-16.944 9.914-25.203 3.654-7.691 7.065-15.509 11.128-22.998 6.039-11.121 13.153-21.596 20.476-31.896 12.948-18.385 27.368-35.168 44.202-50.132 18.19-16.17 37.804-30.547 60.728-39.199 6.306-2.38 12.746-4.461 19.289-6.09 5.132-1.279 11.709-1.788 16.192-3.282 4.103-1.367 9.231-1.207 13.545-1.742 3.727-0.46 7.451-0.688 11.195-0.92 7.3-0.452 14.56-0.934 21.888-0.614 22.712 0.992 49.315 6.758 67.058 21.868 7.42 6.316 13.911 13.625 20.538 20.743 7.228 7.765 14.341 15.788 19.729 24.97 8.603 14.668 14.355 31.024 19.237 47.257 5.764 19.171 9.942 38.779 15.628 57.982 4.351 14.69 8.672 29.375 12.635 44.175 1.716 6.411 3.464 12.827 5.092 19.23 0.909 3.562 1.77 7.133 2.641 10.703 0.594 2.425 2.626 1.539 4.867 1.547 1.994 0.008 3.995 0.013 5.99 0.013 -1.307-5.608-2.208-11.436-2.907-17.147 -0.804-6.579-2.637-12.779-4.347-19.196 -3.393-12.739-7.145-25.37-10.888-38.011 -5.232-17.653-9.849-35.391-14.266-53.282 -4.909-19.915-12.457-40.547-22.6-58.399 -6.016-10.581-14.228-19.667-22.428-28.585 -8.147-8.854-16.252-18.065-26.053-25.148 -11.607-8.395-25.735-13.466-39.604-16.684C403.234 238.794 388.191 237.091 373.354 238.034 366.631 238.462 376.107 237.859 373.354 238.034zM431.021 216.806C430.543 217.187 430.543 217.187 431.021 216.806M336.288 211.093c0.203 0.088 0.408 0.173 0.611 0.261C336.696 211.266 336.491 211.181 336.288 211.093M453.315 151.505c-0.065 0.45-0.124 0.902-0.188 1.352C453.191 152.407 453.25 151.955 453.315 151.505M383.236 32.364c0.248 0.034 0.496 0.067 0.742 0.101C383.732 32.431 383.484 32.397 383.236 32.364M353.1 29.64C352.598 30.04 352.598 30.04 353.1 29.64M355.055 28.433c3.279 3.429 11.114 2.45 15.473 2.78 6.722 0.512 13.424 1.121 20.065 2.289 11.904 2.089 24.009 5.324 33.896 12.553 9.251 7.401 15.822 18.475 20.907 29.02 5.437 11.263 8.025 23.681 8.738 36.112 1.425 24.775-0.503 50.907-6.874 74.902 -2.929 11.039-6.653 22.887-15.787 30.354 -10.092 7.406-21.768 8.19-33.898 7.394 -22.195-1.458-46.505-4.819-66.494-15.208 -9.805-5.096-18.348-12.33-23.303-22.35 -4.889-9.879-3.581-22.778-3.222-33.456 0.804-23.929 4.308-46.844 13.023-69.26 4.125-10.609 9.625-20.645 15.713-30.243C339.076 44.203 345.795 34.327 355.055 28.433M356.43 13.534c-10.667 5.707-18.874 13.013-26.164 22.665 -7.399 9.801-13.853 20.58-19.148 31.655 -10.86 22.716-16.79 47.408-18.267 72.5 -0.76 12.917-1.461 26.039 0.255 38.899 1.54 11.515 7.975 21.646 16.509 29.323 18.372 16.522 43.945 21.74 67.625 25.518 22.359 3.569 48.945 5.526 66.169-12.003 7.944-8.087 12.084-19.789 15.071-30.501 3.521-12.626 5.203-25.458 6.845-38.429 -0.326 2.35 0.211-2.907 0.244-3.405 0.136-2.337 0.222-4.679 0.365-7.019 0.263-4.243 0.467-8.463 0.521-12.714 0.124-9.14 0.25-18.255-0.8-27.354 -2.107-18.216-8.874-34.884-19.192-49.978 -4.88-7.144-10.287-13.462-17.468-18.371 -7.471-5.109-16.26-8.335-25.01-10.474 -9.053-2.21-18.209-3.526-27.484-4.35 -2.074-0.186-4.15-0.353-6.225-0.516 -1.037-0.082-2.078-0.161-3.117-0.241 -2.326-0.181-1.283-0.333-1.938-2.101C363.919 13.103 359.656 11.8 356.43 13.534M626.96 121.837C626.876 122.458 626.876 122.458 626.96 121.837M617.983 76.99c0.155 0.197 0.315 0.396 0.471 0.593C618.3 77.386 618.14 77.187 617.983 76.99M584.841 55.042c-0.056-0.468-0.109-0.934-0.167-1.401 12 3.249 22.012 10.521 30.244 19.713 8.646 9.653 13.146 20.823 13.09 33.8 -0.113 25.426-7.521 50.47-24.552 69.68 -3.854 4.345-8.32 8.31-13.608 10.807 -5.989 2.2-11.808 1.88-18.014 0.761 -11.87-2.141-22.187-7.35-30.896-15.695 -8.859-8.489-15.521-18.647-17.86-30.83 -2.286-11.906 0.298-24.61 3.548-36.076 4.022-14.217 11.058-28.162 22.625-37.718 6.136-4.528 12.911-6.641 20.502-6.889C574.725 61.03 584.841 62.939 584.841 55.042M565.565 42.553c-0.642 2.358 0.268 4.993 2.19 6.488 -24.563 1.395-40.837 21.155-49.324 42.694 -8.754 22.221-12.795 49.298-0.721 71.038 11.479 20.659 31.733 34.83 55.094 38.071 12.15 1.687 22.342-0.584 31.98-8.423 9.229-7.505 16.544-17.667 22.182-28.071 7.298-13.457 10.61-28.22 12.312-43.33 1.696-15.051 1.489-30.061-6.32-43.515 -7.132-12.296-17.912-22.926-30.351-29.817 -6.161-3.413-12.784-5.524-19.622-7.093C577.928 39.437 567.693 34.896 565.565 42.553M12.535 444.568c-0.038 0.28-0.073 0.562-0.111 0.845C12.461 445.132 12.497 444.85 12.535 444.568M17.473 337.183C17.473 337.254 17.372 338.098 17.473 337.183M145.774 138.01c-20.565 1.027-40.938 13.073-56.376 26.014 -7.889 6.601-13.252 15.31-19.162 23.588 -6.545 9.168-13.179 18.306-18.471 28.266C41.3 235.564 35.195 256.54 28.748 277.76c-3.206 10.557-5.847 20.955-7.587 31.861 -1.806 11.334-3.019 22.756-4.58 34.126 0.073-0.542 0.149-1.084 0.223-1.624 -3.57 25.709-0.864 51.66-2.591 77.45 -0.4 5.982-0.767 11.961-1.125 17.943 -0.173 2.869-0.4 5.731-0.76 8.58 -0.458 3.209-1.538 6.85-1.235 10.097 0.512 5.486 7.615 6.95 10.89 2.953 1.757-2.144 1.571-5.871 1.936-8.497 0.417-3.021 0.77-5.999 1.065-9.069 1.713-17.811 1.772-35.701 1.863-53.574 0.066-12.668 0.13-25.329 1.279-37.957 0.783-8.613 2.149-17.173 3.222-25.753 0.799-6.378 1.663-12.714 2.816-19.044 2.247-12.327 6.467-24.197 9.942-36.209 5.456-18.87 12.155-36.58 21.94-53.639 4.112-7.171 9.121-13.875 13.968-20.56 6.28-8.666 11.798-17.194 20.232-24.034 6.805-5.402 14.314-9.885 22.182-13.555 5.223-2.437 10.494-4.671 16.121-5.997 5.602-1.32 11.37-1.183 17.089-0.974 19.748 0.727 38.212 4.99 55.355 15.05 11.335 6.651 22.8 14.813 32.332 23.919 5.349 5.111 9.809 11.356 14.479 17.083 5.01 6.142 10.38 12.077 14.645 18.78 2.115 3.299 4.146 6.648 6.15 10.016 1.74 2.922 3.594 5.905 7.613 5.288 12.689-1.947-3.024-21.677-6.313-25.983 -7.801-10.216-15.908-20.455-24.438-30.074 -8.944-10.086-20.784-18.113-31.868-25.658C201.014 143.332 172.917 136.562 145.774 138.01M128.787 131.831c0.251 0.032 0.5 0.064 0.751 0.096C129.287 131.895 129.038 131.863 128.787 131.831M193.403 102.576c-0.172 0.416-0.342 0.834-0.513 1.25C193.061 103.41 193.231 102.992 193.403 102.576M79.626 84.98c-0.038 0.305-0.078 0.609-0.116 0.914C79.549 85.589 79.588 85.286 79.626 84.98M110.801 39.326c4.673-4.236 9.33-8.491 13.967-12.766 2.108-1.942 6.294-0.873 9.1-0.727 3.703 0.191 7.403 0.438 11.097 0.78 12.14 1.128 23.931 4.148 34.284 10.787 21.847 14.014 23.132 42.786 14.198 65.061 -4.581 10.359-12.05 20.737-22.381 25.92 -11.136 5.588-24.723 5.311-36.782 4.09 -21.9-2.212-54.457-11.193-55.215-38.043 -0.301-10.661 2.889-21.637 8.538-30.655C93.539 54.301 102.613 46.781 110.801 39.326M103.394 18.806c0 3.006 2.267 5.491 5.184 6.017 -9.208 8.413-18.916 16.481-26.785 26.214C74.154 60.486 69.33 71.89 67.511 83.896c-1.756 11.61-0.316 23.641 6.46 33.466 6.661 9.663 16.995 15.589 27.724 19.785 21.741 8.5 50.24 12.617 72.364 3.289 22.283-9.393 33.501-33.83 36.095-56.484 1.551-13.524 0.012-26.84-6.724-38.867 -6.1-10.891-16.653-18.479-27.854-23.463 -12.357-5.496-25.599-7.037-38.976-7.835 -6.898-0.413-13.806-0.618-20.709-0.861C111.176 12.764 103.394 11.705 103.394 18.806M392.166 155.936c-0.227 0.091-0.449 0.183-0.678 0.274C391.717 156.118 391.939 156.027 392.166 155.936M329.241 133.092c-3.727 2.19-3.575 6.443-1.342 9.544 3.086 4.283 6.131 8.61 9.546 12.643 6.788 8.011 15.428 12.871 25.77 14.646 10.37 1.78 21.488 2.021 31.446-1.844 9.66-3.753 15.79-10.53 21.258-19.022 2.219-3.446 3.684-7.914-0.78-10.532 -5.158-3.021-8.349 2.119-10.737 5.808 -6.133 9.475-14.771 14.124-26.101 14.55 -9.962 0.375-21.296-1.19-28.681-8.457 -3.891-3.827-6.997-8.285-10.209-12.676C336.955 134.392 333.846 130.407 329.241 133.092M529.094 119.561c-3.765 3.766-0.691 7.778 1.885 10.998 3.373 4.219 6.676 8.497 10.048 12.714 6.102 7.617 12.76 14.95 22.335 17.993 9.051 2.876 19.267 3.426 27.383-2.167 7.404-5.111 14.242-13.712 17.261-22.26 1.233-3.498-0.961-7.471-4.665-8.095 -5.125-0.863-6.995 4.088-8.986 7.744 -4.765 8.751-11.612 16.344-22.414 14.303 -10.217-1.93-16.298-8.586-22.5-16.466 -3.228-4.096-6.44-8.2-9.69-12.276C537.088 118.71 533.037 115.616 529.094 119.561M176.731 56.391c-3.75 1.045-5.995 6.13-8.069 9.066 -2.562 3.62-5.323 6.939-8.574 9.968 -6.37 5.932-12.818 10.297-21.703 7.648 -4.168-1.242-7.987-3.158-11.848-5.129 -4.267-2.177-8.61-5.314-13.129-6.881 -3.07-1.063-6.623 0.41-7.792 3.503 -1.394 3.692 0.825 6.52 3.901 8.209 8.17 4.484 16.35 9.123 25.238 12.055 9.273 3.04 18.219 1.176 26.096-4.316 7.506-5.231 13.418-11.818 18.655-19.255 1.958-2.786 5.344-5.992 4.92-9.669C184.004 57.929 180.28 55.409 176.731 56.391M359.876 514.661c-0.207 0.024-0.413 0.054-0.621 0.08C359.463 514.715 359.669 514.688 359.876 514.661M372.741 512.931c-0.214 0.024-0.419 0.051-0.632 0.073C372.322 512.98 372.527 512.955 372.741 512.931M395.337 509.914c-0.306 0.042-0.618 0.087-0.925 0.128C394.719 510.001 395.031 509.956 395.337 509.914M546.502 483.223c0.036 0.126-2.753 1.603-3.118 1.821 -3.768 2.317-6.687 2.777-10.979 2.745 -4.381-0.034-8.756-0.034-13.139-0.034 -18.376 0-36.892 0.169-55.193 1.991 -8.152 0.812-16.248 1.718-24.329 3.091 -11.281 1.915-22.329 2.665-33.705 3.609 -18.122 1.503-36.08 5.054-54.16 7.062 -8.47 1.211-19.034 1.566-28.247 2.302 -10.949 0.872-21.878 1.604-32.85 2.141 -14.057 0.688-28.15 1.737-42.124 3.413 -19.356 2.322-38.673 3.491-58.119 4.593 -7.834 0.444-15.871 0.796-23.632 2.058 -4.651 0.759-9.209 1.979-13.846 2.815 -5.614 1.017-11.62 0.507-17.305 0.507 0.096 2.045 0.171 4.091 0.235 6.141 0.032 1.021 0.062 2.043 0.088 3.066 0.056 2.107-0.783 3.051 1.67 3.078 5.166 0.053 10.411 0.197 15.538-0.533 9.444-1.347 18.481-3.616 28.046-4.373 20.073-1.593 40.146-2.089 60.185-4.317 19.849-2.206 39.631-3.64 59.567-4.729 9.671-0.525 19.331-1.354 28.978-2.188 5.158-0.446 10.314-0.91 15.478-1.235 4.177-0.261 8.588-1.36 12.694-1.36 7.5 0 15.496-2.098 22.957-3.04 9.697-1.224 19.38-3.012 29.145-3.549 18.682-1.025 36.902-4.757 55.513-6.543 19.196-1.84 38.579-1.807 57.847-1.811 4.35 0 8.71 0.104 13.061-0.021 4.991-0.139 8.864-1.782 13.033-4.432 2.872-1.829 5.714-3.77 5.059-7.671C554.211 484.04 550.033 481.762 546.502 483.223M337.485 228.411c-0.003 0-0.005 0-0.007 0.001 0.009-0.001 0.018-0.002 0.026-0.003C337.498 228.41 337.492 228.41 337.485 228.411M333.902 228.895c-0.005 0-0.01 0.001-0.015 0.002C333.893 228.896 333.898 228.896 333.902 228.895 333.903 228.895 333.903 228.895 333.902 228.895M144.292 444.186c-9.907 0-19.829 1.116-29.774 1.083 -7.015-0.023-14.028-0.051-21.043-0.062 -15.703-0.021-31.547-0.574-47.193 0.916 -6.079 0.577-12.089 1.106-18.199 1.252 -2.727 0.069-5.447 0.158-8.171 0.331 -2.953 0.182-6.963-0.218-9.556 1.459 -4.126 2.67-3.294 9.19 1.259 10.901 2.404 0.901 5.701 0.049 8.202-0.095 3.549-0.196 7.101-0.343 10.653-0.462 12.601-0.422 25.045-1.973 37.685-2.087 13.085-0.121 26.172-0.015 39.254-0.015 10.727 0 21.36-0.711 32.071-0.917 4.237-0.081 9.823 0.338 10.83-5.094C150.99 447.728 148.013 444.186 144.292 444.186zM529.932 403.485c3.324-1.933 8.23 0.254 11.819 0.254 3.372 0 6.75-0.062 10.122-0.062 4.564 0 9.129 0 13.688 0 9.272 0 18.545 0 27.811 0 28.87 0 57.696 0.986 86.549 0.986 2.494 0 0.654 12.188-2.012 12.188 -3.219 0-6.438 0-9.657 0 -6.604 0-13.144-0.168-19.737-0.477 -26.125-1.223-52.39-0.511-78.533-0.511 -11.717 0-30.524 4.761-29.663 0.385 -19.15-51.415 10.736-120.361 19.966-167.355 3.559-18.143 7.123-36.285 10.684-54.427 -23.871 1.256-49.307 5.886-69.411 19.51 -9.506 6.444-17.616 14.548-24.822 23.454 -3.604 4.46-6.892 9.109-10.174 13.811 -3.142 4.504 2.001 10.321 6.898 8.985 4.15-1.141 6.902-7.478 9.213-10.716 3.022-4.238 6.54-8.136 10.111-11.913 8.502-8.979 18.458-16.844 30.088-21.367 9.965-3.873 20.94-6.64 31.538-8.058 9.716-1.302 20.925-3.096 30.549-0.865 19.634 4.552 32.53 21.431 43.788 36.989 9.678 10.714 17.684 25.233 23.764 38.89 9.452 21.229 13.722 44.054 19.931 66.306 2.465 8.833 4.613 17.794 6.622 26.741 1.193 5.345 2.329 10.688 3.183 16.097 0.584 3.712-0.202 7.069-0.673 10.741 -0.604 4.118 12.597-1.123 13.062-5.817 0.521-5.26-1.017-10.98-2.04-16.122 -1.326-6.625-2.972-13.188-4.535-19.759 -2.488-10.455-5.73-20.718-8.16-31.181 -2.417-10.485-4.963-20.891-8.432-31.084 -3.33-9.771-6.739-19.938-11.609-29.07 -2.492-4.765-4.891-9.614-7.717-14.192 -2.62-4.247-5.809-8.053-8.563-12.186 0.283 0.382 0.274 0.382-0.016 0 -8.649-11.484-17.235-23.775-28.065-33.521 -12.489-11.239-27.793-16.585-44.528-15.673M277.885 233.145c0.004 0.006 0.007 0.011 0.015 0.015v0.017C277.893 233.165 277.891 233.154 277.885 233.145M277.899 224.51c-1.148 1.147-1.8 2.708-1.8 4.333 0 1.657 0.637 2.803 1.576 4.031 -0.176-0.223-0.35-0.462-0.525-0.685 1.244 1.71 2.174 3.655 3.053 5.603 0.036 0.056 0.076 0.11 0.117 0.164l0.318 0.701 0.461 1.051c0.908 1.991 1.834 3.998 2.756 5.989l0.192 0.542c0.206 0.604 0.414 1.195 0.638 1.783 0.353 0.922 0.72 1.827 1.046 2.683 0.081 0.19 0.164 0.385 0.247 0.575l-0.003-0.017c-0.028-0.07-0.055-0.14-0.08-0.213 0.021 0.054 0.045 0.107 0.067 0.16l-0.036-0.176c0.382 0.891 0.78 1.784 1.195 2.66 0.395 0.881 0.803 1.748 1.289 3.011 0.503 1.124 1.118 2.176 1.658 3.282 1.451 2.994 5.655 3.775 8.363 2.198 1.37-0.813 2.39-2.135 2.82-3.665 0.462-1.672 0.112-3.186-0.621-4.714 -0.51-1.036-1.131-2.04-1.577-3.107 -0.51-1.195-1.084-2.357-1.643-3.536 -0.173-0.446-0.364-0.893-0.556-1.338 -0.525-1.354-0.972-2.708-1.498-4.045 -0.876-2.135-1.881-4.222-2.853-6.31 -0.668-1.434-1.306-2.867-1.974-4.285 -0.367-0.796-0.716-1.608-1.117-2.374 -0.828-1.561-1.783-2.899-2.866-4.301 -0.941-1.195-2.884-1.784-4.333-1.784C280.607 222.726 279.029 223.379 277.899 224.51M466.641 270.5c-0.143 0.186-0.288 0.373-0.432 0.557C466.353 270.873 466.498 270.687 466.641 270.5M472.072 244.28c-3.197 0.868-5.795 5.268-7.473 7.879 -2.307 3.594-5.082 6.899-7.384 10.532 -2.042 3.225-3.974 6.719-0.356 9.907 3.844 3.389 7.793 0.506 10.004-2.369 -0.603 0.721 1.478-1.983 1.306-2.198 0.706-1.119 1.554-2.136 2.271-3.243 1.237-1.918 2.668-3.596 4.055-5.391 2.071-2.799 5.724-6.188 5.289-9.922C479.359 245.805 475.625 243.31 472.072 244.28M539.201 485.936c-1.628 1.17-2.708 3.175-2.708 5.117 0 1.624 0.651 3.188 1.784 4.332 1.227 1.211 2.659 1.643 4.334 1.785 1.338 0.111 2.69 0.144 4.046 0.239 1.034 0.206 2.039 0.494 3.073 0.717 1.911 0.43 4.047 0.479 6.007 0.687 1.529 0.157 3.281-0.75 4.332-1.785 0.111-0.111 0.208-0.225 0.304-0.334 -0.43-2.119-0.766-4.253-1.115-6.372 -0.16-0.974-0.318-1.943-0.494-2.934 -0.908-0.491-1.896-0.698-3.025-0.811 -0.973-0.097-1.929-0.176-2.885-0.271 -0.844-0.176-1.673-0.445-2.517-0.637 -2.237-0.465-4.536-0.507-6.819-0.664l-0.062 0.042 -1.229-0.079C541.189 484.968 540.173 485.306 539.201 485.936M554.065 487.054c-1.832 0-3.696 0.191-5.544 0.225 -3.648 0.044-7.284 0.009-10.921 0.002 -0.013 0.016-0.027 0.029-0.04 0.046h-1.053c-0.812 0-1.592 0.159-2.373 0.479h-0.071c-2.146 0.96-3.671 3.126-3.671 5.593 0 3.344 2.786 6.114 6.115 6.114 3.999 0 7.999 0.018 12.014 0 1.781-0.016 3.566-0.19 5.352-0.223 2.04-0.015 4.062 0.079 6.084 0.223 0.354 0.033 0.718 0.018 1.053-0.03 -0.764-3.012-1.226-6.116-1.735-9.159 -0.177-1.035-0.352-2.088-0.525-3.123 -1.499-0.097-2.995-0.145-4.478-0.145C554.207 487.054 554.144 487.054 554.065 487.054"/><path fill="#6DA8C2" d="M373.354 250.221c-15.395 1-30.707 2.281-45.792 5.73 -24.214 5.539-46.208 16.588-65.817 31.689 -19.358 15.17-37.15 32.203-52.267 51.646 -13.12 17.409-25.768 35.7-35.028 55.475 -3.873 8.273-7.628 16.545-11.01 25.036 -5.633 14.146-11.872 29.06-14.066 44.206 0.053-0.214 0.105-0.426 0.159-0.637 -2.708 18.902-1.338 38.792-1.338 57.889 5.486 0 10.831-1.777 16.186-2.786 4.395-0.872 8.843-1.261 13.303-1.606 10.712-0.831 21.424-1.074 32.144-1.727 20.917-1.27 41.676-4.441 62.574-5.979 22.959-1.688 45.934-2.696 68.867-4.789 22.144-2.024 44.12-6.426 66.278-8.04 5.982-0.438 12.092-0.31 18.026-1.214 6.753-1.035 13.472-2.271 20.226-3.297 9.594-1.456 19.503-2.487 29.205-2.874 17.706-0.712 35.343-1.189 53.067-1.189 2.832 0 5.688-0.43 8.438-0.43 1.617-0.509 2.92-1.886 4.741-2.258 1.057-0.217 1.882 0.161 2.802-0.396 1.562-0.95 2.595-0.908 2.083-2.882 -0.759-2.93-1.545-5.855-2.346-8.777 -1.783-6.534-3.452-13.103-5.305-19.618 -6.873-24.235-14.146-48.283-20.231-72.74 -7.052-28.346-16.665-57.282-35.931-79.731 -12.037-14.031-24.891-29.369-41.575-37.804C420.442 252.852 395.922 248.87 373.354 250.221M563.701 207.178c-21.246 1.452-42.922 7.443-60.119 20.263 -8.737 6.961-16.329 15.605-22.781 24.691 -1.596 2.249-3.049 5.136-5.184 6.919 -1.383 1.156-2.61 1.964-3.721 3.483 -0.812 1.158-1.511 2.372-2.357 3.504 0.132-0.175-1.381 1.711-1.37 1.992 1.351 1.33 2.688 2.678 4.003 4.044 8.489 8.812 16.953 17.771 24.624 27.314 7.271 9.049 12.562 19.259 17.094 29.9 7.192 16.912 12.633 34.235 17.057 52.048 1.448 5.839 3.012 11.648 4.496 17.479 0.279 1.09 0.559 2.179 0.836 3.268 0.562 2.193 3.498 1.655 5.474 1.655 4.822 0 9.643-0.062 14.464-0.062 8.949 0 17.894 0 26.843 0 13.797 0 27.592 0.03 41.391 0.03 15.483 0 30.925 0.956 46.408 0.956 2.485 0 4.971 0 7.456 0 2.219 0 2.927 0.667 3.258-1.593 0.383-2.985 1.123-5.92 0.955-8.953 -0.312-4.017-1.341-8.108-2.18-12.038 -3.81-17.886-9.004-35.385-13.241-53.163 -4.5-18.495-9.85-37.091-18.525-54.122 -5.636-11.058-12.597-20.719-19.913-30.642 -6.813-8.75-14.312-18.921-23.165-26.602 -5.54-4.807-12.299-8.114-19.381-9.958C578.884 205.709 571.062 206.602 563.701 207.178M142.365 150.5c-11.422 1.854-22.913 7.302-32.545 13.604 -7.323 4.695-14.162 9.934-19.793 16.645 -5.581 6.652-10.373 14.373-15.327 21.524 -4.218 6.089-8.304 12.218-11.874 18.709 -10.784 19.603-16.528 40.925-22.976 62.206 -5.516 18.201-7.76 36.342-10.333 55.071 -4.974 36.21-0.483 72.951-5.21 109.193 12.278 0 24.399-1.971 36.663-2.135 8.427-0.112 16.856-0.135 25.283-0.121 14.106 0.021 28.393 0.748 42.443-0.39 4.325-0.346 8.645-0.498 12.983-0.559 1.601-4.706 3.204-9.41 4.955-14.065 2.166-5.876 4.301-11.734 6.696-17.521 4.495-10.856 9.136-21.708 14.615-32.114 7.156-13.604 15.935-26.159 24.785-38.693 8.489-12.028 17.714-23.489 28.042-33.997 11.085-11.308 23.141-21.774 35.718-31.39 5.687-4.349 11.559-8.451 17.708-12.122 3.354-2 6.776-3.885 10.261-5.65 1.634-0.827 4.339-1.119 3.498-3.112 -0.644-1.531-1.375-3.022-2.031-4.549 0.022 0.475 0.538 1.563-0.319-0.651 -0.416-1.083-0.858-2.153-1.247-3.246 -0.616-1.73-1.397-3.364-2.163-5.035 -1.042-2.266-2.051-4.371-3.322-6.505 -3.592-6.038-7.262-11.925-11.457-17.557 -10.137-13.625-21.371-27.203-34.746-37.689 -9.562-7.497-19.484-14.381-30.449-19.682C184.009 151.865 162.477 148.516 142.365 150.5"/><polyline fill="#444444" points="691.843,413.465 694.452,395.938 681.907,400.753 676.19,416.248 "/></svg>