<?xml version="1.0" encoding="UTF-8"?>
<svg width="300px" height="300px" viewBox="0 0 300 300" version="1.1" xmlns="http://www.w3.org/2000/svg" xmlns:xlink="http://www.w3.org/1999/xlink">
    <title>egret-logo-300x300</title>
    <g id="egret-logo-300x300" stroke="none" stroke-width="1" fill="none" fill-rule="evenodd">
        <g id="Group" transform="translate(0.000000, 120.000000)">
            <rect id="Rectangle" x="0" y="0" width="300" height="60"></rect>
            <g id="Group-18" transform="translate(6.857070, 6.927101)" fill="#0E1D28" fill-rule="nonzero">
                <g id="Group-3" transform="translate(83.028776, 0.109842)">
                    <path d="M38.4203651,6.39023854 C36.5937617,8.14083683 34.7863703,9.87211203 32.9361216,11.6453778 C32.7299637,11.4811315 32.4373526,11.2470247 32.1436329,11.0151476 C27.2024937,7.11522629 20.3937412,6.49502919 15.215779,9.51166194 C9.77106769,12.6843659 7.56798608,18.0955764 8.07894732,23.848657 C8.29988357,26.3387353 9.07981066,28.6385554 10.4863395,30.7076132 C13.0998896,34.5532812 16.6936134,36.7040905 21.3476834,36.8858021 C25.053353,37.0307252 28.4845151,36.0942982 31.5794697,33.9839931 C32.1111206,33.621685 32.3726973,33.2459994 32.3564411,32.5585431 C32.3061947,30.4196249 32.3379681,28.2788485 32.3379681,26.0035539 C31.0696168,25.9374094 29.8456005,25.9790285 28.6245398,25.9715964 C27.3879619,25.9641644 26.151384,25.9701101 24.914806,25.9701101 L21.2331511,25.9701101 C20.9789637,25.1143198 20.9638159,19.9498505 21.2043335,19.0048767 L39.9898252,19.0048767 C40.0160567,19.3426592 40.0596528,19.643282 40.0596528,19.9435333 C40.0640863,25.194585 40.0544803,30.4463799 40.0748261,35.6978031 C40.0766479,36.3012783 39.8793569,36.7301024 39.4729526,37.1563254 C35.4477012,41.3747062 30.52836,43.6834446 24.7588946,44.2471589 C21.5804423,44.5578149 18.4256352,44.502075 15.3909024,43.4352173 C6.95468482,40.469865 1.56465336,34.6082777 0.270439906,25.6962423 C-1.63855266,12.5535634 6.78140873,2.28668156 18.5021133,0.34582508 C25.6629597,-0.839572619 32.1133373,1.04591576 37.7649455,5.64109693 C37.9249211,5.77115624 38.077138,5.91162029 38.2260299,6.05468554 C38.2725816,6.0992773 38.2947491,6.16950932 38.4203651,6.39023854" id="Fill-1"></path>
                </g>
                <path d="M142.672351,22.0949307 C142.841106,22.1370994 142.965977,22.1956878 143.091206,22.196061 C145.806629,22.2005391 148.524193,22.2736813 151.236762,22.177029 C154.056007,22.076272 156.37077,20.0103779 157.026882,17.1981349 C157.289826,16.073387 157.295534,14.9366975 157.11001,13.7955299 C156.606599,10.7045256 153.965386,8.34121147 150.981667,8.33150893 C148.530971,8.32367227 146.080633,8.32740401 143.629938,8.33262847 C143.314548,8.33337481 142.998801,8.37255812 142.672351,8.39457543 L142.672351,22.0949307 Z M157.244515,27.3690059 C160.522574,33.0498412 163.76888,38.6747003 167.087255,44.4241998 C166.674108,44.4596514 166.422581,44.4995811 166.170697,44.4999543 C163.948695,44.5048055 161.725623,44.4727126 159.504335,44.5212251 C158.837521,44.5357791 158.498583,44.2764227 158.177841,43.701734 C155.637238,39.1497515 153.055606,34.6223986 150.519642,30.0674307 C150.146454,29.396836 149.771482,29.0811304 148.973374,29.1225527 C147.219463,29.2136074 145.459129,29.1572581 143.700936,29.1669606 C143.377697,29.1688264 143.054458,29.1968146 142.644165,29.216966 L142.644165,44.3066499 C141.836424,44.5477206 136.250024,44.5820526 135.200388,44.3659846 L135.200388,1.30388683 C135.406605,1.27851096 135.564657,1.24156391 135.723065,1.24156391 C140.96375,1.24940335 146.204434,1.22216161 151.444405,1.29045255 C153.650709,1.31956016 155.776738,1.88491952 157.771473,2.90965668 C161.610385,4.88225707 163.762458,8.15350471 164.458172,12.5118096 C164.892725,15.2344908 164.722186,17.9150032 163.660063,20.472368 C162.4984,23.2704304 160.615693,25.4031226 158.061176,26.8823864 C157.806437,27.0297903 157.555267,27.1839112 157.244515,27.3690059 L157.244515,27.3690059 Z" id="Fill-4"></path>
                <path d="M187.520321,8.38105544 L187.520321,18.2208063 L206.425196,18.2208063 C206.648567,19.0175245 206.701169,23.6515516 206.508419,25.1192298 L187.525364,25.1192298 L187.525364,37.1983748 C188.560805,37.2651723 189.618941,37.2218845 190.673835,37.2297212 C191.712157,37.2371845 192.750479,37.2312138 193.78844,37.2312138 L197.003922,37.2312138 L200.119247,37.2312138 L203.33437,37.2312138 L206.417269,37.2312138 C206.631274,38.0271858 206.687838,42.885488 206.518868,44.3165956 C205.793627,44.5203466 181.97564,44.6072951 180.050314,44.4132467 C179.831266,43.701238 179.752004,2.86970532 179.975377,1.24156391 L206.593445,1.24156391 C206.59885,3.57760913 206.597408,5.91104215 206.592725,8.38105544 L187.520321,8.38105544 Z" id="Fill-6"></path>
                <g id="Group-10" transform="translate(0.000000, 0.021127)">
                    <path d="M0,7.70567616 L0,0.204645328 C0.754366888,-0.0132867788 71.0667778,-0.0865984985 72.5162163,0.131333608 L72.5162163,7.70567616 L0,7.70567616 Z" id="Fill-8"></path>
                </g>
                <path d="M45.9171614,43.210282 L45.9171614,16.9798332 L72.5189925,16.9798332 C72.7228214,17.6803931 72.7763083,22.3342732 72.5775391,23.8003431 L53.6232645,23.8003431 C53.3883554,24.6961287 53.3626961,34.8929166 53.5871247,35.9876823 L72.6230753,35.9876823 L72.6230753,43.210282 L45.9171614,43.210282 Z" id="Fill-11"></path>
                <g id="Group-15" transform="translate(218.123386, 0.000000)">
                    <path d="M65.8991219,0.16099342 L65.8991219,7.56748016 C65.1367942,7.7902196 1.36944678,7.8627301 0,7.64159311 L0,0.212672172 C0.674616773,-0.0252904592 64.6661146,-0.0921924111 65.8991219,0.16099342" id="Fill-13"></path>
                </g>
                <polygon id="Fill-16" points="228.310038 43.210282 235.962887 43.210282 235.962887 16.9798332 228.310038 16.9798332"></polygon>
            </g>
        </g>
    </g>
</svg>