<?xml version="1.0" encoding="UTF-8"?>
<svg width="300px" height="300px" viewBox="0 0 300 300" version="1.1" xmlns="http://www.w3.org/2000/svg" xmlns:xlink="http://www.w3.org/1999/xlink">
    <title>panini-logo-300x300</title>
    <g id="panini-logo-300x300" stroke="none" stroke-width="1" fill="none" fill-rule="evenodd">
        <g id="panini-group-logo" transform="translate(1.000000, 115.000000)">
            <path d="M4.90265667,70 C3.60498583,70.0023741 2.35951945,69.4884093 1.44024702,68.5711641 C0.520974594,67.653919 0.00319847698,66.4085299 0,65.1089692 L0,4.98080216 C-0.02329737,3.66502485 0.483057719,2.39502727 1.40548652,1.45774475 C2.32791532,0.520462244 3.58858102,-0.00501500009 4.90265667,0 L293.116082,0 C294.412105,-0.00235198501 295.655732,0.512183793 296.572161,1.42994663 C297.488589,2.34770946 298,3.59314818 298,4.89105862 L298,65.0192257 C297.960717,67.7390396 295.742593,69.9203702 293.026469,69.9102482 L4.90265667,69.9102482 L4.90265667,70 Z" id="Path" fill="#231F20" fill-rule="nonzero"></path>
            <path d="M293.026469,2.13593216 C294.532308,2.23770084 295.752244,3.39908218 295.929931,4.90003298 L295.876163,65.0282 C295.684939,66.5322934 294.4644,67.694619 292.954778,67.8102496 L4.81304364,67.8102496 C3.35603275,67.6562353 2.22120916,66.4743 2.12465276,65.0102513 L2.12465276,4.88208427 C2.22356805,3.42555345 3.36173699,2.25533162 4.81304364,2.11798346 L293.026469,2.13593216 Z" id="Path" fill="#F7EB1C" fill-rule="nonzero"></path>
            <path d="M292.28268,47.8871852 L97.5266838,47.5641085 C84.9808597,47.4384676 71.9511252,47.474365 60.5971544,43.9294954 C60.5550106,44.9809205 60.4170305,46.0262906 60.1849345,47.0525704 C59.9276161,46.0543049 59.3895345,45.1510047 58.6346291,44.4500079 C57.0126332,42.7359065 55.8207799,44.4500079 55.318947,43.2025728 C54.4228167,42.4487271 52.8814726,43.0589832 51.9494971,43.3641112 C51.6565837,42.029411 51.5959514,40.6540878 51.770271,39.2987291 L56.6721037,33.1064254 L54.637888,31.4102726 L57.3800467,28.4846334 L58.6077452,29.1307869 L64.8806572,24.5448923 C65.3205424,24.2548118 65.5731403,23.7522989 65.5437936,23.2256624 C65.5427916,22.817874 65.3584727,22.4322182 65.0419607,22.1756631 L59.3873785,18.4872039 L58.8138551,18.7025883 C56.8155848,17.8179454 54.8706528,16.8170941 52.9890082,15.7051543 C52.9890082,15.7051543 53.8224094,14.9243856 53.3116151,14.1346425 C52.9490925,13.7635789 52.3918597,13.6627709 51.9226132,13.8833606 L52.0839166,13.6320787 C52.3252011,13.1633938 52.448266,12.6426877 52.4423687,12.115413 C51.9405358,10.2038758 50.0586622,9.22567126 48.2932855,8.99233808 C46.8863609,8.74105619 45.497359,9.6025941 44.7087643,8.36413335 C44.5493746,8.05760031 44.5493746,7.69246188 44.7087643,7.38592884 C44.7625321,7.08080083 44.995526,7.06285212 45.1209842,6.75772411 C43.9828988,6.54233963 43.8215953,7.06285212 43.4989884,7.11669824 C43.0688459,7.42182625 42.8716972,6.90131376 43.0330007,6.48849351 C41.4647726,7.06285212 41.2407401,6.79362152 40.855404,5.59105818 C40.3132958,5.0435217 39.5501837,4.77554724 38.7853431,4.86413556 C36.0969522,5.13336616 35.5234288,8.52567171 33.0859544,9.1807995 C32.613844,9.20296594 32.156691,9.01193365 31.8403333,8.66028701 C31.2221095,8.0308739 31.0261514,7.0987175 31.3385003,6.27310903 C30.4956281,6.60151968 29.6904577,7.01973486 28.9368711,7.52054414 C28.6680321,7.62823638 28.9368711,6.70387799 28.2110056,6.92823682 C27.8231929,7.2848856 27.3997845,7.60064891 26.9474619,7.87054392 C26.3317445,8.12153128 25.6584627,8.19610407 25.0028592,8.0859284 C22.60123,7.10772389 21.0867698,9.45900445 19.4647739,10.9936189 C18.7478697,11.4243878 18.3625337,11.0833624 17.6725134,10.5807986 C17.8448105,11.3672833 18.1773408,12.1096918 18.6492954,12.7615665 C18.8643666,13.0307971 19.0256701,13.3897712 18.5955276,13.5961813 C19.348277,14.6641294 20.6297433,14.9154113 21.6065253,15.6692569 C21.8753644,17.2936149 22.8163012,15.3820776 23.5332055,15.9384875 C23.371902,17.7333582 24.8863622,16.0102824 25.6570343,16.7731024 C27.601637,17.9846401 29.3401298,19.6807928 31.7686429,19.734639 C32.0195594,21.0000228 32.3421663,19.734639 33.4802517,19.8423312 C33.8028586,20.1295105 33.2831031,20.7397665 33.7490908,21.0897663 C35.6936936,20.3628437 37.9698645,21.1974586 39.9682351,20.7846383 C41.7604956,20.5333564 43.2480719,18.9897676 44.2786218,17.6077172 C44.938914,18.2038422 45.7763522,18.5664198 46.6623283,18.6397679 L46.6623283,18.2807937 C47.0197725,17.2672137 47.849832,16.4929275 48.8847315,16.2077181 L48.8847315,16.2974617 C48.5394083,16.6116896 48.492631,17.1386998 48.7771958,17.5089994 C48.8616421,17.6116371 48.9651007,17.6969624 49.0818801,17.7602812 L43.9739375,23.342329 L43.9739375,21.5474583 L25.9169121,21.5474583 L25.9169121,40.7256513 L25.3613113,41.1025742 C24.7519427,42.8974448 24.169458,40.7794974 22.7266882,40.2679593 C21.7499062,39.98078 19.7694582,40.6807796 18.1295398,41.4974457 C14.4105991,43.5525726 13.0664036,44.7461616 11.9103956,47.474365 C9.7262207,47.5359122 7.54041134,47.4459536 5.36864442,47.2051344 L5.36864442,50.0589787 C7.57312495,49.7717994 9.76864417,49.6282098 11.9910473,49.5384663 C12.2635853,50.2012669 12.690712,50.7890367 13.2366684,51.2525677 C14.2672182,51.665388 14.3747539,50.2025684 15.3067294,49.3769279 L20.1906395,49.3769279 L20.6028594,50.7500039 L17.6456294,53.4423099 L22.2069326,54.815386 C22.5531715,54.8260661 22.8961517,54.7456114 23.2016373,54.5820528 C26.0201113,53.2239212 28.6352216,51.4779754 30.9710869,49.3948766 L36.3478687,49.3948766 L40.9808623,52.9846179 L42.5132451,51.0371832 L43.1584589,51.3782087 C44.4087812,52.0653986 45.3931458,53.1523041 45.9543854,54.4653862 L43.606524,56.341026 C43.606524,56.341026 45.1926747,56.7358976 45.1926747,56.7000002 L43.2659945,59.3923062 C42.3698642,60.4064081 41.8232248,61.6538432 40.882288,62.5692272 C39.9612015,61.8491412 38.878316,61.3654463 37.7279093,61.1602538 L36.831779,61.1602538 C35.8419408,61.1602538 35.0395184,61.9638447 35.0395184,62.9551244 C35.0395184,63.9464041 35.8419408,64.7499951 36.831779,64.7499951 C37.7403432,64.7571283 38.5104935,64.0822654 38.6240396,63.1794833 C39.3767891,62.9461501 39.9413511,63.5564061 40.4163002,64.0769186 C40.4879906,64.4358927 40.2549967,64.9115334 40.7209845,65.1269179 L53.7417577,65.1269179 C53.3295377,63.8974315 52.7112078,63.7358932 51.8509227,63.0358936 C50.9906377,62.335894 50.1930817,62.0576891 45.793082,61.8243559 C46.2097971,60.1392393 46.9931681,58.5671511 48.0871755,57.2205127 L50.883102,57.3999997 L50.883102,51.8717981 C50.883102,51.8717981 49.2969514,52.5717977 49.2611062,52.553849 C48.0937833,51.4134882 46.8316586,50.3746969 45.4883977,49.4487227 L48.633815,49.4487227 C49.0101897,50.04103 49.0818801,50.8576962 49.7719005,51.2435934 C50.7307599,52.1410287 51.6985806,50.1576966 52.3527557,51.7102597 C52.9267285,52.1663918 53.6918859,52.3014177 54.3869715,52.0692339 C56.7706781,53.4064125 57.8818796,52.5000028 57.8818796,52.5000028 C58.7780099,51.9794903 58.8945068,51.9794903 59.4142624,51.1448755 C59.7385115,50.6051259 60.0000873,50.0300255 60.1938958,49.430774 C60.1938958,49.430774 60.5165027,53.1730793 60.5165027,53.2089767 C70.404724,50.9901696 80.5022232,49.8408503 90.6354418,49.7807738 L292.264758,48.9461589 C292.518185,48.7158326 292.784466,48.500101 293.062314,48.3000055 C292.801932,48.1879456 292.547671,48.0621277 292.300603,47.9230827 L292.28268,47.8871852 Z M17.0721061,47.6359034 C17.8510489,46.7410964 18.7788018,45.9880971 19.8142648,45.4102637 C19.7850202,46.1598347 19.8210012,46.9105323 19.9218004,47.6538521 L17.0721061,47.6359034 Z M22.5564235,47.6359034 C22.6693898,45.9132592 22.921125,44.2025687 23.3091729,42.520522 C24.1064832,43.0427487 24.9760431,43.4449011 25.8900281,43.714111 L25.8900281,46.7833398 L24.3576453,47.6807751 L22.5564235,47.6359034 Z M25.8004151,49.9153891 L25.0207818,50.1307736 C25.2179304,49.7000046 25.0924722,49.4666714 25.2716982,49.3500048 L26.8399263,49.3500048 C26.5266382,49.5868408 26.1791301,49.7744659 25.8093764,49.9064147 L25.8004151,49.9153891 Z M29.0623294,47.6718008 L26.212635,47.6718008 C26.1962037,47.4807015 26.1962037,47.2885414 26.212635,47.0974422 L29.7971562,47.0974422 C29.5848423,47.3150084 29.3436055,47.5022392 29.080252,47.6538521 L29.0623294,47.6718008 Z M32.306321,47.8333391 L32.7723088,47.1333396 L33.3279096,47.1333396 L34.2240399,47.8512878 L32.306321,47.8333391 Z M48.6427763,47.7256469 C48.6427763,47.7256469 45.201636,47.7256469 45.2195586,47.7256469 C45.2374812,47.7256469 48.633815,43.0769319 48.7055054,43.0769319 C48.7771958,43.0769319 49.2431836,46.6666732 48.633815,47.6807751 L48.6427763,47.7256469 Z" id="Shape" fill="#231F20" fill-rule="nonzero"></path>
            <path d="M83.2423669,48.0307749 C83.3857478,48.3179542 83.1706765,48.5871848 83.0272957,48.8115436 C80.7511247,49.1705178 78.2329986,49.1525691 75.9747502,49.4397484 C75.9382697,48.8020349 76.2079546,48.1851909 76.7006158,47.779493 C79.102245,47.9410314 81.0468477,47.9769288 83.2423669,48.0307749 L83.2423669,48.0307749 Z" id="Path" fill="#ED1C24" fill-rule="nonzero"></path>
            <path d="M36.0879909,63.4128164 C36.0830051,63.225679 36.1550454,63.0447156 36.2872262,62.9123423 C36.4194069,62.7799691 36.6001072,62.7078239 36.7869725,62.7128169 C37.1730094,62.7128169 37.4859541,63.0262174 37.4859541,63.4128164 C37.4457704,63.7665153 37.1469163,64.0336838 36.7914532,64.0336838 C36.43599,64.0336838 36.1371359,63.7665153 36.0969522,63.4128164 L36.0879909,63.4128164 Z" id="Path" fill="#00AEEF" fill-rule="nonzero"></path>
            <path d="M38.7763818,62.0846122 L38.5075427,62.6769195 C37.5486833,62.9461501 37.8444063,61.878202 36.3299461,62.335894 L35.5323901,62.335894 C35.733311,61.983442 36.0762321,61.7348709 36.4733269,61.6538432 C37.262952,61.4246387 38.1143421,61.5845068 38.7674205,62.0846122 L38.7763818,62.0846122 Z" id="Path" fill="#00AEEF" fill-rule="nonzero"></path>
            <path d="M47.2268904,57.0948717 C46.1916746,58.5717547 45.3709999,60.1883003 44.789416,61.8961507 C44.4090366,61.9620798 44.0344754,62.0581071 43.6692532,62.18333 C42.6531891,62.5994106 41.798334,63.332761 41.2317788,64.2743544 C42.5290297,61.6657731 44.0618241,59.1814933 45.8110046,56.8525642 L47.2268904,57.0948717 Z" id="Path" fill="#00AEEF" fill-rule="nonzero"></path>
            <path d="M44.61019,64.2833287 C44.61019,64.2833287 42.2264834,64.2833287 42.2264834,64.2833287 C43.1226137,63.1615345 43.5796401,62.6230733 44.789416,62.488458 C45.2476706,62.458177 45.7078932,62.4822759 46.1604954,62.5602529 C45.6057297,63.1245397 45.0878862,63.7240745 44.61019,64.3551235 L44.61019,64.2833287 Z" id="Path" fill="#00AEEF" fill-rule="nonzero"></path>
            <path d="M49.7898231,62.8205091 C49.1804545,63.2692268 49.2342223,63.7179445 48.9743445,64.2294826 L45.4615138,64.2294826 C45.8750635,63.4830791 46.4982271,62.8746097 47.2537743,62.4794837 C48.0929022,62.5160967 48.9268592,62.6302569 49.7450166,62.8205091 L49.7898231,62.8205091 Z" id="Path" fill="#00AEEF" fill-rule="nonzero"></path>
            <path d="M52.3527557,64.26538 L49.7181326,64.26538 C49.8615135,63.6192266 50.0407396,63.2333294 50.5336112,63.0538423 C51.3670124,63.376919 52.0122262,63.5743548 52.3258718,64.2474313 L52.3527557,64.26538 Z" id="Path" fill="#00AEEF" fill-rule="nonzero"></path>
            <path d="M50.11243,56.5384618 C48.4763064,56.4272432 46.8501858,56.1993148 45.2464425,55.856411 C46.7348025,54.6931101 48.3711699,53.7333999 50.11243,53.0025666 L50.11243,56.5384618 Z" id="Path" fill="#00AEEF" fill-rule="nonzero"></path>
            <path d="M48.4904341,52.9038487 L46.6981736,53.9538481 C45.7689342,52.480988 44.5491811,51.2136512 43.1136524,50.2294915 L43.8753631,49.2333382 C45.7260482,50.025781 47.3361524,51.2915999 48.544202,52.9038487 L48.4904341,52.9038487 Z" id="Path" fill="#00AEEF" fill-rule="nonzero"></path>
            <path d="M16.8570348,46.6666732 C16.1986168,47.1501604 15.5973224,47.7071678 15.0647742,48.3269286 C14.6525543,47.3666728 13.9446113,46.3256478 14.231373,45.2576997 C14.8176021,44.5283258 15.538693,43.9189241 16.3552018,43.4628291 C16.3552018,43.4628291 16.5344279,45.087187 16.8391122,46.6397501 L16.8570348,46.6666732 Z" id="Path" fill="#00AEEF" fill-rule="nonzero"></path>
            <path d="M13.4875849,46.0294941 C13.5955671,47.0752963 13.9553528,48.0792361 14.5360573,48.9551333 C14.2492956,49.4576971 13.9087661,49.735902 13.5413527,50.3282093 C12.9499067,50.2205171 12.7437967,49.1884665 12.5645707,48.7038514 C12.3494994,47.7076982 12.7079515,47.0525704 13.4875849,46.0294941 Z" id="Path" fill="#00AEEF" fill-rule="nonzero"></path>
            <path d="M22.7714947,41.0756511 C22.0183292,43.8510423 21.7157559,46.7296741 21.8753644,49.6012867 L21.4093767,49.9602609 C21.0952027,48.6462628 20.8736116,47.3117808 20.7462403,45.9666736 C20.7605491,44.3528028 20.8923308,42.7421241 21.1405376,41.1474459 C21.1405376,41.1474459 22.2338165,40.7525744 22.7714947,41.0756511 Z" id="Path" fill="#00AEEF" fill-rule="nonzero"></path>
            <path d="M19.85011,44.5307771 C19.0299489,44.9755219 18.2450299,45.4825619 17.5022486,46.0474428 C17.2912289,45.0500708 17.1831253,44.0336201 17.1796417,43.0141114 C18.0691389,42.4336422 18.9973149,41.9149057 19.9576456,41.4615483 L19.85011,44.5307771 Z" id="Path" fill="#00AEEF" fill-rule="nonzero"></path>
            <path d="M24.6712909,49.0089794 C24.0255329,50.7783309 23.1902442,52.472404 22.1800487,54.0615403 L19.1152831,53.1192332 C20.7713561,51.5017062 22.6407067,50.1187878 24.6712909,49.0089794 L24.6712909,49.0089794 Z" id="Path" fill="#00AEEF" fill-rule="nonzero"></path>
            <path d="M31.8851398,47.1064165 C29.6960356,49.9522476 26.8054952,52.1789783 23.4973603,53.5679509 L24.7250588,50.8756449 C25.7356713,50.6245443 26.6983377,50.2092067 27.5747531,49.6461585 C28.7486838,48.7487232 29.5910463,48.0218005 30.8366674,47.0794934 L31.8851398,47.1064165 Z" id="Path" fill="#00AEEF" fill-rule="nonzero"></path>
            <polygon id="Path" fill="#00A651" fill-rule="nonzero" points="37.8712902 47.1064165 36.6435917 48.6410309 34.3943046 47.1064165"></polygon>
            <path d="M51.1429798,43.7320597 L49.70021,45.4461611 L49.5299453,42.1794966 L50.883102,40.2679593 C50.8711359,41.4171706 50.9671461,42.5649611 51.1698637,43.6961623 L51.1429798,43.7320597 Z" id="Path" fill="#00AEEF" fill-rule="nonzero"></path>
            <path d="M54.4586619,43.7679571 C52.9261577,44.631454 51.7224034,45.9789714 51.0354442,47.6000059 L49.5389066,47.6000059 C49.7360553,45.7243661 51.8330001,44.0820594 53.4729186,43.4807778 C53.8134481,43.408983 54.2883971,43.3730855 54.4497006,43.7500084 L54.4586619,43.7679571 Z" id="Path" fill="#00AEEF" fill-rule="nonzero"></path>
            <path d="M56.7527554,49.1346204 C56.7527554,49.3500048 56.8065233,49.6551328 56.3943033,49.7628251 C55.9820834,49.8705173 55.5967474,49.0089794 55.6953217,48.7846206 C56.2419612,48.5692361 56.591452,48.6589796 56.7527554,49.1346204 Z" id="Path" fill="#00AEEF" fill-rule="nonzero"></path>
            <path d="M55.2382953,49.3589792 C55.2382953,49.5205175 55.2382953,49.7897481 54.9694562,49.7717994 C54.8666498,49.8209705 54.7440584,49.7999065 54.6634981,49.7192289 C54.5829379,49.6385513 54.5619045,49.5157814 54.611004,49.4128253 C54.5393136,49.1974408 54.7723075,49.1435947 54.8798431,49.0000051 C54.9873788,48.8564154 55.1845274,49.2064152 55.2382953,49.3589792 Z" id="Path" fill="#00AEEF" fill-rule="nonzero"></path>
            <path d="M52.4961366,49.1346204 C52.9800469,49.2423126 53.454996,49.6371841 52.4961366,50.0320557 C51.859884,50.014107 51.7523484,49.1525691 52.4961366,49.1346204 Z" id="Path" fill="#00AEEF" fill-rule="nonzero"></path>
            <path d="M58.3030609,45.3384689 C58.1955252,45.8589814 57.7833053,46.0564172 57.0036719,46.280776 C56.1702708,46.9089807 56.6452198,47.905134 55.2114113,47.6718008 C54.7095784,47.3307753 54.9963401,46.6038527 54.9604949,46.1192376 C55.1755661,45.3564176 55.4264826,44.476931 56.3136516,44.2077004 C57.1430548,44.1715904 57.9223844,44.6051818 58.3299448,45.3294946 L58.3030609,45.3384689 Z" id="Path" fill="#00AEEF" fill-rule="nonzero"></path>
            <path d="M54.0105968,47.6359034 L52.1197618,47.6359034 C52.065994,46.3884682 54.9515336,44.2974439 54.9515336,44.2974439 C54.418296,45.3425153 54.0984182,46.4835486 54.0105968,47.6538521 L54.0105968,47.6359034 Z" id="Path" fill="#00AEEF" fill-rule="nonzero"></path>
            <path d="M59.2708816,47.6897495 C59.4847115,48.14757 59.4847115,48.6767998 59.2708816,49.1346204 C58.9277601,49.4693028 58.4374288,49.6047636 57.9714926,49.4935945 C57.4517371,49.0089794 56.8513298,48.2641081 57.0126332,47.5282111 C57.2521623,47.1201347 57.6212929,46.804179 58.0611057,46.6307758 C58.6525517,46.4871861 59.1095781,47.2589805 59.2708816,47.6807751 L59.2708816,47.6897495 Z" id="Path" fill="#00AEEF" fill-rule="nonzero"></path>
            <path d="M51.4835093,49.4397484 C51.5178673,49.9129853 51.2141557,50.3448087 50.7576438,50.471799 C50.3275012,50.5615425 49.9600878,50.471799 49.6912487,49.8256456 C49.4582549,49.3769279 49.6912487,49.1794921 49.6912487,49.1794921 C50.2915015,48.9441282 50.9708752,49.0393791 51.4835093,49.430774 L51.4835093,49.4397484 Z" id="Path" fill="#00AEEF" fill-rule="nonzero"></path>
            <path d="M53.8851385,50.1756453 C53.8851385,50.2474402 53.9389063,51.2435934 53.8851385,51.2435934 C53.8313707,51.2435934 52.9442017,50.902568 52.8366661,50.8307731 C52.7828982,50.471799 53.3026538,50.1128249 53.9209837,50.166671 L53.8851385,50.1756453 Z" id="Path" fill="#00AEEF" fill-rule="nonzero"></path>
            <path d="M55.8028573,50.5974399 L55.5340182,51.4948753 C55.3727148,51.7641059 54.637888,51.3692343 54.4855458,50.7320552 C54.5661975,50.4538503 55.8028573,50.3282093 55.8028573,50.5974399 Z" id="Path" fill="#00AEEF" fill-rule="nonzero"></path>
            <path d="M57.5234275,51.6564136 C57.1649754,51.9794903 56.2598838,52.0871826 56.0448125,51.8359007 C56.0448125,51.7102597 56.3494968,50.5705169 56.7258715,50.5705169 C57.272511,50.6871835 57.4158919,51.3512856 57.5234275,51.6564136 Z" id="Path" fill="#00AEEF" fill-rule="nonzero"></path>
            <path d="M54.0105968,48.7128257 C54.1797809,48.9255152 54.1797809,49.2270589 54.0105968,49.4397484 L53.3295377,49.1705178 C53.1503117,48.9371846 53.4191508,48.5961592 53.9747515,48.7038514 L54.0105968,48.7128257 Z" id="Path" fill="#00AEEF" fill-rule="nonzero"></path>
            <path d="M59.0020425,50.2564145 C59.0068698,50.4618186 58.9287546,50.6604881 58.7853795,50.8074504 C58.6420045,50.9544127 58.445494,51.0372401 58.2403317,51.0371833 C58.0376766,51.0049514 57.8573205,50.8903086 57.7419373,50.7203803 C57.6265541,50.550452 57.5863954,50.3403362 57.6309631,50.1397479 C58.0864688,50.0136191 58.571742,50.0517352 59.0020425,50.2474402 L59.0020425,50.2564145 Z" id="Path" fill="#00AEEF" fill-rule="nonzero"></path>
            <path d="M71.825667,47.2500062 C71.4015479,48.3103209 70.8637039,49.3213754 70.2215938,50.2653889 C67.7124289,50.6064143 65.7409423,50.8935936 63.4378874,51.3512856 C64.301941,49.5727019 65.2901343,47.857339 66.3951174,46.2179555 C68.181291,46.6784075 69.9952309,47.0231383 71.825667,47.2500062 L71.825667,47.2500062 Z" id="Path" fill="#ED1C24" fill-rule="nonzero"></path>
            <path d="M40.2281128,6.11157067 C40.5126059,6.80776907 40.5505547,7.58051808 40.3356485,8.30131288 C41.0008771,8.12594142 41.6511274,7.89787234 42.2802512,7.61926203 C42.2802512,7.99618486 42.2802512,8.30131288 42.5490903,8.40003076 L43.3824915,7.98721051 C43.623041,8.65839283 44.0803105,9.23002254 44.6818804,9.61156846 C46.474141,10.0243887 49.0281123,9.4500301 50.2737334,10.6077217 C50.8293342,11.1641316 51.591045,12.0166951 51.3401285,12.9769509 C50.9099859,14.4397705 47.6032652,15.6692569 45.8199659,17.347461 C45.4435911,17.7961787 44.3234283,16.916692 43.7678275,16.4500257 C42.8145243,18.1807761 41.195506,19.4454494 39.287176,19.9500234 C37.7547932,20.1295105 35.9356487,19.8961773 34.4570337,20.1115618 L34.3136529,19.2141265 C33.5340195,18.567973 33.4175226,19.2141265 32.5841214,19.429511 C32.2256693,18.3256655 31.8044881,19.0884855 31.1592743,19.0166907 C28.4708834,18.5500243 25.6570343,14.93336 24.3038775,15.9295132 C23.9991932,15.8577183 24.3038775,15.112847 23.8199672,15.0320778 C23.3539794,14.7269498 22.9238369,15.3013084 22.305507,15.4448981 C22.3592748,14.7628472 20.8806598,14.5474628 19.7963421,13.6948992 C19.6708839,13.3179764 20.1189491,13.5333608 19.9934908,13.156438 C19.53004,12.874007 19.1785557,12.4395613 18.9987862,11.9269516 C21.418338,11.2090033 21.7409449,8.14874887 24.4472584,8.69618442 C24.9896101,8.8634282 25.5011308,9.11804541 25.9617186,9.4500301 C26.1533628,9.22407204 26.3567679,9.0083883 26.5710872,8.80387666 C27.4672175,9.12695338 27.6374822,8.22951805 28.2289282,7.9692618 C28.142801,8.26793414 28.2982173,8.58311045 28.5873803,8.69618442 C29.3401298,8.53464606 29.6179302,7.57439026 30.3796409,7.44874931 C30.6211741,8.39277807 31.2143738,9.20841122 32.037482,9.72823505 C35.1201702,10.7064396 36.15072,6.67695493 38.7136526,5.71669913 C39.2494613,5.60409893 39.8072747,5.74292899 40.2281128,6.09362197 L40.2281128,6.11157067 Z" id="Path" fill="#ED1C24" fill-rule="nonzero"></path>
            <polygon id="Path" fill="#F7941E" fill-rule="nonzero" points="43.1226137 46.3166734 26.6158937 46.2987247 26.6158937 22.2205348 43.1405363 22.2384835"></polygon>
            <path d="M51.9136519,27.4256597 C50.6114227,27.4914232 49.3790023,26.8330932 48.7081885,25.7133764 C48.0373747,24.5936596 48.0373747,23.1948439 48.7081885,22.075127 C49.3790023,20.9554102 50.6114227,20.2970802 51.9136519,20.3628437 C52.6154961,20.3554469 53.3019481,20.5689022 53.8761772,20.9730997 L53.8761772,20.9730997 L57.4606984,19.0795112 C55.5698635,18.0654093 53.7059125,17.2038713 51.8330001,16.1359233 C51.6358515,15.9384875 52.6126335,15.4090007 52.1376844,14.8346421 C51.5103932,14.1346425 50.2468495,15.4090007 49.4492936,16.1359233 C49.0370736,16.6564358 48.9833058,17.3295123 50.5336112,17.3295123 L44.5474609,23.8807902 L53.8492933,30.835914 L56.4480711,28.0897619 L54.2435906,26.9679677 C53.4576675,27.1874857 52.6540526,27.3376322 51.8419614,27.4166854 L51.9136519,27.4256597 Z" id="Path" fill="#00AEEF" fill-rule="nonzero"></path>
            <polygon id="Path" fill="#00A651" fill-rule="nonzero" points="43.8395179 39.4153957 43.8215953 32.1910413 47.8631429 27.3538649 51.2505154 29.8038634"></polygon>
            <path d="M55.61467,33.2051433 L40.8464427,51.9346186 L37.2171151,49.1525691 C37.2171151,49.1525691 38.8749561,47.1153909 38.9108013,47.0974422 L43.902247,47.0974422 L43.902247,40.7615487 L51.9674197,30.4320681 L55.61467,33.2051433 Z" id="Path" fill="#ED1C24" fill-rule="nonzero"></path>
            <polygon id="Path" fill="#231F20" fill-rule="nonzero" points="28.0945087 34.1743734 28.0765861 29.8038634 31.4908425 27.7307878 34.6989889 29.5884789 38.0325936 27.83848 41.4916566 29.7500172 41.5006179 34.0666812 38.2655875 36.1128337 38.2118197 40.3756515 34.6452211 42.215394 30.9979708 40.1423184 31.0158934 35.9512954"></polygon>
            <path d="M64.1458304,24.0692516 C63.7873783,24.3743796 58.4643643,28.0987362 58.4643643,28.0987362 L54.225668,25.9179684 C53.6117645,26.4732452 52.7894159,26.7379564 51.9674197,26.644891 C50.7316781,26.635808 49.650496,25.8103345 49.3144739,24.6193892 C48.9784518,23.4284439 49.4683869,22.1583918 50.5166499,21.5030046 C51.564913,20.8476174 52.9194471,20.9644841 53.840332,21.7897659 L59.0378877,19.3128444 L63.957643,22.3461758 C63.957643,22.3461758 64.7103925,22.7948934 64.7103925,23.2436111 C64.6590822,23.6075573 64.4574863,23.9331855 64.1547917,24.1410464 L64.1458304,24.0692516 Z" id="Path" fill="#00AEEF" fill-rule="nonzero"></path>
            <polygon id="Path" fill="#FFFFFF" fill-rule="nonzero" points="35.0036732 33.833348 35.0036732 30.1538631 38.014671 28.5654026 40.7926749 30.1179657 40.7926749 33.7974506 37.9788258 35.4577059"></polygon>
            <polygon id="Path" fill="#FFFFFF" fill-rule="nonzero" points="28.8024516 33.7795019 28.8024516 30.1538631 31.5625329 28.5833513 34.2330012 30.1718118 34.2330012 33.7974506 31.5446103 35.4756546"></polygon>
            <polygon id="Path" fill="#FFFFFF" fill-rule="nonzero" points="31.741759 39.828216 31.7238364 36.2025773 34.6272985 34.5064245 37.5845285 36.1846286 37.5845285 39.9179595 34.6272985 41.4705226"></polygon>
            <path d="M49.7718817,23.8987389 C49.7718817,22.7042469 50.7388195,21.7359198 51.9315745,21.7359198 C53.1243295,21.7359198 54.0912485,22.7042469 54.0912485,23.8987389 C54.0912485,25.0932309 53.1243295,26.0615768 51.9315745,26.0615768 C51.3580626,26.0639562 50.8073486,25.8368586 50.4018109,25.4307303 C49.9962732,25.024602 49.7695058,24.473086 49.7718817,23.8987389 L49.7718817,23.8987389 Z" id="Path" fill="#231F20" fill-rule="nonzero"></path>
            <path d="M50.5604951,23.8628415 C50.5654602,23.0995799 51.1873256,22.484862 51.9494773,22.4898236 C52.711629,22.4947852 53.3254618,23.1175475 53.3205181,23.8808092 C53.3155744,24.644071 52.6937263,25.2588064 51.9315745,25.2538662 C51.1714582,25.2440432 50.5604318,24.6241281 50.5604951,23.8628415 L50.5604951,23.8628415 Z" id="Path" fill="#00AEEF" fill-rule="nonzero"></path>
            <path d="M58.3209835,24.105149 C58.3209835,24.5289211 57.9779479,24.8724562 57.5547921,24.8724562 C57.1316362,24.8724562 56.7886007,24.5289211 56.7886007,24.105149 L56.7886007,22.3102784 C56.8309724,21.9184848 57.1612804,21.6215877 57.5547921,21.6215877 C57.9483038,21.6215877 58.2786117,21.9184848 58.3209835,22.3102784 L58.3209835,24.105149 Z" id="Path" fill="#231F20" fill-rule="nonzero"></path>
            <path d="M58.6973582,23.1807906 L58.6973582,23.1807906 L58.6973582,21.38592 C58.7399961,20.9893593 59.074238,20.6887381 59.4725109,20.6887381 C59.8707838,20.6887381 60.2050256,20.9893593 60.2476636,21.38592 L60.2476636,25.1282253 C60.2476636,25.3305377 60.1674122,25.524564 60.0245637,25.6676205 C59.8817152,25.810677 59.6879711,25.8910453 59.4859528,25.8910453 C59.0572401,25.896173 58.7029826,25.5573445 58.6883969,25.1282253 L58.6883969,23.1987393 L58.6973582,23.1807906 Z" id="Path" fill="#231F20" fill-rule="nonzero"></path>
            <path d="M62.2101889,24.105149 C62.2101889,24.5289211 61.8671534,24.8724562 61.4439975,24.8724562 C61.0208417,24.8724562 60.6778061,24.5289211 60.6778061,24.105149 L60.6778061,22.3102784 C60.7146059,21.9157089 61.0438168,21.6131695 61.4395169,21.6102743 C61.8368707,21.6089273 62.1685065,21.9136951 62.2012276,22.3102784 L62.2101889,24.105149 Z" id="Path" fill="#231F20" fill-rule="nonzero"></path>
            <path d="M38.5881944,31.2487342 C38.4858163,31.1702731 38.3583407,31.1319747 38.2297423,31.141042 L37.6203737,31.141042 L37.6203737,32.0384773 L38.2297423,32.0384773 C38.3584339,32.0483977 38.4862074,32.0100098 38.5881944,31.9307851 C38.682193,31.8363621 38.7283375,31.7043286 38.7136526,31.571811 C38.7267357,31.4448239 38.6804172,31.3189192 38.5881944,31.2307855 L38.5881944,31.2487342 Z M39.0900274,32.3705284 C38.86185,32.5438347 38.5779245,32.6269 38.2924714,32.6038616 L37.629335,32.6038616 L37.629335,33.7256558 L36.9841212,33.7256558 L36.9841212,30.6025808 L38.3372779,30.6025808 C38.6104047,30.5915569 38.8781306,30.6809289 39.0900274,30.8538627 C39.4706507,31.287568 39.4706507,31.9368231 39.0900274,32.3705284 Z" id="Shape"></path>
            <polygon id="Path" fill="#231F20" fill-rule="nonzero" points="30.44237 33.7256558 30.44237 30.6205295 32.7275023 30.6205295 32.7275023 31.1769394 31.0875838 31.1769394 31.0875838 31.8320672 32.5841214 31.8320672 32.5841214 32.3705284 31.0875838 32.3705284 31.0875838 33.1692458 32.7902314 33.1692458 32.7902314 33.7256558"></polygon>
            <polygon id="Path" fill="#231F20" fill-rule="nonzero" points="35.2366671 36.5615514 36.2672169 36.5615514 36.2672169 39.6846263 35.6040805 39.6846263 35.6040805 37.0820639 34.9588667 39.6846263 34.2957303 39.6846263 33.6505165 37.0820639 33.6505165 39.6846263 32.9873801 39.6846263 32.9873801 36.5615514 34.0179299 36.5615514 34.6452211 39.0025755"></polygon>
            <path d="M38.5881944,31.2487342 C38.4858163,31.1702731 38.3583407,31.1319747 38.2297423,31.141042 L37.6203737,31.141042 L37.6203737,32.0384773 L38.2297423,32.0384773 C38.3584339,32.0483977 38.4862074,32.0100098 38.5881944,31.9307851 C38.682193,31.8363621 38.7283375,31.7043286 38.7136526,31.571811 C38.7267357,31.4448239 38.6804172,31.3189192 38.5881944,31.2307855 L38.5881944,31.2487342 Z M39.0900274,32.3705284 C38.86185,32.5438347 38.5779245,32.6269 38.2924714,32.6038616 L37.629335,32.6038616 L37.629335,33.7256558 L36.9841212,33.7256558 L36.9841212,30.6025808 L38.3372779,30.6025808 C38.6104047,30.5915569 38.8781306,30.6809289 39.0900274,30.8538627 C39.4706507,31.287568 39.4706507,31.9368231 39.0900274,32.3705284 Z" id="Shape" fill="#231F20" fill-rule="nonzero"></path>
            <path d="M196.907533,34.5064245 L196.907533,39.4871906 L216.165373,39.4871906 L216.165373,34.5064245 L212.742156,34.5064245 C212.247237,34.5064245 211.846025,34.104629 211.846025,33.6089892 L211.846025,18.2538707 C211.846025,17.7582308 212.247237,17.3564353 212.742156,17.3564353 L216.165373,17.3564353 L216.165373,12.4295154 L196.925456,12.4295154 L196.925456,17.3564353 L200.509977,17.3564353 C201.004896,17.3564353 201.406107,17.7582308 201.406107,18.2538707 L201.406107,33.6089892 C201.406107,34.104629 201.004896,34.5064245 200.509977,34.5064245 L196.907533,34.5064245 Z" id="Path" fill="#231F20" fill-rule="nonzero"></path>
            <path d="M262.674536,34.5064245 L262.674536,39.4871906 L281.932376,39.4871906 L281.932376,34.5064245 L278.509158,34.5064245 C278.014239,34.5064245 277.613028,34.104629 277.613028,33.6089892 L277.613028,18.2538707 C277.613028,17.7582308 278.014239,17.3564353 278.509158,17.3564353 L281.932376,17.3564353 L281.932376,12.4295154 L262.692458,12.4295154 L262.692458,17.3564353 L266.276979,17.3564353 C266.771898,17.3564353 267.17311,17.7582308 267.17311,18.2538707 L267.17311,33.6089892 C267.17311,34.104629 266.771898,34.5064245 266.276979,34.5064245 L262.674536,34.5064245 Z" id="Path" fill="#231F20" fill-rule="nonzero"></path>
            <path d="M187.112829,33.6179635 L187.112829,18.2538707 C187.136765,17.7510511 187.551108,17.3558643 188.053766,17.3564353 L191.476984,17.3564353 L191.476984,12.4474641 L173.115274,12.4474641 L173.115274,17.3743841 L176.699795,17.3743841 C177.194714,17.3743841 177.595926,17.7761795 177.595926,18.2718194 L177.595926,23.6564314 L167.639918,12.4564384 L154.744603,12.4564384 C154.798371,12.5102846 154.744603,17.3654097 154.744603,17.3654097 L156.635438,17.3654097 L158.329124,17.3654097 C158.824043,17.3654097 159.225254,17.7672052 159.225254,18.262845 L159.225254,33.6179635 C159.225254,34.1136034 158.824043,34.5153988 158.329124,34.5153988 L154.744603,34.5153988 L154.744603,39.4871906 L173.124235,39.4871906 L173.124235,34.5602706 L177.810997,39.5410367 L191.512829,39.5410367 L191.512829,34.5243732 L188.089611,34.5243732 C187.838308,34.5471178 187.589074,34.4627066 187.403141,34.2918768 C187.217207,34.1210471 187.111805,33.879631 187.112829,33.6269379 L187.112829,33.6179635 Z M173.007738,34.5153988 L173.007738,34.5153988 L169.656211,34.5153988 C169.161292,34.5153988 168.760081,34.1136034 168.760081,33.6179635 L168.760081,29.794889 L173.0167,34.5064245 L173.070468,34.5064245 L173.007738,34.5153988 Z" id="Shape" fill="#231F20" fill-rule="nonzero"></path>
            <path d="M252.951522,33.6179635 L252.951522,18.2538707 C252.975458,17.7510511 253.3898,17.3558643 253.892459,17.3564353 L257.315676,17.3564353 L257.315676,12.4474641 L238.953967,12.4474641 L238.953967,17.3743841 L242.538488,17.3743841 C243.033407,17.3743841 243.434618,17.7761795 243.434618,18.2718194 L243.434618,23.6564314 L233.478611,12.4564384 L220.54745,12.4564384 C220.54745,12.5102846 220.54745,17.3654097 220.54745,17.3654097 L222.483092,17.3654097 L224.176778,17.3654097 C224.671697,17.3654097 225.072908,17.7672052 225.072908,18.262845 L225.072908,33.6179635 C225.072908,34.1136034 224.671697,34.5153988 224.176778,34.5153988 L220.592257,34.5153988 L220.592257,39.4871906 L238.971889,39.4871906 L238.971889,34.5602706 L243.640728,39.5410367 L257.34256,39.5410367 L257.34256,34.5243732 L253.919343,34.5243732 C253.415069,34.5210837 252.997827,34.1305702 252.960483,33.6269379 L252.951522,33.6179635 Z M238.846431,34.5153988 L238.846431,34.5153988 L235.494904,34.5153988 C234.999985,34.5153988 234.598773,34.1136034 234.598773,33.6179635 L234.598773,29.794889 L238.855392,34.5064245 L238.90916,34.5064245 L238.846431,34.5153988 Z" id="Shape" fill="#231F20" fill-rule="nonzero"></path>
            <path d="M136.006519,34.5602706 L133.864767,34.5602706 L133.864767,39.4871906 L151.787373,39.4871906 L151.787373,34.5333475 L149.457434,34.5333475 C148.677801,34.4256553 147.423219,34.8384756 147.145418,33.8871941 L140.935235,12.4654128 L125.942975,12.4654128 L119.428108,33.8871941 C119.123424,34.8295012 117.877803,34.4077066 117.116092,34.4974501 L114.69654,34.4974501 L114.69654,39.4782162 L132.619146,39.4782162 L132.619146,34.5512963 L130.961305,34.5512963 C130.668829,34.5787858 130.378115,34.483193 130.158837,34.2874276 C129.939559,34.0916622 129.81148,33.8133696 129.805297,33.5192456 L130.620776,30.8269396 L136.356009,30.8269396 L137.189411,33.5192456 C137.171156,33.8155893 137.034463,34.0920736 136.810197,34.2862698 C136.585932,34.480466 136.293005,34.5759984 135.997557,34.5512963 L136.006519,34.5602706 Z M133.389818,21.996176 L134.653362,25.8461736 L132.144197,25.8461736 L133.389818,21.996176 Z" id="Shape" fill="#231F20" fill-rule="nonzero"></path>
            <path d="M113.683913,14.6910524 C112.815335,13.344021 111.349434,12.5013222 109.749901,12.4295154 L85.5543831,12.4295154 L85.5543831,17.3564353 L87.2839145,17.3564353 L88.9596782,17.3564353 C89.4545973,17.3564353 89.8558085,17.7582308 89.8558085,18.2538707 L89.8558085,33.6269379 C89.8558085,34.1225777 89.4545973,34.5243732 88.9596782,34.5243732 L85.5543831,34.5243732 L85.5543831,39.4871906 L105.26925,39.4871906 L105.26925,34.4884758 L101.604077,34.4884758 C101.109158,34.4884758 100.707946,34.0866803 100.707946,33.5910405 L100.707946,30.7730935 L110.287579,30.7730935 C111.429544,30.7648105 112.518528,30.2895292 113.302002,29.457464 C114.085477,28.6253988 114.495382,27.5088314 114.436662,26.3666861 L114.436662,17.805153 C114.52844,16.7079053 114.274593,15.6094379 113.710797,14.6641294 L113.683913,14.6910524 Z M100.66314,17.3295123 L102.786969,17.3295123 C103.281888,17.3295123 103.683099,17.7313078 103.683099,18.2269476 L103.683099,24.5807897 C103.683099,25.0764296 103.281888,25.4782251 102.786969,25.4782251 L100.66314,25.4782251 L100.66314,17.3295123 Z" id="Shape" fill="#231F20" fill-rule="nonzero"></path>
            <path d="M189.962524,36.0051415 L188.035843,36.0051415 C187.388655,36.0075376 186.767282,35.7511285 186.309647,35.2928272 C185.852013,34.834526 185.595976,34.2122488 185.598369,33.5641174 L185.598369,18.2807937 C185.603284,16.9346973 186.691704,15.8446914 188.035843,15.8397696 L189.980446,15.8397696 L189.980446,13.9102837 L174.665579,13.9102837 L174.665579,15.8397696 L176.717718,15.8397696 C177.364907,15.8373736 177.986279,16.0937826 178.443914,16.5520839 C178.901549,17.0103852 179.157585,17.6326623 179.155192,18.2807937 L179.155192,27.5243776 L167.039511,13.9102837 L156.285947,13.9102837 L156.285947,15.8577183 L158.373931,15.8577183 C159.02112,15.8553223 159.642492,16.1117314 160.100127,16.5700326 C160.557761,17.0283339 160.813798,17.650611 160.811405,18.2987424 L160.811405,33.5641174 C160.811423,34.2098789 160.554048,34.8289333 160.09641,35.2838676 C159.638772,35.7388019 159.018735,35.9919762 158.373931,35.9871928 L156.268025,35.9871928 L156.268025,37.9346274 L171.582891,37.9346274 L171.582891,35.9871928 L169.620366,35.9871928 C168.973177,35.9895889 168.351805,35.7331798 167.89417,35.2748785 C167.436535,34.8165773 167.180499,34.1943001 167.182892,33.5461687 L167.182892,30.8538627 L167.182892,30.8538627 L167.182892,25.8910453 L178.474133,37.8807813 L189.980446,37.8807813 L189.962524,36.0051415 Z" id="Path" fill="#ED1C24" fill-rule="nonzero"></path>
            <path d="M255.801216,36.0051415 L253.874536,36.0051415 C253.227347,36.0075376 252.605975,35.7511285 252.14834,35.2928272 C251.690705,34.834526 251.434669,34.2122488 251.437062,33.5641174 L251.437062,18.2807937 C251.434669,17.6326623 251.690705,17.0103852 252.14834,16.5520839 C252.605975,16.0937826 253.227347,15.8373736 253.874536,15.8397696 L255.819139,15.8397696 L255.819139,13.9102837 L240.504272,13.9102837 L240.504272,15.8397696 L242.55641,15.8397696 C243.203599,15.8373736 243.824972,16.0937826 244.282606,16.5520839 C244.740241,17.0103852 244.996277,17.6326623 244.993885,18.2807937 L244.993885,27.5243776 L232.878203,13.9102837 L222.12464,13.9102837 L222.12464,15.8577183 L224.212623,15.8577183 C224.859812,15.8553223 225.481185,16.1117314 225.938819,16.5700326 C226.396454,17.0283339 226.65249,17.650611 226.650098,18.2987424 L226.650098,33.5641174 C226.650115,34.2098789 226.39274,34.8289333 225.935103,35.2838676 C225.477465,35.7388019 224.857428,35.9919762 224.212623,35.9871928 L222.106717,35.9871928 L222.106717,37.9346274 L237.421584,37.9346274 L237.421584,35.9871928 L235.476981,35.9871928 C234.829792,35.9895889 234.20842,35.7331798 233.750785,35.2748785 C233.29315,34.8165773 233.037114,34.1943001 233.039507,33.5461687 L233.039507,30.8538627 L233.039507,30.8538627 L233.039507,25.8910453 L244.330748,37.8807813 L255.837061,37.8807813 L255.801216,36.0051415 Z" id="Path" fill="#ED1C24" fill-rule="nonzero"></path>
            <path d="M198.439916,36.0230902 L198.439916,37.9705249 L214.632991,37.9705249 L214.632991,36.0051415 L212.688388,36.0051415 C211.339314,35.9952796 210.250877,34.8972432 210.250913,33.5461687 L210.250913,18.2538707 C210.248521,17.6057393 210.504557,16.9834621 210.962192,16.5251608 C211.419827,16.0668596 212.041199,15.8104505 212.688388,15.8128466 L214.615068,15.8128466 L214.615068,13.8654119 L198.421994,13.8654119 L198.421994,15.8128466 L200.474132,15.8128466 C201.121321,15.8104505 201.742693,16.0668596 202.200328,16.5251608 C202.657963,16.9834621 202.913999,17.6057393 202.911606,18.2538707 L202.911606,33.5641174 C202.913999,34.2122488 202.657963,34.834526 202.200328,35.2928272 C201.742693,35.7511285 201.121321,36.0075376 200.474132,36.0051415 L198.439916,36.0230902 Z" id="Path" fill="#ED1C24" fill-rule="nonzero"></path>
            <path d="M264.224841,36.0230902 L264.224841,37.9705249 L280.417915,37.9705249 L280.417915,36.0051415 L278.45539,36.0051415 C277.106316,35.9952796 276.01788,34.8972432 276.017916,33.5461687 L276.017916,18.2807937 C276.015523,17.6326623 276.271559,17.0103852 276.729194,16.5520839 C277.186829,16.0937826 277.808201,15.8373736 278.45539,15.8397696 L280.399993,15.8397696 L280.399993,13.9102837 L264.206918,13.9102837 L264.206918,15.8577183 L266.259057,15.8577183 C266.906246,15.8553223 267.527618,16.1117314 267.985253,16.5700326 C268.442888,17.0283339 268.698924,17.650611 268.696531,18.2987424 L268.696531,33.6089892 C268.698924,34.2571206 268.442888,34.8793977 267.985253,35.337699 C267.527618,35.7960002 266.906246,36.0524093 266.259057,36.0500133 L264.224841,36.0230902 Z" id="Path" fill="#ED1C24" fill-rule="nonzero"></path>
            <path d="M112.384524,15.9384875 C111.798312,14.7824404 110.662303,14.0070686 109.373526,13.8833606 L87.0240368,13.8833606 L87.0240368,15.8307953 L88.9596782,15.8307953 C89.6068671,15.8283992 90.2282394,16.0848083 90.6858742,16.5431095 C91.143509,17.0014108 91.3995452,17.623688 91.3971526,18.2718194 L91.3971526,33.5820661 C91.392238,34.9281625 90.3038172,36.0181684 88.9596782,36.0230902 L87.0150755,36.0230902 L87.0150755,37.9884736 L103.69206,37.9884736 L103.69206,36.0410389 L101.505502,36.0410389 C100.863877,36.0412024 100.249279,35.7823188 99.8006689,35.3229218 C99.352059,34.8635248 99.1073229,34.2424111 99.1217957,33.6000148 L99.1217957,29.337197 C99.1217957,29.337197 109.875359,29.5166841 110.986561,28.8525819 C111.884125,28.3699468 112.489703,27.4786856 112.608557,26.4654039 L112.608557,17.0513073 L112.384524,15.9384875 Z M102.804891,26.9949579 L99.1486796,26.9949579 L99.1486796,15.8307786 L102.778007,15.8307786 C103.425196,15.8283992 104.046568,16.0848083 104.504203,16.5431095 C104.961838,17.0014108 105.217874,17.623688 105.215482,18.2718194 L105.215482,24.5538667 C105.220299,25.2027335 104.965042,25.8264246 104.506878,26.2852554 C104.048715,26.7440862 103.425931,26.9997153 102.778007,26.9949579 L102.804891,26.9949579 Z" id="Shape" fill="#ED1C24" fill-rule="nonzero"></path>
            <path d="M148.104278,36.0051415 C147.104386,36.0291939 146.189855,35.443468 145.792261,34.5243732 L139.877801,13.8833606 L127.098983,13.8833606 C126.158047,16.737205 122.788597,28.1705311 121.43544,32.7295025 L120.915684,34.5243732 C120.518091,35.443468 119.60356,36.0291939 118.603668,36.0051415 L116.327497,36.0051415 L116.219962,36.0051415 L116.219962,37.9525762 L131.149492,37.9525762 L131.149492,35.9871928 L130.934421,35.9871928 C130.24517,36.0474474 129.562227,35.8158301 129.051363,35.3485615 C128.540499,34.8812929 128.248423,34.2210958 128.24603,33.52822 L128.479024,32.6307846 L129.527497,29.2564278 L137.476172,29.2564278 L138.757639,33.5192456 C138.744653,34.2085845 138.44941,34.8622993 137.941066,35.3272625 C137.432722,35.7922258 136.755939,36.0275883 136.069248,35.9782184 L135.370266,35.9782184 L135.370266,37.9974479 L150.38941,37.9974479 L150.38941,35.9602697 L148.104278,36.0051415 Z M136.687578,27.407711 L130.181672,27.407711 L130.074136,27.3000188 L133.33605,16.9705382 L136.651732,27.3000188 L136.687578,27.407711 Z" id="Shape" fill="#ED1C24" fill-rule="nonzero"></path>
        </g>
    </g>
</svg>