<?xml version="1.0" encoding="utf-8"?>
<!-- Generator: Adobe Illustrator 24.2.1, SVG Export Plug-In . SVG Version: 6.00 Build 0)  -->
<svg version="1.1" id="Ebene_1" xmlns="http://www.w3.org/2000/svg" xmlns:xlink="http://www.w3.org/1999/xlink" x="0px" y="0px"
	 viewBox="0 0 155.8 40" style="enable-background:new 0 0 155.8 40;" xml:space="preserve">
<style type="text/css">
	.st0{fill:#394049;}
	.st1{fill:#00B6ED;}
	.st2{fill:#4FB04D;}
	.st3{fill:#F7A40B;}
	.st4{fill:#00913F;}
	.st5{fill:#1F92D1;}
</style>
<g>
	<path class="st0" d="M32.2,0.7h5.9V3c1.4-1.6,3.4-3,6.7-3C52.2,0,55,6.5,55,11.4c0,6-4.2,11-10.2,11c-3.8,0-5.6-1.8-6.3-2.6v1.9v7
		h-6.3C32.2,28.7,32.2,0.7,32.2,0.7z M48.7,11.2c0-2.5-1.8-5.3-5.3-5.3c-1.5,0-2.8,0.6-3.8,1.6c-0.9,0.9-1.5,2.3-1.5,3.8
		s0.6,2.8,1.5,3.7c0.9,0.9,2.3,1.5,3.7,1.5C46.8,16.6,48.7,13.9,48.7,11.2L48.7,11.2z"/>
	<path class="st0" d="M57.5,0.8h5.9v2.3C64,2,65.1,0,68.7,0v6.3h-0.2c-3.2,0-4.7,1.2-4.7,4.1v11.3h-6.3C57.5,21.7,57.5,0.8,57.5,0.8
		z"/>
	<path class="st0" d="M69.5,11.2C69.5,6,73.2,0,80.8,0s11.3,6,11.3,11.2s-3.7,11.2-11.3,11.2S69.5,16.3,69.5,11.2L69.5,11.2z
		 M75.8,11.2c0,3,2.3,5.3,5,5.3s5-2.2,5-5.3s-2.3-5.3-5-5.3S75.8,8.1,75.8,11.2L75.8,11.2z"/>
	<path class="st0" d="M92.1,0.8h6.5l3.2,13l3.4-13h5.3l3.6,13l3.1-13h6.5l-6.4,21h-5.8l-3.6-13.6l-3.5,13.6h-5.8L92.1,0.8z"/>
	<path class="st0" d="M125.8,0.8h6.3v21h-6.3V0.8z"/>
	<path class="st0" d="M149.2,12.3V0.8h6.3v21h-5.8l-7.4-11.3v11.2H136v-21h5.6L149.2,12.3z"/>
	<g>
		<path class="st1" d="M44.7,38.1l-0.2-0.2c-0.1,0.4-1.5,1.7-2.2,1.6c-1.9-0.1-3-2.1-2.9-3.6c0-0.1,1.7-5.5,2.5-5.5
			c0.4,0,1.3,0.7,1.3,1c0,0-2.1,4-2.1,5.3c0,0.3-0.1,1.2,0.5,1.2c1.1,0.1,5.2-3.5,5.3-3.5c0.3,0,0.4,0.5,0.4,0.6
			C47.2,35.5,44.8,38,44.7,38.1z M46.7,26.4c-0.5,0.2-1.8,0.4-2.3,0.9C44.3,27.5,44.2,28,44,28c-0.5,0-1.3-1.4-1.3-1.5
			c0.1-0.6,1.9-1.2,2.3-1.2c0.2,0,0,0.2,0.3,0.2c0.2,0,0-0.2,0.2-0.2s0.7-0.1,0.9-0.1c1.5,0.1,1.6,0.2,1.9,0.6
			C48.2,26.2,47,26.3,46.7,26.4z"/>
		<path class="st1" d="M54.3,39.3c-0.9,0-1.9-0.8-2.3-1.3c-0.3-0.4-0.3-1.4-0.3-2c0-0.2,0.2-1,0.3-1.8c0.1-0.5,0.2-0.9,0.3-1.5
			c0-0.1,0.1-0.3,0-0.3c-1.8,1.8-4,4.9-4.7,6c-0.1,0.1-0.2,0.1-0.3,0.1c-0.4,0-1.3-0.5-1.3-1c0-0.1,1.4-4.7,2-6.7
			c0.1-0.4,0.7-0.3,0.9-0.3c0.1,0,0.8,0.3,0.9,0.5L49,33.5l2.3-2l0.2-0.2c0.2-0.1,0.3-0.3,0.5-0.4c0,0,0.6-0.8,1.3-0.8
			c0.4,0,1.4,0.3,1.4,0.8c0,0.2-1.4,3.9-1.4,5.6c0,0.3,0,1.4,0.6,1.4c0.2,0,0.6-0.2,0.9-0.3c0.2-0.1,0.4-0.2,0.6-0.4
			c0.3-0.2,0.2-0.2,0.6-0.5c0.2-0.2,1.8-1.9,1.9-2c0.2,0,0.3,0.2,0.3,0.3C58.2,36.4,55.3,39.3,54.3,39.3z"/>
		<path class="st1" d="M69.1,39.3c-0.2,0.1-0.6,0.2-0.8,0.2c-1.9,0-3.7-2.1-3.7-4.2v-0.5c-0.1-0.1-0.2,0-0.5,0
			c-0.5,0-0.9,0.2-1.9,0.3c-0.5,1.3-0.3,2.9-0.8,4.2c-0.6,0.3-1.8-0.8-2-1.6c0-0.1,0.1-0.2,0-0.3c-0.2-0.8-0.9-1.4-1.5-2.1
			c-0.3-0.4-2.2-1.3-2-2.1c0.2,0,0.3-0.1,0.5-0.1s1,0.5,1.4,0.6c0.5,0.2,0.8,0.2,1.5,0.3h1.4c0.2-0.7,0.5-1.6,0.7-2.4l0.7-2.2
			l0.7-2.3l0.7-2.2c0.3-0.9,0.5-1.6,0.7-2.2c0.1-0.1,0.1-0.1,0.3-0.1c0.3,0,1.2,0.3,1.2,0.7c-0.2,0.5-0.4,1-0.6,1.5l-0.9,2.5
			c-0.4,1.1-0.7,2-0.9,2.7c-0.4,1.4-0.8,2.7-1,3.7c0.2,0.2,0.6,0.1,0.9,0.1c0.2,0,1.1-0.2,1.4-0.3l0.2-0.5l0.5-0.9
			c0.8-1.5,2.8-2.9,4.1-2.9c0.7,0,2.1,0.5,2.1,1.5s-2.3,2.5-2.8,2.5c-0.2,0-0.2-0.1-0.3-0.1c-0.3,0.6-1.9,0.9-2,1.1
			c-0.2,0.3-0.3,0.9-0.3,1.4c0,0.9,0.4,2.4,1.6,2.4c1.7,0,5.5-3.6,6.2-4.3h0.4c0.1,0.1,0,0.3,0,0.5C74.4,35.2,70.4,38.9,69.1,39.3z
			 M60.6,35.2c-0.3,0-0.8-0.1-1.1,0c0.3,0.4,0.8,0.8,0.9,1c0.1-0.3,0.1-0.5,0.1-0.7L60.6,35.2z M70.1,30.7h-0.2
			c-0.9,0.1-2.2,1.1-2.6,2c1-0.1,2.4-0.9,3.1-1.9C70.3,30.7,70.2,30.7,70.1,30.7z"/>
		<path class="st1" d="M80.8,33.1l-0.4,0.1c-0.2,0-0.4,0-0.6,0c-0.2-0.1-0.2-0.1-0.2-0.3c0-0.1,0.5-1.4,0.5-1.6c0-0.2,0-0.2-0.1-0.3
			h-0.2c-1,0.2-1.8,0.8-2.5,1.5c-0.7,0.8-1.2,1.4-1.9,2.7c-0.3,0.6-1,2.9-1.2,3.5C74.1,39,73.9,39,73.7,39c-0.3-0.1-1.2-0.8-1.2-1.2
			c0-0.1,1.7-5.3,2.6-8c0.1-0.2,0.3-0.5,0.5-0.5c0.5,0.1,1.3,0.7,1.3,0.9s-0.6,1.1-0.6,1.5c0.4-1,2.7-2.4,3.8-2.3
			c0.6,0.1,2,0.6,2,1.5C82,31.5,81.3,32.9,80.8,33.1z"/>
		<path class="st1" d="M89.2,39.3c-0.9,0-1.9-0.8-2.3-1.3c-0.3-0.4-0.3-1.4-0.3-2c0-0.2,0.2-1,0.3-1.8c0.1-0.5,0.2-0.9,0.3-1.5
			c0-0.1,0.1-0.3,0-0.3c-1.8,1.8-4,4.9-4.7,6c-0.1,0.1-0.2,0.1-0.3,0.1c-0.4,0-1.3-0.5-1.3-1c0-0.1,1.4-4.7,2-6.7
			c0.1-0.4,0.7-0.3,0.9-0.3c0.1,0,0.8,0.3,0.9,0.5l-0.8,2.5l2.3-2l0.2-0.2c0.2-0.1,0.3-0.3,0.5-0.4c0,0,0.6-0.8,1.3-0.8
			c0.4,0,1.4,0.3,1.4,0.8c0,0.2-1.4,3.9-1.4,5.6c0,0.3,0,1.4,0.6,1.4c0.2,0,0.6-0.2,0.9-0.3c0.2-0.1,0.4-0.2,0.6-0.4
			c0.3-0.2,0.2-0.2,0.6-0.5c0.2-0.2,1.8-1.9,1.9-2c0.2,0,0.3,0.2,0.3,0.3C93.2,36.4,90.3,39.3,89.2,39.3z"/>
		<path class="st1" d="M104.1,34.5c-0.6,0.8-1.7,1.5-2.2,1.8c-1.4,0.8-2.9,1.4-3.1,1.4c-0.4,0-0.5-0.3-0.5-0.7
			c0-1.7,1.3-3.6,2.1-5.5c-0.2-0.5-0.8-0.5-1-0.7c-0.3-0.2-0.6-1-1.4-1c-0.5-0.1-2.3,1.2-2,1.8c-0.3,0.1-0.6,0.2-0.8,0.3
			c-0.3,0.2-3.7,4.7-3.7,5.2s0.9,1.6,1.4,1.6c0.7,0,2.5-1.8,3.8-3c-0.1,0.3-0.2,0.8,0.2,1.9c0.3,0.9,1.5,1.5,2.3,1.5
			c1.5-0.1,4.3-2.8,5-3.4C104.2,35.3,104.2,34.9,104.1,34.5z M94,36.1c0.1-1,1.6-2.1,1.7-2.8c0,0,0,0,0.1,0c0,0,0,0,0.1,0.1
			c0.9-0.7,1.6-2,2.4-2C97.8,32.8,95.1,35.8,94,36.1z"/>
		<path class="st1" d="M117,36.5c-0.5,0.5-1.7,2.2-2.9,2.5c-0.2,0-0.8,0.1-0.9,0.1c-1,0-2.3-0.8-2.3-2c0-1.7,2-4.1,2.1-5.1
			c0.1-0.4-0.2-0.4-0.4-0.4c-1.5-0.1-3.9,0.7-4,0.9c-0.5,0.8-1.9,6.1-2.3,6.1c-0.1,0-0.9-0.2-1.2-0.6c-0.8-1.4-2-4.5-2-4.6
			c0-0.5,1-1,2.1-1.5c0.6-0.3,1.3-0.5,2.1-0.8c0.6-1.4,1.7-4.6,2.4-7.2c0.1,0,0.2-0.1,0.3-0.1c0.4,0,1.6,0.4,1.5,0.8l-2.3,6
			c2.4-0.8,5.7-0.3,5.7,1c0,1.8-2.1,3.3-2.1,5.7c0,0.4,0.1,0.4,0.3,0.4c1.3,0,4-2.9,5.1-3.7c0.1,0.2,0.2,0.3,0.2,0.5
			C118.2,34.8,117.4,36,117,36.5z M104.9,34.1c0,0.4,0.5,1.3,0.7,1.7c0.3-1,0.6-1.9,0.9-2.7C106.5,33.1,104.9,33.6,104.9,34.1z
			 M117.2,27.5c-0.3,0.2-0.3,0.4-0.5,0.4c-0.5,0-1.7-0.8-1.4-1.4c0.5-0.3,2.3-1.1,3.6-1.1c0.4,0,0.7,0.1,1.1,0.6
			C119.1,26.5,118.1,26.8,117.2,27.5z"/>
		<path class="st1" d="M133.2,39.7c-0.4,0.1-0.6,0.1-1,0.1c-0.2,0-0.4-0.3-0.7-0.6l-0.2,0.2c-2.1-2.2-1.4-3.3-1.2-4.9
			c-0.5,0.2-2.8,3-3.2,3c-0.2,0-0.1-0.2-0.3-0.2s0.1,0.2-0.2,0.2c-0.5-0.1-1.3-1.2-1.3-1.7c0-0.2,1.5-3.2,1.6-4.9
			c0.1-0.6-0.5-0.7-0.9-0.7c-0.5-0.1-2,0.1-2.3,0.9c-0.7,1.8-1.9,7.7-3.9,7.6c-0.4,0-1.3-1.1-1.3-1.2c-0.7-0.9-0.9-1.7-0.8-2.2
			c0.1-1,1.2-3.3,1.4-3.6v0.1c0,0.1,0,0.2,0.1,0.2c0.3-0.3,0.6-0.5,0.9-0.9c0.2-0.1,0.2-0.4,0.3-0.6c0.2-0.2,0.4-0.3,0.7-0.4v-0.2
			l-0.1-0.2c-0.1,0-0.2,0-0.3,0c0.2-0.1,0.8-0.7,1.1-0.7c0.2,0,0.2,0.2,0.4,0.3c0.2,0,1.4-0.7,3-0.6c1.4,0.1,3.7,1.2,3.4,2.7
			c-0.2,1.1-0.5,1.8-0.7,2.4l-0.4,1.1c0.9-0.9,1.6-1.5,2.1-2l1-1c0.5-0.6,0.6-1.2,1.2-1.1c0.5,0.1,1,0.4,1.2,0.8
			c0,0.2-0.9,2.3-1.2,3.8c-0.1,0.3-0.6,2.4,0.3,3c0.2,0.1,0.1,0,0.4,0c0.8,0.1,2.7-2.3,3.6-3.3c0.3,0.1,0.3,0.6,0.3,0.8
			C136.3,36.4,134.1,39.4,133.2,39.7z M119.5,36c0,0.3,0.1,0.4,0.2,0.5c0.9-0.5,1.2-1.3,1.8-2.7c0.4-1.2,0.4-1.3,0.6-2.3
			C121.2,32,119.5,34.2,119.5,36z M120.4,30.2l-0.1,0.2l-0.3,0.1l0.3-0.3H120.4z"/>
		<path class="st1" d="M146.8,36.4c-0.2,0.3-2.1,2.6-2.5,2.6c-0.2,0-0.2-0.1-0.3-0.1c-0.1,0.1,0,0.2,0,0.3c-0.2,0-0.2,0.3-0.4,0.3
			s0-0.1-0.2-0.1s-0.2,0.2-0.3,0.2c-0.2,0-0.1,0-0.2-0.1l-0.2,0.2c0-0.1,0-0.2,0-0.2l0,0c0,0,0,0,0,0.1c-0.3-0.2-0.4-0.6-0.6-0.6
			c-0.2,0,0,0.2-0.2,0.1c-0.9-0.5-1-1.8-1.1-2.2c-0.8,0.6-2.5,2.2-3.6,2.2c-0.4,0-1.8-1.2-1.8-1.7c-0.1-0.9,0.5-2,1.1-3.1
			c0.4-0.7,2.9-3.5,3.1-3.5c0.2,0,0.1,0.1,0.2,0.1c0.1-0.1,0.2-0.2,0.1-0.3c0.2-0.2,0.6-0.5,0.8-0.6c0.3-0.2,0.6-0.7,1.4-0.7
			c0.2,0,1.3,0.7,1.4,0.8c0.1,0.2,0.2,0.6,0.1,0.9c0.3,0.2,0.7,0.1,0.9,0.4v0.2c0,0.2,0,0.2,0,0.3c-0.2,0.2-0.3,0.3-0.4,0.5
			c-0.5,1-1.8,3.2-1.8,4.7v0.8V38c0,0.1,0.1,0.2,0.1,0.1c0.2,0,1.1-0.4,1.5-0.8c1.2-1,3.1-3,3.2-3.3c0.2-0.4,0.4,0.3,0.3,0.6
			C147.5,35.3,147.2,35.9,146.8,36.4z M142.3,31c-0.9,0-5.6,4.6-5.6,6.5c0,0.1,0,0.2,0,0.2l0,0h0.4c0.5-0.3,0.9-0.6,1.2-0.8
			c0.7-0.5,1.7-1.4,2.4-2.4c0.2-0.2,1.7-2.3,1.7-2.9C142.5,31.4,142.4,31.2,142.3,31z"/>
		<path class="st1" d="M155.2,36c-1,1.8-3.2,3.9-4.7,4c-0.5,0-1.4-0.6-1.8-1.1c-0.2-0.2-1.4-1.6-1.4-3.3c0-3,2.3-7.2,3.5-9.3
			c0.6-1.3,2-3.2,2.3-3.4c0.5,0,1.6,0.5,1.6,1.3c0,2.3-1.9,4.6-2.7,5.6c-0.3,0.4-1.5,1.7-2.2,2.7c-0.3,0.6-0.7,2.3-0.7,3.2
			c0,0.4,0.3,2.7,1.1,2.7c1.4,0,4.7-3.4,5.1-4.2c0.4-0.1,0.5,0.4,0.5,0.5C155.7,35.1,155.2,36,155.2,36z M152,27.1
			c-0.7,1.2-1.4,2.5-1.7,3.2c0.1,0.1,0.6-0.8,1.2-1.5c0.4-0.5,0.8-1,1.2-1.6c0.2-0.3-0.3-0.4,0.4-0.9c-0.1-0.2,0.3-0.9,0.1-1.3
			C152.9,25.7,152.4,26.4,152,27.1z"/>
	</g>
	<path class="st2" d="M32.2,35.6C26,25.9,13.1,23.2,3.4,29.4C9.7,39,22.6,41.8,32.2,35.6z"/>
	<path class="st1" d="M28.1,13.2C16.8,10.9,5.8,18.1,3.5,29.3C14.7,31.7,25.7,24.5,28.1,13.2z"/>
	<g>
		<path class="st3" d="M10,22.3"/>
		<path class="st3" d="M10.4,21.4"/>
		<path class="st3" d="M12.2,16.4c1.1-5.3,0.2-11-3.1-15.9c-9.5,6.4-12,19.4-5.6,28.9C4.6,23.8,7.9,19.3,12.2,16.4z"/>
	</g>
	<path class="st4" d="M19,26.5c-5.2-1.1-10.7-0.2-15.5,2.9C9,30.5,14.5,29.3,19,26.5z"/>
	<path class="st5" d="M12.2,16.4c-4.3,2.9-7.6,7.5-8.7,13C8.1,26.2,11.1,21.5,12.2,16.4z"/>
</g>
</svg>
